<?xml version="1.0" encoding="utf-8"?>
<svg width="14.813477px" height="14.361572px" viewBox="0 0 14.813477 14.361572" version="1.1" xmlns:xlink="http://www.w3.org/1999/xlink" xmlns="http://www.w3.org/2000/svg">
  <path d="M1.46045 5.45947L7.40674 9.14551L13.353 5.45947L7.40674 1.73877L1.46045 5.45947ZM14.8135 5.45947L14.8135 12.8665C14.8135 13.2837 14.6689 13.6372 14.3789 13.927C14.0894 14.2168 13.7471 14.3616 13.353 14.3616L1.46045 14.3616C1.06641 14.3616 0.724609 14.2168 0.43457 13.927C0.14502 13.6372 0 13.2837 0 12.8665L0 5.45947C0 5.1814 0.0639648 4.93213 0.191406 4.71191C0.318848 4.4917 0.486816 4.31201 0.695313 4.17285L7.40674 0L14.1182 4.17285C14.3267 4.31201 14.4951 4.4917 14.6226 4.71191C14.75 4.93213 14.8135 5.1814 14.8135 5.45947L14.8135 5.45947Z" id="email" fill="#FDCC52" stroke="none" />
</svg>