<?xml version="1.0" encoding="utf-8"?>
<svg width="13.353027px" height="13.3532715px" viewBox="0 0 13.353027 13.3532715" version="1.1" xmlns:xlink="http://www.w3.org/1999/xlink" xmlns="http://www.w3.org/2000/svg">
  <path d="M2.67773 5.77246C3.21094 6.81567 3.90039 7.7605 4.74658 8.60645C5.59277 9.45264 6.5376 10.1423 7.58057 10.6755L9.21533 9.04126C9.42383 8.83252 9.67871 8.77466 9.97998 8.86743C10.8145 9.14551 11.6958 9.28467 12.623 9.28467C12.8315 9.28467 13.0054 9.35425 13.1445 9.49316C13.2837 9.63232 13.353 9.80615 13.353 10.0149L13.353 12.623C13.353 12.8315 13.2837 13.0054 13.1445 13.1445C13.0054 13.2837 12.8315 13.3533 12.623 13.3533C10.9536 13.3533 9.34277 13.0344 7.78955 12.397C6.23633 11.7593 4.86816 10.8494 3.68604 9.66724C2.50391 8.48486 1.59375 7.11719 0.956055 5.56372C0.318848 4.0105 0 2.39941 0 0.730225C0 0.521729 0.0693359 0.347656 0.208496 0.20874C0.347656 0.0695801 0.521484 0 0.730469 0L3.33838 0C3.54688 0 3.7207 0.0695801 3.85986 0.20874C3.99902 0.347656 4.06836 0.521729 4.06836 0.730225C4.06836 1.65747 4.20752 2.53857 4.48584 3.37305C4.57861 3.67456 4.52051 3.92944 4.31201 4.13818L2.67773 5.77246Z" id="phone" fill="#FDCC52" fill-rule="evenodd" stroke="none" />
</svg>