<?xml version="1.0" encoding="utf-8"?>
<svg width="13.3671875px" height="11.23291px" viewBox="0 0 13.3671875 11.23291" version="1.1" xmlns:xlink="http://www.w3.org/1999/xlink" xmlns="http://www.w3.org/2000/svg">
  <path d="M5.04443 10.5564L5.25293 7.42676L10.9214 2.28027C11.0601 2.16431 11.0776 2.08887 10.9731 2.0542C10.8691 2.01929 10.7241 2.04834 10.5386 2.14111L3.51416 6.59204L0.48877 5.61841C0.141113 5.52563 -0.0209961 5.38086 0.00195313 5.18384C0.0253906 4.98682 0.233887 4.80713 0.62793 4.64478L12.4858 0.0893555C12.7642 -0.0495605 12.9961 -0.0266113 13.1816 0.158936C13.3672 0.344482 13.4131 0.645752 13.3208 1.06299L11.3037 10.5564C11.2344 10.8809 11.1011 11.0896 10.9038 11.1824C10.7065 11.2751 10.4692 11.2402 10.1909 11.0779L7.13086 8.81763L5.63574 10.2434C5.54297 10.3594 5.45605 10.4404 5.37451 10.4868C5.29346 10.5332 5.18359 10.5564 5.04443 10.5564L5.04443 10.5564Z" id="telegram" fill="#FDCC52" fill-rule="evenodd" stroke="none" />
</svg>