<?xml version="1.0" encoding="utf-8"?>
<svg width="14.744141px" height="14.813721px" viewBox="0 0 14.744141 14.813721" version="1.1" xmlns:xlink="http://www.w3.org/1999/xlink" xmlns="http://www.w3.org/2000/svg">
  <path d="M7.40674 0C6.08545 0 4.85693 0.330322 3.7207 0.990967C2.58496 1.65186 1.68652 2.54419 1.02588 3.6687C0.365234 4.79297 0.034668 6.01587 0.034668 7.3374C0.034668 8.65869 0.371094 9.88745 1.04346 11.0234L0 14.8137L3.89453 13.8052C4.98438 14.408 6.15479 14.7095 7.40674 14.7095C8.72803 14.7095 9.95117 14.3789 11.0757 13.7183C12.1997 13.0576 13.0923 12.165 13.7529 11.0408C14.4136 9.91626 14.7441 8.68188 14.7441 7.3374C14.7441 6.36353 14.5586 5.43042 14.188 4.53809C13.8169 3.64551 13.2896 2.85156 12.6055 2.15601C11.9219 1.46045 11.1274 0.927246 10.2236 0.556396C9.31934 0.185547 8.38037 0 7.40674 0L7.40674 0ZM7.40674 1.21704C8.21826 1.21704 8.99463 1.37354 9.73682 1.68652C10.4785 1.99951 11.1392 2.4458 11.7188 3.02539C12.2983 3.60498 12.7446 4.26563 13.0576 5.00757C13.3706 5.74927 13.5269 6.52588 13.5269 7.3374C13.5269 8.4502 13.249 9.47583 12.6924 10.4148C12.1362 11.3538 11.3887 12.0955 10.4497 12.6404C9.51074 13.1851 8.48486 13.4575 7.37207 13.4575C6.25928 13.4575 5.22754 13.1677 4.27734 12.5881L4.06836 12.4839L1.77344 13.075L2.36475 10.8147L2.22559 10.606C1.59961 9.60913 1.28662 8.51953 1.28662 7.3374C1.28662 6.22461 1.56494 5.20459 2.12109 4.2771C2.67773 3.34985 3.41943 2.60815 4.34668 2.05176C5.27393 1.49536 6.29395 1.21704 7.40674 1.21704L7.40674 1.21704ZM4.79883 3.92944C4.61328 3.92944 4.45117 4.0105 4.31201 4.17285L4.27734 4.20752C3.85986 4.64819 3.65137 5.14648 3.65137 5.70288C3.65137 6.25928 3.89502 6.87354 4.38184 7.5459L4.45117 7.68506C5.40186 9.00635 6.43311 9.89893 7.5459 10.3625C7.87061 10.5249 8.2124 10.6582 8.57178 10.7625C8.93115 10.8669 9.33105 10.8958 9.77148 10.8494C9.95703 10.803 10.189 10.6929 10.4673 10.519C10.7451 10.3452 10.9189 10.1597 10.9888 9.96265C11.0581 9.76563 11.1045 9.58594 11.1279 9.42383C11.1509 9.26147 11.145 9.15723 11.1104 9.11084C11.0757 9.06445 10.9771 8.99487 10.8149 8.9021L10.1191 8.55444C9.79492 8.39209 9.58594 8.29932 9.49316 8.27612C9.40088 8.25293 9.3252 8.24146 9.26758 8.24146C9.20947 8.24146 9.14551 8.28784 9.07617 8.38062C8.9834 8.51953 8.79785 8.75146 8.51953 9.07593C8.40381 9.19189 8.26465 9.21509 8.10254 9.14551L7.99805 9.07593C7.46484 8.86743 7.0127 8.58911 6.64209 8.24146C6.271 7.89355 5.92334 7.46484 5.59863 6.95483C5.5293 6.81567 5.55225 6.68823 5.66846 6.57227C5.78418 6.4563 5.87695 6.35791 5.94629 6.27661C6.01611 6.19556 6.07373 6.10864 6.12012 6.01587L6.15527 5.94629C6.20166 5.85352 6.18994 5.74927 6.12012 5.6333L5.56396 4.2771C5.49463 4.13818 5.43652 4.05127 5.39014 4.01636C5.34375 3.98169 5.27393 3.96411 5.18164 3.96411L4.79883 3.92944Z" id="whatsapp" fill="#FDCC52" stroke="none" />
</svg>