<?xml version="1.0" encoding="utf-8"?>
<svg width="16px" height="15.967529px" viewBox="0 0 16 15.967529" version="1.1" xmlns:xlink="http://www.w3.org/1999/xlink" xmlns="http://www.w3.org/2000/svg">
  <path d="M3.2373 1.53979C4.42139 0.662354 5.82129 0.131836 7.27979 0L7.27979 2.41406C6.33691 2.53638 5.43652 2.89722 4.66602 3.46826C3.70117 4.18286 2.99219 5.18872 2.64258 6.3374C2.29297 7.48608 2.32178 8.71655 2.7251 9.84741C3.12793 10.9783 3.88379 11.9497 4.88086 12.6184C5.87793 13.2871 7.06348 13.6177 8.2627 13.5615C9.46191 13.5051 10.6113 13.0647 11.5415 12.3054C12.4717 11.5461 13.1328 10.5081 13.4282 9.34448C13.6338 8.53271 13.6543 7.6897 13.4927 6.8772L15.52 5.24756L15.5186 5.23438C16.0659 6.73975 16.1494 8.3772 15.7544 9.93457C15.3325 11.5969 14.3877 13.0798 13.0591 14.1646C11.7305 15.2493 10.0889 15.8782 8.37549 15.9587C6.66211 16.0391 4.96875 15.5669 3.54395 14.6116C2.11963 13.6565 1.04004 12.2686 0.464355 10.6531C-0.111328 9.03735 -0.152832 7.27954 0.34668 5.63867C0.845703 3.9978 1.85889 2.56104 3.2373 1.53979L3.2373 1.53979ZM13.9917 2.6665L14 2.68774L12.6455 4.83936C12.1528 4.10938 11.4927 3.50171 10.7202 3.07153L10.7202 7.96777C10.7202 9.46997 9.50244 10.6877 8 10.6877C6.49756 10.6877 5.27979 9.46997 5.27979 7.96777C5.27979 6.46558 6.49756 5.2478 8 5.2478C8.56299 5.2478 9.08594 5.41895 9.52002 5.71191L9.52002 0.112061C11.2861 0.45166 12.8452 1.37207 13.9917 2.6665L13.9917 2.6665Z" id="yandex-music" fill="#FDCC52" fill-rule="evenodd" stroke="none" />
</svg>