<?xml version="1.0" encoding="utf-8"?>
<svg width="14.813477px" height="10.362549px" viewBox="0 0 14.813477 10.362549" version="1.1" xmlns:xlink="http://www.w3.org/1999/xlink" xmlns="http://www.w3.org/2000/svg">
  <path d="M5.91162 7.40698L9.77148 5.1814L5.91162 2.95581L5.91162 7.40698ZM14.5005 1.59961C14.5933 1.94727 14.6631 2.41089 14.7095 2.99048C14.7559 3.57007 14.7788 4.0918 14.7788 4.55542L14.8135 5.1814C14.8135 6.78101 14.7095 7.97485 14.5005 8.76294C14.3154 9.4353 13.8862 9.86426 13.2139 10.0496C12.8662 10.1423 12.2173 10.2119 11.2666 10.2583C10.3394 10.3047 9.44678 10.3279 8.58936 10.3279L7.40674 10.3625C4.32373 10.3625 2.3877 10.2583 1.59961 10.0496C0.927246 9.86426 0.498535 9.4353 0.312988 8.76294C0.220215 8.41528 0.150879 7.95166 0.104492 7.37207C0.0581055 6.79248 0.034668 6.271 0.034668 5.80713L0 5.1814C0 3.58179 0.104492 2.3877 0.312988 1.59961C0.498535 0.927246 0.927246 0.498535 1.59961 0.312988C1.94727 0.220215 2.59668 0.150635 3.54688 0.104248C4.47412 0.0578613 5.3667 0.034668 6.22461 0.034668L7.40674 0C10.4902 0 12.4258 0.104248 13.2139 0.312988C13.8862 0.498535 14.3154 0.927246 14.5005 1.59961L14.5005 1.59961Z" id="youtube" fill="#FDCC52" stroke="none" />
</svg>