<svg id="Layer_1" data-name="Layer 1" xmlns="http://www.w3.org/2000/svg" viewBox="0 0 249.14 337.2"><defs><style>.cls-1{fill:#1e1e2f;}</style></defs><path class="cls-1" d="M157.35,255.7c33.53-7.47,64.67-5.34,91.79,5.11V203.17l-9.58,2.13-16.47-74-.25.05-37.49,86-28.09,6.25L128.88,96.14l30.53-6.79,16.47,74,.25-.06,37.49-86L237.51,72A124.88,124.88,0,0,0,213.17,37C208.8,53,200.54,62.51,182,66.63c-22.47,5-34.63-3.57-47.42-23L150.81,30c9.53,14,14.58,18.29,26.55,15.62s14.52-8.53,17.38-24A124,124,0,0,0,124.57,0h0A124.57,124.57,0,0,0,0,124.57v7.68a68.84,68.84,0,0,1,33.29-17.64c38.1-8.48,72.65,14.32,81,51.69S101,239,62.87,247.46c-24.4,5.43-47.34-2-62.87-17.83V337.2H50.45C69.66,296.05,105.75,267.19,157.35,255.7Z"/><path class="cls-1" d="M56.67,219.62c20.76-4.62,31.47-24.44,26.58-46.41-5-22.23-23-35.38-43.76-30.76S7.72,166.69,12.67,188.92C17.56,210.9,35.91,224.24,56.67,219.62Z"/><path class="cls-1" d="M165.16,290.8C132,298.19,108,312,90.74,337.2h158.4V299.59C224,285.82,196.91,283.73,165.16,290.8Z"/></svg>