<?xml version="1.0" encoding="utf-8"?>
<svg width="138px" height="205.74634px" viewBox="0 0 138 205.74634" version="1.1" xmlns:xlink="http://www.w3.org/1999/xlink" xmlns="http://www.w3.org/2000/svg">
  <path d="M137.942 66.6388C137.942 29.9088 108.033 0 71.303 0L66.697 0C29.967 0 0.0583496 29.9088 0.0583496 66.6388L0.0583496 130.712L6.23828 130.712L6.23828 123.774L48.2156 97.1887L48.2156 104.418L6.64648 130.654L18.1902 130.654L48.2156 111.706L48.2156 130.654L54.3955 130.654L54.3955 97.3635L131.82 126.806L131.82 130.712L138 130.712L137.942 66.6388L137.942 66.6388ZM66.697 6.18005L70.8948 6.18005C70.1953 6.47144 69.4956 6.76318 68.7959 7.11292C68.5044 7.22937 68.2129 7.40454 67.9214 7.52112C67.3384 7.8125 66.8137 8.04565 66.2307 8.33728L65.1812 8.86182C64.6565 9.15356 64.1902 9.38672 63.6655 9.6781C63.3157 9.85291 62.9658 10.0863 62.616 10.3195C62.1497 10.6108 61.6831 10.8442 61.2168 11.1357C60.8669 11.3688 60.5171 11.6022 60.1672 11.7771C59.7009 12.0685 59.2927 12.3601 58.8264 12.6516L57.7771 13.3512C57.3105 13.6427 56.9023 13.9926 56.4944 14.2841C56.1445 14.5171 55.7947 14.8088 55.5032 15.042C55.095 15.3916 54.6287 15.6833 54.2205 16.0331C53.8708 16.2661 53.5793 16.5579 53.2295 16.791L52.0051 17.8403C51.7136 18.132 51.3638 18.3651 51.0723 18.6565C50.6641 19.0065 50.2561 19.4144 49.8479 19.8228C49.5564 20.1141 49.2649 20.3473 48.9734 20.6389C48.5071 21.0469 48.0989 21.5134 47.6907 21.9214L46.9912 22.6211C46.4663 23.2042 45.8833 23.7872 45.3586 24.3701L45.0088 24.7201C44.3674 25.4197 43.7844 26.1774 43.1433 26.8771L42.6184 27.5767C42.2688 28.0432 41.8606 28.5095 41.5107 28.9761C39.3535 28.6261 37.1382 28.4512 34.981 28.2764C34.7478 28.2764 34.5728 28.2764 34.3396 28.218C33.9316 28.218 33.5818 28.1598 33.1736 28.1598C32.8237 28.1598 32.5322 28.1598 32.1826 28.1016L30.4917 28.1016C29.5007 28.1016 28.5095 28.1016 27.5767 28.1598L26.9937 28.1598C26.6438 28.1598 26.2358 28.218 25.886 28.218C25.6528 28.218 25.3613 28.2764 25.1279 28.2764C24.7781 28.2764 24.4285 28.3346 24.0786 28.3346C23.7288 28.3929 23.3208 28.3929 22.9709 28.4512C22.5627 28.5095 22.2129 28.5095 21.8049 28.5677L20.5806 28.7429C20.3472 28.8011 20.114 28.8011 19.8809 28.8595C19.7061 28.8595 19.5894 28.9177 19.4146 28.9177C30.55 15.1586 47.5742 6.18005 66.697 6.18005L66.697 6.18005ZM72.0608 7.28772C72.8188 6.99634 73.5767 6.64636 74.3928 6.35498C74.4512 6.35498 74.5095 6.29663 74.5679 6.29663C81.1558 6.64636 87.4524 8.04565 93.2827 10.3195C87.8606 15.9747 84.8289 23.3208 84.8289 31.1915C84.8289 41.3359 89.8428 50.3143 97.5969 55.9114L97.1887 55.9114C94.6235 56.0862 92 56.5527 89.2598 57.2524C88.9683 56.8441 88.6768 56.4362 88.3269 56.0862C88.2686 56.028 88.2686 55.9696 88.2104 55.9114C87.8022 55.3866 87.394 54.9203 86.9861 54.4537C86.811 54.2206 86.6362 54.0458 86.4612 53.8124C86.228 53.521 85.9949 53.2878 85.7617 52.9962C85.5286 52.7047 85.2952 52.4717 85.062 52.2383C84.8872 52.0634 84.7122 51.8885 84.5374 51.6554C84.2458 51.3638 83.9543 51.0723 83.7212 50.7809L83.4878 50.5475C79.9897 46.9329 76.0835 43.668 71.886 40.8694C71.8276 40.8112 71.7693 40.8112 71.7109 40.7528C71.303 40.4614 70.8364 40.17 70.4285 39.9366C70.3118 39.8783 70.1951 39.8201 70.0786 39.7035C69.6704 39.4703 69.2622 39.1787 68.8542 38.9456C68.5627 38.7708 68.3296 38.5958 68.0381 38.4792C67.6882 38.2458 67.28 38.0127 66.8721 37.8379C66.4055 37.6045 65.9973 37.3131 65.531 37.08L65.1812 36.9052C64.6565 36.6134 64.0735 36.322 63.5488 36.0889C63.5488 36.0889 63.4905 36.0889 63.4905 36.0304C62.4993 35.5059 61.45 35.0393 60.4587 34.573L60.4587 32.5323L55.4448 32.5323C51.4805 31.0747 47.3411 30.0254 43.1433 29.2675C43.3181 29.0343 43.4929 28.8011 43.7263 28.5677C44.0178 28.2181 44.3093 27.8682 44.5425 27.5184C44.8923 27.1105 45.1838 26.7605 45.5337 26.3525C45.8252 26.0026 46.1167 25.6528 46.4082 25.3612C46.7578 24.9532 47.1077 24.6033 47.4575 24.2535C47.749 23.9038 48.0405 23.6122 48.3904 23.2625L49.498 22.1545L50.4309 21.2218C50.7808 20.8721 51.189 20.5221 51.5386 20.1725C51.8884 19.881 52.1799 19.5894 52.5298 19.298C52.938 18.9482 53.2876 18.6565 53.6958 18.3069C54.0457 18.0151 54.3955 17.7238 54.7454 17.4906C55.1533 17.1406 55.5615 16.8492 55.9695 16.5579C56.3193 16.2661 56.6692 16.0331 57.019 15.7416C57.427 15.45 57.8936 15.1586 58.3018 14.8086C58.6514 14.5754 59.0012 14.2841 59.3511 14.0509C59.8174 13.7593 60.2256 13.4678 60.6919 13.1761C61.0417 12.943 61.3916 12.7098 61.7998 12.4767C62.2661 12.1851 62.7327 11.8937 63.199 11.6605C63.5488 11.4271 63.8987 11.2523 64.3066 11.0192C64.7732 10.7274 65.2979 10.4944 65.7642 10.2029C66.114 10.0281 66.4639 9.79468 66.8137 9.61987C67.3384 9.32837 67.863 9.09497 68.3877 8.86194C68.7375 8.68701 69.0874 8.51221 69.3789 8.33728C69.9619 8.04565 70.5449 7.8125 71.1279 7.57935C71.4778 7.52112 71.7693 7.4043 72.0608 7.28772L72.0608 7.28772ZM99.1711 13.0012C114.271 20.8721 125.64 34.9227 129.955 51.772C125.873 54.3955 121.093 55.7946 116.137 55.7946C102.203 55.7946 90.8923 44.7756 90.8923 31.1913C90.8923 24.1952 93.8657 17.6654 99.1711 13.0012L99.1711 13.0012ZM6.29663 66.6385C6.29663 53.171 10.7275 40.6946 18.1902 30.6665C18.2485 30.6665 18.3069 30.6665 18.365 30.6083C18.6565 30.5499 18.948 30.4917 19.2395 30.4917C19.531 30.4333 19.8228 30.3751 20.114 30.3751C20.4639 30.3168 20.7554 30.2585 21.1052 30.2585C21.3384 30.2002 21.5718 30.2002 21.8049 30.2002C22.2131 30.142 22.5627 30.0836 22.9709 30.0836C23.0876 30.0836 23.2041 30.0836 23.3208 30.0251C25.4197 29.792 27.5767 29.6754 29.7339 29.6754L31.8911 29.6754C32.2991 29.6754 32.7073 29.6754 33.1155 29.7338C33.407 29.7338 33.6985 29.7338 33.99 29.792C34.2815 29.792 34.6313 29.792 34.9229 29.8502C41.6274 30.2585 48.1572 31.5992 54.3955 33.7566L54.3955 38.3624L48.1572 38.3624L48.1572 44.2509L54.3955 44.2509L54.3955 52.9962L54.2207 52.9962L54.2207 52.9379C54.2207 52.9962 53.9292 56.2611 50.0229 61.3333C49.6147 61.8578 49.1484 62.3826 48.6819 62.9073C45.9417 62.3826 43.1433 62.0912 40.3447 62.0912C26.8188 62.0912 14.3423 68.3293 6.35498 78.6488L6.35498 66.6385L6.29663 66.6385L6.29663 66.6385ZM60.5171 38.2458L60.5171 36.147C61.7415 36.73 62.9658 37.3129 64.1318 37.896C64.2485 37.9542 64.3652 38.0125 64.4233 38.0708C64.54 38.129 64.7148 38.2458 64.8315 38.3042L60.5171 38.2458L60.5171 38.2458ZM60.5754 52.7045L60.5754 44.1343L66.8137 44.1343L66.8137 39.2953C66.9304 39.3535 67.1052 39.4701 67.2219 39.5283C68.4463 40.228 69.6123 40.986 70.8367 41.7439L70.895 41.8021C71.3613 42.0936 71.8279 42.4436 72.2942 42.735C75.0928 44.7174 77.7747 46.8744 80.2815 49.2648L80.3982 49.3813C80.748 49.7313 81.156 50.0809 81.5059 50.4309L81.739 50.6641C82.0889 51.0138 82.3804 51.3638 82.7302 51.6552L83.0801 52.0051C83.3716 52.3547 83.7214 52.6462 84.0129 52.9962C84.1294 53.171 84.3044 53.2876 84.4209 53.4624L85.6453 54.8617C85.8784 55.1532 86.1699 55.5031 86.4033 55.7946C86.5781 55.9694 86.6948 56.2028 86.8696 56.3776C87.1028 56.6691 87.3943 57.019 87.6274 57.3104C87.6858 57.3687 87.7441 57.4852 87.8025 57.5436C81.2144 59.4094 75.0344 62.5577 69.6707 65.7058C67.9216 64.4816 66.1726 62.9073 64.7732 61.1001C60.8088 56.028 60.5757 52.7631 60.5754 52.7045L60.5754 52.7045ZM131.762 120.218L121.151 116.195C122.375 113.455 123.483 109.199 122.434 104.068C120.51 94.9733 111.648 91.1837 111.24 91.0087C111.181 91.0087 105.876 88.7933 102.903 84.9454C100.337 81.6805 99.9873 79.5233 99.9292 79.2318L99.9292 78.7654L93.5742 78.7654L93.5742 79.2902C93.5159 79.8149 92.9912 81.9137 90.6592 84.9454C90.6008 85.0037 90.5425 85.062 90.5425 85.1202C87.5107 74.451 76.9583 69.9034 76.4919 69.6703C76.4336 69.6703 73.9265 68.621 70.9531 66.6388C76.3169 63.5488 82.4387 60.517 88.9102 58.7681C91.7668 58.01 94.6235 57.4852 97.3054 57.3104L98.0051 57.3104C98.5298 57.2521 99.1128 57.2521 99.6377 57.2521C104.418 60.1674 110.073 61.858 116.137 61.858L117.186 61.858C121.967 64.6564 125.99 68.5626 128.847 73.2852C130.013 75.209 131.004 77.1329 131.82 79.057L131.82 120.218L131.762 120.218L131.762 120.218ZM131.762 75.734C131.237 74.6844 130.654 73.6351 130.013 72.5857C127.389 68.2129 123.774 64.54 119.577 61.6831C123.658 61.2751 127.564 59.9924 131.179 58.0686C131.587 60.8669 131.762 63.7239 131.762 66.639L131.762 75.734L131.762 75.734ZM73.6934 98.1801L53.5793 90.5425C51.1306 89.6096 48.3904 89.901 46.175 91.3004L31.7161 100.454C31.1914 99.4043 30.6667 98.0632 30.2585 96.4308C31.3081 94.3322 36.9634 84.7706 51.5969 87.3358C60.2256 88.8517 66.3472 87.9772 69.8455 84.7123C72.0608 82.6135 72.5273 80.1649 72.5854 78.7656L66.4055 78.7656C66.3472 79.1736 66.114 79.7567 65.531 80.2815C64.5981 81.0977 61.5083 82.7885 52.7046 81.2726C42.9683 79.5818 35.564 82.2637 30.55 86.4613C32.9404 79.057 40.7529 75.6173 40.8113 75.6173C41.1609 75.4424 49.8479 71.8859 55.0952 65.1813C56.0278 63.957 56.7859 62.8491 57.4854 61.7998C58.1267 62.8491 58.8848 64.0154 59.8757 65.1813C65.123 71.8859 73.8098 75.5007 74.1597 75.6173C74.2764 75.6755 83.0215 79.407 84.8289 87.9189C84.9456 88.5603 85.062 89.1433 85.1204 89.7262C83.6045 90.6007 82.4968 91.0673 82.4385 91.0673C82.0305 91.1255 77.0166 93.2827 73.6934 98.1801L73.6934 98.1801ZM23.9038 86.5195C23.7871 86.9277 23.729 87.394 23.6707 87.8022C19.2397 88.2103 14.5757 88.0938 10.0864 86.8695L10.0281 86.8695C9.56177 86.7529 9.15356 86.6361 8.68726 86.4613L8.62891 86.4613C8.2207 86.3447 7.8125 86.1698 7.34619 85.995C7.28784 85.995 7.28784 85.9368 7.22949 85.9368C6.87988 85.8199 6.53003 85.645 6.23853 85.5284L6.23853 80.9811C13.876 70.0786 26.5273 63.4323 40.2283 63.4323C42.6187 63.4323 45.009 63.6653 47.3411 64.0153C43.26 67.6299 38.3625 69.7289 38.2461 69.7289C37.8379 69.9037 26.4109 74.801 23.9038 86.5195L23.9038 86.5195ZM6.29663 116.486L6.29663 86.8693C11.8354 89.2013 17.782 89.6676 23.4956 89.1431C22.7959 95.6729 24.7783 100.862 26.2942 103.835L6.29663 116.486L6.29663 116.486ZM115.262 113.98L79.8733 100.57C82.0303 98.1216 84.7122 96.9556 84.7122 96.9556C85.0037 96.839 91.6501 94.0986 95.6729 88.9099C96.0811 88.3851 96.4309 87.8606 96.7808 87.394C97.1304 87.8606 97.4802 88.3851 97.8884 88.9099C101.911 94.0986 108.558 96.839 108.791 96.8973C108.849 96.8973 114.971 99.6375 116.195 105.409C117.011 109.141 116.079 112.172 115.262 113.98L115.262 113.98ZM63.7236 107.625C62.033 107.625 60.6335 109.024 60.6335 110.715L60.6335 130.77L66.8137 130.77L66.8137 110.715C66.8137 109.024 65.4727 107.625 63.7236 107.625L63.7236 107.625ZM76.1421 112.231C74.4512 112.231 73.052 113.63 73.052 115.321L73.052 130.712L79.2319 130.712L79.2319 115.321C79.2319 113.63 77.8328 112.231 76.1421 112.231L76.1421 112.231ZM88.502 117.011C86.8113 117.011 85.4119 118.411 85.4119 120.101L85.4119 130.77L91.5918 130.77L91.5918 120.101C91.5918 118.352 90.1926 117.011 88.502 117.011L88.502 117.011ZM100.92 121.617C99.2295 121.617 97.8303 123.016 97.8303 124.707L97.8303 130.712L104.01 130.712L104.01 124.707C104.01 123.016 102.611 121.617 100.92 121.617L100.92 121.617ZM113.338 126.515C111.648 126.515 110.248 127.914 110.248 129.604L110.248 130.712L116.428 130.712L116.428 129.604C116.428 127.914 115.029 126.515 113.338 126.515L113.338 126.515ZM137.825 136.484L0.0583496 136.484L0.0583496 142.547L137.825 142.547L137.825 136.484L137.825 136.484ZM106.575 145.054C95.6731 145.054 86.0532 150.593 80.5146 158.93L66.7554 158.93L66.7554 148.086L60.5171 148.086L60.5171 202.715L66.7554 202.715L66.7554 164.994L77.4246 164.994C76.2004 168.258 75.5591 171.757 75.5591 175.43C75.5591 192.162 89.4932 205.746 106.634 205.746C123.774 205.746 137.708 192.162 137.708 175.43C137.65 158.639 123.716 145.054 106.575 145.054L106.575 145.054ZM48.0989 160.738L6.23828 188.023L6.23828 148.086L0 148.086L0 202.715L6.23828 202.715L6.23828 195.369L48.0989 168.084L48.0989 202.773L54.2788 202.773L54.2788 148.086L48.0405 148.086L48.0405 160.738L48.0989 160.738L48.0989 160.738ZM106.575 199.683C92.8745 199.683 81.6807 188.781 81.6807 175.429C81.6807 162.02 92.8162 151.176 106.575 151.176C120.276 151.176 131.47 162.078 131.47 175.429C131.47 188.781 120.276 199.683 106.575 199.683L106.575 199.683Z" id="blue-logo" fill="#85D0F4" fill-rule="evenodd" stroke="none" />
</svg>