<?xml version="1.0" encoding="utf-8"?>
<svg width="323.81104px" height="442px" viewBox="0 0 323.81104 442" version="1.1" xmlns:xlink="http://www.w3.org/1999/xlink" xmlns="http://www.w3.org/2000/svg">
  <path d="M308.689 138.751C317.552 145.552 323.04 155.853 323.746 167.002L323.718 167.099C324.556 179.417 319.655 191.432 310.442 199.651C301.227 207.87 288.735 211.372 276.589 209.138L224.791 199.486C224.651 199.776 224.514 200.065 224.363 200.355L273.406 239.705L216.599 212.736C216.395 213.012 216.187 213.315 215.966 213.591L254.944 262.883L205.639 223.918C205.21 224.291 204.715 224.607 204.26 224.966L230.651 282.061L191.794 232.577C190.181 233.335 188.542 234.066 186.858 234.714L204.494 397.769C205.698 409.037 202.063 420.287 194.493 428.722C186.926 437.156 176.132 441.982 164.801 442L159.008 442C147.676 441.982 136.883 437.156 129.313 428.722C121.743 420.288 118.11 409.037 119.314 397.769L136.948 234.755C135.264 234.107 133.625 233.39 132.011 232.618L93.1577 282.061L119.519 224.828C119.08 224.456 118.595 224.139 118.14 223.767L68.8352 262.731L107.799 213.439C107.578 213.164 107.387 212.86 107.166 212.584L50.375 239.553L99.4026 200.203L98.9907 199.334L47.1895 208.986C35.0549 211.209 22.5732 207.706 13.3689 199.495C4.16309 191.283 -0.736816 179.283 0.0900879 166.975C0.783447 155.822 6.27563 145.518 15.1462 138.723C24.6819 131.409 36.8862 128.51 48.6919 130.754L99.0176 140.074L99.4321 139.22L50.4021 99.8691L107.193 126.838C107.414 126.549 107.608 126.259 107.829 125.983L68.8647 76.6919L118.17 115.656C118.595 115.284 119.08 114.953 119.548 114.595L93.1577 57.5129L132.011 106.956C132.259 106.832 132.493 106.708 132.757 106.598L122.236 47.0894C119.511 31.2932 126.418 15.3857 139.823 6.59399C153.226 -2.198 170.569 -2.198 183.972 6.59399C197.374 15.386 204.282 31.2932 201.556 47.0894L191.051 106.598L191.794 106.956L230.678 57.4854L204.287 114.567C204.715 114.926 205.21 115.256 205.666 115.629L254.971 76.6643L215.993 125.956C216.214 126.231 216.421 126.521 216.628 126.811L273.434 99.8416L224.39 139.192C224.541 139.482 224.681 139.771 224.818 140.047L275.144 130.781C286.949 128.532 299.156 131.431 308.689 138.751L308.689 138.751ZM279.239 194.978C287.017 196.438 295.033 194.195 300.925 188.911L300.925 188.897C306.836 183.619 309.963 175.898 309.392 167.995C308.95 160.922 305.471 154.387 299.851 150.071C293.563 145.295 285.549 143.407 277.791 144.873L229.617 153.807L226.086 154.455L222.569 155.117L219.042 155.765L215.511 156.413L199.267 159.433L193.407 160.508C191.805 160.801 190.168 160.889 188.541 160.77C186.802 160.63 185.089 160.25 183.454 159.639C176.326 157.225 171.331 150.79 170.754 143.287C170.587 141.6 170.649 139.898 170.935 138.227L171.996 132.188L174.85 116.07L175.47 112.54L176.092 108.997L176.711 105.467L177.333 101.938L187.453 44.6353C188.765 37.1812 186.713 29.5283 181.847 23.73C176.983 17.9316 169.804 14.5813 162.234 14.5779C154.438 14.4302 146.992 17.7971 141.954 23.7466C137.079 29.5447 135.025 37.2039 136.342 44.6628L146.461 101.965L147.081 105.495L147.716 109.024L148.336 112.568L148.958 116.097L151.81 132.215L152.873 138.268C153.159 139.935 153.218 141.632 153.051 143.315C152.316 150.753 147.377 157.111 140.354 159.667C138.717 160.277 137.007 160.658 135.264 160.798C133.638 160.916 132.003 160.828 130.398 160.536L124.538 159.46L108.297 156.441L104.767 155.792L101.236 155.145L97.7087 154.483L94.1917 153.835L46.0044 144.804C38.219 143.304 30.1646 145.195 23.8604 150.002C18.2402 154.318 14.761 160.854 14.3193 167.926C13.7593 175.835 16.8938 183.557 22.8074 188.839C28.7212 194.121 36.7461 196.368 44.542 194.923L94.1782 185.726L97.7087 185.064L101.223 184.416L104.753 183.768L108.284 183.106L124.538 180.101L132.48 178.625C133.506 178.447 134.542 178.35 135.582 178.336L136.051 178.336C137.645 178.358 139.231 178.585 140.766 179.011C146.752 180.481 151.648 184.778 153.878 190.524C154.403 191.881 154.777 193.291 154.995 194.729C155.249 196.363 155.294 198.021 155.133 199.666L154.707 203.691L152.472 224.222L152.087 227.793L151.699 231.35L151.328 234.907L150.943 238.464L133.557 399.258C132.773 406.486 135.1 413.706 139.955 419.116C144.811 424.527 151.737 427.619 159.008 427.619L164.8 427.619C172.069 427.619 178.998 424.527 183.853 419.116C188.708 413.706 191.035 406.486 190.251 399.258L172.852 238.45L172.464 234.893L172.079 231.336L171.692 227.779L171.32 224.208L169.087 203.678L168.659 199.652C168.492 198.007 168.538 196.348 168.797 194.716C169.001 193.274 169.376 191.863 169.914 190.51C172.149 184.764 177.042 180.465 183.026 178.984C184.739 178.562 186.503 178.381 188.267 178.446C189.285 178.439 190.302 178.509 191.313 178.653L199.2 180.142L215.498 183.161L219.025 183.823L222.556 184.471L226.073 185.133L229.603 185.781L279.239 194.978L279.239 194.978ZM140.438 169.47L140.998 169.806L140.928 169.818L138.148 169.304L136.355 168.974L106.989 163.458L103.458 162.811L99.9277 162.107L96.4136 161.446L92.8965 160.798L44.7764 151.918C43.4678 151.672 42.1401 151.547 40.8071 151.546C32.0093 151.546 22.2771 157.461 21.5042 168.436C21.092 174.138 23.3462 179.709 27.6064 183.522C31.8665 187.334 37.6536 188.958 43.2739 187.918L92.9099 178.722L96.427 178.06L103.458 176.764L106.989 176.102L136.355 170.67L138.148 170.325L140.928 169.818L141.057 169.842L140.998 169.806L141.1 169.787L141.98 170.311L143.607 171.304L144.173 171.662L146.602 173.124L149.717 175.027C150.31 175.371 150.832 175.813 151.398 176.212C152.184 176.772 152.941 177.375 153.66 178.019C154.322 178.625 155.039 179.218 155.577 179.866C155.604 179.902 155.636 179.934 155.674 179.963L160.844 186.208L161.437 186.939L161.879 187.463L162.331 186.912L162.883 186.25L168.124 179.976L168.234 179.866C168.826 179.218 169.489 178.611 170.151 178.019C170.87 177.375 171.624 176.772 172.411 176.212C172.952 175.789 173.512 175.393 174.094 175.027L177.209 173.124L179.623 171.648L180.201 171.304L181.828 170.311L182.698 169.787L182.792 169.805L182.751 169.829L182.835 169.813L185.663 170.339L187.454 170.67L216.823 176.102L220.35 176.764L227.384 178.06L230.898 178.722L280.535 187.918C281.66 188.121 282.799 188.223 283.941 188.221C289.055 188.205 293.929 186.065 297.406 182.313C300.88 178.562 302.641 173.536 302.264 168.436C301.547 157.461 291.813 151.546 283.031 151.546C281.695 151.547 280.359 151.672 279.045 151.918L230.912 160.839L227.397 161.487L223.881 162.135L220.366 162.797L216.836 163.445L187.467 168.96L185.676 169.291L182.835 169.813L182.792 169.805L183.36 169.456L182.326 168.712L180.05 167.085L178.173 165.706L176.229 164.327L174.549 163.114C174.301 162.935 174.121 162.673 173.873 162.493C173.03 161.796 172.23 161.051 171.474 160.26C170.838 159.727 170.229 159.161 169.653 158.564C169.516 158.412 169.405 158.233 169.281 158.068C168.792 157.466 168.331 156.84 167.903 156.192L167.421 155.489L166.233 153.711L164.73 151.491L163.214 149.229L162.016 147.437L162.331 145.59L162.595 144.114L167.779 114.788L168.398 111.272L169.64 104.212L170.262 100.697L180.382 43.3806C181.351 38.0276 179.878 32.521 176.369 28.3657C172.669 24.0618 167.232 21.6472 161.561 21.7888C156.11 21.7876 150.94 24.1975 147.437 28.3713C143.933 32.5452 142.457 38.0552 143.402 43.4219L153.522 100.752L154.142 104.268L155.383 111.327L156.003 114.843L161.189 144.156L161.45 145.658L161.768 147.423L160.54 149.257L159.038 151.532L157.562 153.766L156.404 155.503L155.922 156.234C155.496 156.875 155.036 157.492 154.543 158.081C154.419 158.247 154.309 158.426 154.169 158.592C153.633 159.226 152.943 159.695 152.351 160.274C151.594 161.068 150.786 161.814 149.938 162.507C149.704 162.687 149.523 162.948 149.276 163.128L147.593 164.327L145.662 165.706L143.76 167.085L141.499 168.712L140.438 169.47L140.438 169.47ZM157.465 40.885C157.236 39.6899 157.567 38.4561 158.362 37.5344C159.266 36.5667 160.532 36.0171 161.857 36.0171C163.182 36.0171 164.448 36.5667 165.353 37.5344C166.152 38.4583 166.483 39.6992 166.249 40.8987L161.863 65.7168L157.465 40.885L157.465 40.885ZM198.069 128.038C196.814 126.921 195.435 125.873 194.056 124.88C192.29 123.554 190.445 122.339 188.528 121.24L186.888 130.533L185.108 140.667C185.054 141.052 185.054 141.441 185.108 141.825C185.167 143.023 185.657 144.159 186.486 145.024C187.337 145.828 188.436 146.315 189.602 146.403C190.02 146.457 190.442 146.457 190.857 146.403L201.502 144.431L210.23 142.804C209.204 141.006 208.084 139.262 206.88 137.579C205.776 136.048 204.591 134.532 203.336 133.153C201.693 131.334 199.935 129.625 198.069 128.038L198.069 128.038ZM116.993 137.62C116.993 137.625 116.982 137.629 116.982 137.634C115.794 139.298 114.709 141.024 113.715 142.804L122.386 144.487L133.032 146.458C133.449 146.512 133.869 146.512 134.287 146.458C135.453 146.391 136.557 145.901 137.389 145.08C138.213 144.211 138.703 143.077 138.768 141.881C138.816 141.496 138.816 141.107 138.768 140.722L136.974 130.588L135.334 121.295C133.403 122.377 131.537 123.574 129.749 124.88C128.357 125.873 127.021 126.921 125.739 128.038C123.889 129.645 122.15 131.372 120.526 133.208C119.273 134.624 118.094 136.095 116.993 137.62L116.993 137.62ZM286.933 172.559C285.915 173.583 284.496 174.058 283.101 173.827L261.245 169.773L281.625 166.009C282.077 165.915 282.541 165.868 283.003 165.871C284.547 165.872 287.786 166.74 287.967 169.401C288.099 170.554 287.722 171.707 286.933 172.559L286.933 172.559ZM40.6396 173.827C39.2419 174.092 37.804 173.618 36.8345 172.572C36.0293 171.725 35.6362 170.565 35.76 169.401C35.9539 166.52 39.5112 165.872 40.7366 165.872C41.1997 165.869 41.6628 165.915 42.1152 166.009L62.4792 169.773L40.6396 173.827L40.6396 173.827ZM203.279 206.366C204.54 204.956 205.724 203.479 206.823 201.94L206.823 201.927C208.048 200.257 209.182 198.522 210.216 196.729L201.488 195.115L189.505 192.896L188.748 192.758C187.463 192.49 186.125 192.77 185.056 193.532C183.99 194.294 183.287 195.468 183.123 196.77C182.999 197.219 182.942 197.683 182.958 198.149L183.866 206.615L185.245 219.865C188.336 218.425 191.288 216.698 194.056 214.708C195.435 213.715 196.773 212.667 198.068 211.551C199.918 209.938 201.658 208.207 203.279 206.366L203.279 206.366ZM129.731 214.694C129.736 214.699 129.744 214.703 129.75 214.708C132.547 216.695 135.504 218.417 138.601 219.851L139.98 206.601L140.89 198.135C140.901 197.67 140.844 197.206 140.726 196.756C140.581 195.711 140.096 194.742 139.347 193.999C138.205 192.939 136.63 192.484 135.1 192.771L134.357 192.909L122.374 195.129L113.646 196.742C114.664 198.535 115.776 200.27 116.982 201.94C118.084 203.479 119.266 204.956 120.526 206.366C122.147 208.207 123.89 209.938 125.74 211.551C126.987 212.662 128.357 213.706 129.731 214.694L129.731 214.694ZM164.965 232.094L165.353 235.665L165.738 239.223L183.137 400.085C183.697 405.29 182.019 410.488 178.521 414.383C175.023 418.278 170.036 420.503 164.801 420.505L159.008 420.505C153.773 420.508 148.783 418.284 145.282 414.388C141.784 410.491 140.106 405.291 140.672 400.085L158.141 239.223L158.526 235.665L158.914 232.094L159.684 224.98L161.973 203.815L164.195 224.98L164.965 232.094L164.965 232.094ZM164.801 406.152C165.969 406.163 167.084 405.659 167.846 404.773C168.614 403.909 168.983 402.764 168.867 401.615L161.973 337.02L154.872 401.588C154.751 402.757 155.133 403.922 155.922 404.793C156.711 405.664 157.834 406.158 159.008 406.152L164.801 406.152L164.801 406.152Z" id="cross" fill="#99999911" fill-rule="evenodd" stroke="none" />
</svg>