<?xml version="1.0" encoding="utf-8"?>
<svg width="798px" height="965px" viewBox="0 0 798 965" version="1.1" xmlns:xlink="http://www.w3.org/1999/xlink" xmlns="http://www.w3.org/2000/svg">
  <defs>
    <filter filterUnits="userSpaceOnUse" color-interpolation-filters="sRGB" id="filter_1">
      <feFlood flood-opacity="0" result="BackgroundImageFix" />
      <feBlend mode="normal" in="SourceGraphic" in2="BackgroundImageFix" result="shape" />
      <feGaussianBlur stdDeviation="11" result="effect0_gaussianBlur" />
    </filter>
    <path d="M0 0L732 0L732 899L0 899L0 0Z" id="path_1" />
    <clipPath id="mask_1">
      <use xlink:href="#path_1" />
    </clipPath>
  </defs>
  <g id="Группа-39" transform="translate(33 33)">
    <path d="M731.691 503.473C731.691 308.646 573.046 150 378.218 150L353.788 150C158.96 150 0.314941 308.646 0.314941 503.473L0.314941 843.337L33.0952 843.337L33.0952 806.537L255.755 665.519L255.755 703.866L35.2603 843.028L96.4917 843.028L255.755 742.522L255.755 843.028L288.536 843.028L288.536 666.446L699.22 822.618L699.22 843.337L732 843.337L731.691 503.473L731.691 503.473ZM353.793 182.784L376.059 182.784C372.348 184.33 368.637 185.877 364.926 187.732C363.38 188.351 361.833 189.279 360.288 189.897C357.195 191.443 354.412 192.68 351.319 194.227L345.753 197.009C342.969 198.557 340.496 199.793 337.712 201.339C335.857 202.267 334.001 203.504 332.146 204.741C329.672 206.287 327.198 207.524 324.724 209.07C322.868 210.307 321.013 211.545 319.157 212.473C316.683 214.018 314.519 215.565 312.044 217.111L306.478 220.822C304.004 222.368 301.839 224.224 299.675 225.77C297.819 227.007 295.963 228.554 294.417 229.791C292.252 231.646 289.779 233.192 287.614 235.047C285.758 236.284 284.212 237.831 282.356 239.068L275.862 244.634C274.316 246.181 272.46 247.417 270.914 248.963C268.75 250.819 266.584 252.984 264.42 255.149C262.874 256.695 261.328 257.932 259.781 259.479C257.307 261.643 255.143 264.117 252.978 266.281L249.267 269.993C246.483 273.085 243.391 276.178 240.607 279.27L238.752 281.126C235.35 284.837 232.258 288.856 228.856 292.567L226.073 296.279C224.217 298.753 222.053 301.227 220.197 303.701C208.755 301.845 197.003 300.917 185.561 299.99C184.324 299.99 183.396 299.99 182.159 299.681C179.995 299.681 178.139 299.372 175.974 299.372C174.119 299.372 172.573 299.372 170.717 299.063L161.749 299.063C156.492 299.063 151.234 299.063 146.286 299.372L143.194 299.372C141.338 299.372 139.174 299.681 137.318 299.681C136.081 299.681 134.535 299.99 133.298 299.99C131.442 299.99 129.587 300.299 127.731 300.299C125.876 300.608 123.711 300.608 121.855 300.917C119.691 301.227 117.835 301.227 115.671 301.536L109.176 302.464C107.939 302.773 106.703 302.773 105.465 303.083C104.538 303.083 103.919 303.392 102.991 303.392C162.058 230.409 252.359 182.784 353.793 182.784L353.793 182.784ZM382.236 188.659C386.256 187.113 390.277 185.257 394.606 183.711C394.916 183.711 395.225 183.402 395.534 183.402C430.479 185.257 463.878 192.679 494.803 204.74C466.043 234.738 449.962 273.703 449.962 315.452C449.962 369.261 476.558 416.885 517.688 446.574L515.523 446.574C501.916 447.501 488 449.976 473.465 453.686C471.918 451.521 470.373 449.357 468.517 447.501C468.208 447.192 468.208 446.883 467.898 446.574C465.733 443.79 463.569 441.316 461.404 438.842C460.477 437.605 459.548 436.678 458.621 435.44C457.384 433.894 456.147 432.658 454.91 431.11C453.673 429.564 452.436 428.328 451.199 427.09C450.271 426.163 449.343 425.235 448.416 423.999C446.869 422.452 445.323 420.906 444.086 419.36L442.849 418.122C424.294 398.949 403.574 381.631 381.308 366.787C380.999 366.477 380.69 366.477 380.381 366.168C378.216 364.623 375.742 363.077 373.577 361.839C372.958 361.529 372.34 361.22 371.722 360.602C369.557 359.365 367.392 357.818 365.228 356.582C363.681 355.654 362.444 354.727 360.898 354.108C359.042 352.871 356.877 351.634 354.713 350.707C352.239 349.468 350.074 347.923 347.6 346.686L345.745 345.759C342.961 344.211 339.869 342.666 337.085 341.429C337.085 341.429 336.776 341.429 336.776 341.119C331.519 338.336 325.953 335.862 320.695 333.388L320.695 322.564L294.1 322.564C273.071 314.833 251.114 309.267 228.848 305.246C229.776 304.009 230.704 302.773 231.941 301.535C233.487 299.68 235.033 297.824 236.271 295.969C238.126 293.805 239.672 291.948 241.528 289.784C243.074 287.928 244.62 286.073 246.167 284.526C248.022 282.362 249.877 280.506 251.733 278.651C253.279 276.796 254.825 275.249 256.681 273.394L262.557 267.517L267.504 262.569C269.36 260.714 271.525 258.858 273.38 257.003C275.236 255.458 276.782 253.911 278.638 252.365C280.802 250.51 282.658 248.963 284.823 247.108C286.678 245.561 288.534 244.015 290.389 242.778C292.554 240.922 294.718 239.376 296.883 237.831C298.739 236.283 300.594 235.047 302.45 233.501C304.615 231.954 307.088 230.408 309.253 228.552C311.109 227.315 312.964 225.77 314.82 224.533C317.293 222.986 319.458 221.44 321.933 219.893C323.788 218.656 325.644 217.419 327.808 216.183C330.282 214.636 332.756 213.09 335.23 211.854C337.085 210.616 338.941 209.688 341.106 208.452C343.58 206.904 346.363 205.668 348.837 204.122C350.693 203.194 352.548 201.957 354.404 201.029C357.187 199.483 359.97 198.246 362.753 197.009C364.609 196.081 366.464 195.154 368.011 194.227C371.103 192.679 374.196 191.443 377.288 190.206C379.144 189.897 380.69 189.277 382.236 188.659L382.236 188.659ZM526.026 218.959C606.122 260.709 666.425 335.238 689.31 424.611C667.662 438.527 642.304 445.948 616.018 445.948C542.107 445.948 482.112 387.501 482.112 315.445C482.112 278.336 497.884 243.7 526.026 218.959L526.026 218.959ZM33.4019 503.47C33.4019 432.034 56.9048 365.854 96.4888 312.663C96.7983 312.663 97.1074 312.663 97.4165 312.354C98.9629 312.044 100.509 311.735 102.055 311.735C103.602 311.426 105.148 311.117 106.694 311.117C108.55 310.808 110.096 310.499 111.951 310.499C113.188 310.189 114.425 310.189 115.663 310.189C117.827 309.88 119.683 309.571 121.848 309.571C122.466 309.571 123.084 309.571 123.703 309.261C134.836 308.024 146.278 307.406 157.72 307.406L169.163 307.406C171.328 307.406 173.492 307.406 175.657 307.715C177.203 307.715 178.75 307.715 180.296 308.024C181.842 308.024 183.697 308.024 185.244 308.333C220.808 310.499 255.443 317.611 288.533 329.053L288.533 353.484L255.443 353.484L255.443 384.718L288.533 384.718L288.533 431.106L287.605 431.106L287.605 430.797C287.605 431.106 286.059 448.424 265.339 475.329C263.175 478.111 260.701 480.895 258.227 483.678C243.692 480.895 228.848 479.349 214.004 479.349C142.258 479.349 76.0786 512.438 33.7114 567.175L33.7114 503.47L33.4019 503.47L33.4019 503.47ZM321.013 352.874L321.013 341.74C327.507 344.833 334.001 347.925 340.186 351.018C340.805 351.327 341.423 351.636 341.732 351.945C342.351 352.254 343.279 352.874 343.897 353.183L321.013 352.874L321.013 352.874ZM321.303 429.556L321.303 384.097L354.393 384.097L354.393 358.429C355.012 358.738 355.939 359.357 356.558 359.666C363.052 363.377 369.237 367.397 375.731 371.418L376.041 371.727C378.515 373.272 380.989 375.129 383.462 376.675C398.307 387.19 412.532 398.631 425.83 411.311L426.448 411.929C428.304 413.785 430.469 415.64 432.324 417.497L433.561 418.733C435.417 420.588 436.963 422.444 438.818 423.99L440.674 425.846C442.22 427.701 444.076 429.247 445.622 431.103C446.241 432.031 447.168 432.649 447.787 433.577L454.281 440.999C455.518 442.544 457.064 444.401 458.301 445.947C459.229 446.874 459.848 448.112 460.775 449.04C462.012 450.585 463.559 452.441 464.795 453.987C465.104 454.296 465.414 454.915 465.723 455.224C430.778 465.121 397.998 481.82 369.546 498.519C360.269 492.025 350.991 483.675 343.569 474.089C322.541 447.185 321.303 429.867 321.303 429.556L321.303 429.556ZM698.907 787.671L642.624 766.333C649.118 751.798 654.994 729.224 649.427 702.009C639.222 653.766 592.216 633.666 590.051 632.737C589.742 632.737 561.6 620.986 545.829 600.575C532.222 583.257 530.366 571.815 530.057 570.269L530.057 567.794L496.349 567.794L496.349 570.578C496.039 573.362 493.256 584.494 480.886 600.575C480.577 600.885 480.268 601.194 480.268 601.503C464.187 544.91 408.212 520.788 405.738 519.552C405.429 519.552 392.131 513.985 376.359 503.472C404.811 487.081 437.282 471 471.608 461.723C486.762 457.702 501.915 454.918 516.141 453.991L519.852 453.991C522.635 453.682 525.727 453.682 528.51 453.682C553.869 469.145 583.866 478.113 616.028 478.113L621.595 478.113C646.953 492.957 668.291 513.676 683.445 538.726C689.629 548.931 694.887 559.135 699.216 569.341L699.216 787.671L698.907 787.671L698.907 787.671ZM698.907 551.721C696.124 546.153 693.032 540.587 689.63 535.021C675.714 511.826 656.54 492.344 634.274 477.19C655.921 475.026 676.641 468.222 695.815 458.018C697.98 472.861 698.907 488.015 698.907 503.478L698.907 551.721L698.907 551.721ZM390.885 670.779L284.194 630.267C271.206 625.319 256.671 626.864 244.919 634.287L168.226 682.839C165.442 677.272 162.659 670.159 160.494 661.5C166.061 650.368 196.058 599.651 273.68 613.258C319.449 621.298 351.92 616.66 370.475 599.342C382.226 588.209 384.7 575.221 385.01 567.799L352.229 567.799C351.92 569.963 350.683 573.056 347.59 575.839C342.643 580.169 326.252 589.137 279.555 581.096C227.911 572.128 188.636 586.354 162.041 608.619C174.72 569.345 216.159 551.099 216.468 551.099C218.324 550.171 264.402 531.307 292.235 495.743C297.183 489.25 301.203 483.373 304.914 477.807C308.316 483.373 312.336 489.559 317.593 495.743C345.426 531.307 391.504 550.48 393.359 551.099C393.978 551.408 440.365 571.201 449.952 616.351C450.571 619.752 451.189 622.846 451.499 625.937C443.458 630.576 437.582 633.05 437.273 633.05C435.108 633.359 408.513 644.802 390.885 670.779L390.885 670.779ZM126.79 608.929C126.171 611.094 125.862 613.567 125.553 615.732C102.05 617.896 77.3101 617.278 53.4976 610.785L53.1885 610.785C50.7144 610.167 48.5498 609.547 46.0757 608.619L45.7666 608.619C43.6016 608.001 41.437 607.074 38.9629 606.146C38.6538 606.146 38.6538 605.837 38.3442 605.837C36.4888 605.217 34.6333 604.29 33.0869 603.671L33.0869 579.551C73.5986 521.72 140.706 486.466 213.38 486.466C226.059 486.466 238.738 487.703 251.108 489.559C229.461 508.732 203.484 519.865 202.865 519.865C200.701 520.793 140.087 546.77 126.79 608.929L126.79 608.929ZM33.4019 767.883L33.4019 610.785C62.7808 623.155 94.3242 625.628 124.631 622.846C120.919 657.482 131.434 685.005 139.475 700.777L33.4019 767.883L33.4019 767.883ZM611.379 754.589L423.665 683.46C435.107 670.472 449.333 664.288 449.333 664.288C450.879 663.669 486.133 649.134 507.472 621.611C509.636 618.828 511.492 616.045 513.347 613.57C515.203 616.045 517.058 618.828 519.223 621.611C540.561 649.134 575.816 663.669 577.053 663.979C577.362 663.979 609.833 678.513 616.328 709.128C620.657 728.921 615.709 745.001 611.379 754.589L611.379 754.589ZM338.008 720.874C329.04 720.874 321.618 728.296 321.618 737.264L321.618 843.645L354.399 843.645L354.399 737.264C354.398 728.296 347.286 720.874 338.008 720.874L338.008 720.874ZM403.892 745.301C394.924 745.301 387.501 752.724 387.501 761.691L387.501 843.333L420.282 843.333L420.282 761.691C420.282 752.724 412.86 745.301 403.892 745.301L403.892 745.301ZM469.436 770.662C460.468 770.662 453.046 778.084 453.046 787.052L453.046 843.645L485.827 843.645L485.827 787.052C485.827 777.774 478.404 770.662 469.436 770.662L469.436 770.662ZM535.32 795.089C526.352 795.089 518.93 802.512 518.93 811.479L518.93 843.332L551.71 843.332L551.71 811.479C551.71 802.512 544.288 795.089 535.32 795.089L535.32 795.089ZM601.179 821.067C592.211 821.067 584.789 828.49 584.789 837.458L584.789 843.333L617.569 843.333L617.569 837.458C617.569 828.49 610.147 821.067 601.179 821.067L601.179 821.067ZM0.314941 899.349L731.072 899.349L731.072 873.956L0.314941 873.956L0.314941 899.349L0.314941 899.349Z" id="Вектор" fill="#19192677" fill-rule="evenodd" stroke="none" />
  </g>
  <use xlink:href="#Группа 39" filter="url(#filter_1)" clip-path="url(#mask_1)" />
</svg>