<?xml version="1.0" encoding="utf-8"?>
<svg width="384.2002px" height="92.44824px" viewBox="0 0 384.2002 92.44824" version="1.1" xmlns:xlink="http://www.w3.org/1999/xlink" xmlns="http://www.w3.org/2000/svg">
  <defs>
    <linearGradient gradientUnits="userSpaceOnUse" x1="62.060684" y1="0.0617174" x2="62.060684" y2="107.614426" id="gradient_1">
      <stop offset="0%" stop-color="#C7E5F0" />
      <stop offset="54.000004%" stop-color="#FFFFFF" />
    </linearGradient>
    <linearGradient gradientUnits="userSpaceOnUse" x1="80.00035" y1="-8.359044" x2="80.00035" y2="67.935356" id="gradient_2">
      <stop offset="0%" stop-color="#C7E5F0" />
      <stop offset="54.000004%" stop-color="#FFFFFF" />
    </linearGradient>
    <linearGradient gradientUnits="userSpaceOnUse" x1="54.00488" y1="-14.009159" x2="54.00488" y2="126.40648" id="gradient_3">
      <stop offset="0%" stop-color="#C7E5F0" />
      <stop offset="54.000004%" stop-color="#FFFFFF" />
    </linearGradient>
    <linearGradient gradientUnits="userSpaceOnUse" x1="124.307274" y1="-36.98233" x2="124.307274" y2="190.69737" id="gradient_4">
      <stop offset="0%" stop-color="#C7E5F0" />
      <stop offset="54.000004%" stop-color="#FFFFFF" />
    </linearGradient>
    <linearGradient gradientUnits="userSpaceOnUse" x1="135.2291" y1="-24.48517" x2="135.2291" y2="115.23613" id="gradient_5">
      <stop offset="0%" stop-color="#85D0F4" />
      <stop offset="100%" stop-color="#C7E5F0" />
    </linearGradient>
    <linearGradient gradientUnits="userSpaceOnUse" x1="14.030503" y1="59.58554" x2="14.030503" y2="11.525482" id="gradient_6">
      <stop offset="0%" stop-color="#326355" />
      <stop offset="98.99999%" stop-color="#00AD85" />
    </linearGradient>
    <linearGradient gradientUnits="userSpaceOnUse" x1="29.667051" y1="-14.626304" x2="29.667051" y2="61.668083" id="gradient_7">
      <stop offset="0%" stop-color="#C7E5F0" />
      <stop offset="54.000004%" stop-color="#FFFFFF" />
    </linearGradient>
    <linearGradient gradientUnits="userSpaceOnUse" x1="58.31164" y1="4.1612616E-06" x2="58.31164" y2="69.814384" id="gradient_8">
      <stop offset="0%" stop-color="#C7E5F0" />
      <stop offset="54.000004%" stop-color="#FFFFFF" />
    </linearGradient>
    <linearGradient gradientUnits="userSpaceOnUse" x1="61.70433" y1="4.1621797E-06" x2="61.70433" y2="69.82979" id="gradient_9">
      <stop offset="0%" stop-color="#85D0F4" />
      <stop offset="100%" stop-color="#C7E5F0" />
    </linearGradient>
    <linearGradient gradientUnits="userSpaceOnUse" x1="141.50325" y1="-39.68233" x2="141.50325" y2="99.97727" id="gradient_10">
      <stop offset="0%" stop-color="#85D0F4" />
      <stop offset="100%" stop-color="#C7E5F0" />
    </linearGradient>
    <linearGradient gradientUnits="userSpaceOnUse" x1="14.779289" y1="68.99632" x2="14.779289" y2="13.360798" id="gradient_11">
      <stop offset="0%" stop-color="#326355" />
      <stop offset="98.99999%" stop-color="#00AD85" />
    </linearGradient>
    <linearGradient gradientUnits="userSpaceOnUse" x1="1.3219397" y1="51.346348" x2="1.3219397" y2="9.966874" id="gradient_12">
      <stop offset="2%" stop-color="#306300" />
      <stop offset="100%" stop-color="#4FAA00" />
    </linearGradient>
    <path d="M0 0L384.2 0L384.2 92.4481L0 92.4481L0 0Z" id="path_1" />
    <path d="M0 0L384.2 0L384.2 90.427L0 90.427L0 0Z" id="path_2" />
    <clipPath id="mask_1">
      <use xlink:href="#path_1" />
    </clipPath>
    <clipPath id="mask_2">
      <use xlink:href="#path_2" />
    </clipPath>
  </defs>
  <g id="footer_pattern">
    <path d="M0 0L384.2 0L384.2 92.4481L0 92.4481L0 0Z" id="Фон" fill="#FFFFFF" fill-opacity="0" fill-rule="evenodd" stroke="none" />
    <g clip-path="url(#mask_1)">
      <g id="Группа-масок" transform="translate(0 2.0212402)">
        <path d="M0 0L384.2 0L384.2 90.427L0 90.427L0 0Z" id="Прямоугольник" fill="none" fill-rule="evenodd" stroke="none" />
        <g clip-path="url(#mask_2)">
          <g id="Group" transform="translate(-42.401367 1.4353027)">
            <path d="M337.709 0.0617176C327.843 0.0254432 318.158 2.69437 309.715 7.77601L309.715 7.77601C291.945 18.6995 267.886 22.7263 267.886 22.7263L267.654 38.5715L284.695 43.4006C280.3 65.6744 290.424 88.2976 309.994 99.9345C329.564 111.571 354.364 109.715 371.967 95.2951C389.571 80.8753 396.185 56.9991 388.496 35.6299C380.807 14.2608 360.471 0.00274266 337.678 0L337.709 0.0617176Z" id="Фигура" fill="url(#gradient_1)" fill-rule="evenodd" stroke="#1E1E2F" stroke-width="2" />
            <path d="M39.3032 10.985C61.751 -2.71559 90.8294 1.26498 119.304 16.7244C153.138 35.1153 174.083 26.9536 199.273 15.6444C198.514 51.2999 194.223 87.9428 194.223 87.9428L39.3032 87.9428L39.3032 10.985Z" id="Фигура" fill="url(#gradient_2)" fill-rule="evenodd" stroke="#1E1E2F" stroke-width="2" />
            <path d="M166.446 57.0394C166.446 27.3353 190.624 3.25537 220.45 3.25537C250.277 3.25537 274.455 27.3353 274.455 57.0394C274.455 86.7436 250.277 110.824 220.45 110.824C190.624 110.824 166.446 86.7436 166.446 57.0394Z" id="Круг" fill="url(#gradient_3)" fill-rule="evenodd" stroke="#1E1E2F" stroke-width="2" />
            <path d="M184.385 15.4592C178.936 11.6739 172.572 9.40499 165.95 8.88659C164.943 8.79401 163.936 8.7323 162.851 8.7323C162.216 8.7323 161.596 8.7323 160.977 8.7323L160.698 8.7323L159.102 8.88659L158.947 8.88659C124.849 12.4197 115.678 59.8009 0 28.2649L0 78.5775L241.674 78.5775L241.674 46.2855C241.674 41.2249 248.584 44.2489 248.584 40.1141C228.305 50.5438 201.689 25.534 184.385 15.4592L184.385 15.4592Z" id="Фигура" fill="url(#gradient_4)" fill-rule="evenodd" stroke="#1E1E2F" stroke-width="2" />
            <path d="M272.008 18.931C270.985 18.931 269.978 18.931 268.909 19.0853C262.291 19.6012 255.929 21.8587 250.474 25.627C233.665 35.455 219.01 51.6859 195.075 42.9379C194.466 42.6618 193.84 42.4247 193.2 42.2282C172.348 35.8099 151.031 57.0396 123.486 57.0396C95.9417 57.0396 76.174 34.1282 39.3032 34.1282L39.3032 92.7568L193.154 91.214L277.259 88.6837C295.158 88.6837 309.668 74.233 309.668 56.4071C309.635 35.7126 292.789 18.9485 272.008 18.931L272.008 18.931Z" id="Фигура" fill="url(#gradient_5)" fill-rule="evenodd" stroke="#1E1E2F" stroke-width="2" />
            <path d="M86.7547 71.5271C85.7202 70.1529 84.9914 68.575 84.6168 66.8985C84.2565 65.1746 84.7265 63.3822 85.8871 62.0539C87.1187 60.7389 89.1144 60.4799 90.6432 61.4368C88.3967 60.4574 86.7637 58.4575 86.2589 56.0676C85.9016 54.9182 85.843 53.6972 86.0885 52.519C86.3678 51.3368 87.2138 50.3673 88.3503 49.927C89.552 49.4983 90.8853 50.0361 91.4487 51.1768C91.3093 49.711 90.922 48.2762 90.6586 46.8413C90.3372 45.3988 90.3744 43.8999 90.7671 42.475C91.1965 41.0178 92.3804 39.9036 93.8655 39.559C95.3739 39.2652 96.8387 40.2354 97.1498 41.7344C96.3185 38.7533 96.1129 35.6336 96.5456 32.5699C96.9949 30.4716 98.4821 28.2499 100.62 28.2807C102.23 28.4405 103.586 29.5477 104.059 31.0887C104.482 32.5944 104.572 34.1736 104.323 35.7173C104.264 37.6174 103.731 39.4731 102.773 41.1173C103.308 39.9362 104.602 39.2917 105.872 39.5744C107.092 39.8694 108.095 40.7306 108.567 41.8887C109.021 43.0403 109.171 44.2888 109.001 45.5145C108.672 48.5836 107.209 51.4213 104.896 53.4756C105.177 52.4213 106.217 51.753 107.297 51.9327C108.348 52.1618 109.211 52.9051 109.59 53.9076C109.943 54.8957 110.055 55.9536 109.915 56.9933C109.824 59.5965 108.488 61.9992 106.321 63.4579C108.259 62.7469 110.436 63.3717 111.697 65.0008C112.878 66.67 113.045 68.8504 112.13 70.6785C111.184 72.4785 109.479 73.763 107.483 74.1808C106.862 74.2389 106.268 74.4627 105.763 74.8288C105.317 75.4859 105.069 76.2572 105.051 77.0505C104.544 78.9822 102.973 80.456 101.007 80.8459C99.0251 81.2607 96.9587 80.9076 95.2288 79.8585C91.8478 77.705 88.9604 74.8662 86.7547 71.5271L86.7547 71.5271Z" id="Фигура" fill="url(#gradient_6)" fill-rule="evenodd" stroke="#1E1E2F" stroke-width="2" stroke-linecap="round" stroke-linejoin="round" />
            <path d="M427.237 8.88702C409.467 19.8105 385.408 23.8528 385.408 23.8528L385.238 39.7442L428.507 52.0871L444.588 20.0573L427.237 8.88702Z" id="Фигура" fill="url(#gradient_7)" fill-rule="evenodd" stroke="#1E1E2F" stroke-width="2" />
            <path d="M367.732 25.627C373.187 21.8587 379.549 19.6012 386.167 19.0853C387.174 18.9927 388.181 18.931 389.266 18.931C399.265 18.9269 408.856 22.88 415.928 29.9201C423 36.9603 426.973 46.5105 426.973 56.4688L426.973 88.7454L310.412 88.7454L310.412 42.2282C335.478 52.5345 350.49 35.7173 367.732 25.627L367.732 25.627Z" id="Фигура" fill="url(#gradient_8)" fill-rule="evenodd" stroke="#1E1E2F" stroke-width="2" />
            <path d="M331.187 40.8396C325.733 37.0664 319.371 34.8036 312.751 34.2824C311.744 34.1898 310.737 34.1281 309.653 34.1281C288.852 34.1622 272.008 50.9653 272.008 71.6813L272.008 103.958L388.522 103.958L388.522 71.6813C388.522 66.6207 395.432 69.6447 395.432 65.5099C375.106 75.8779 348.491 50.9144 331.187 40.8396L331.187 40.8396Z" id="Фигура" fill="url(#gradient_9)" fill-rule="evenodd" stroke="#1E1E2F" stroke-width="2" />
            <path d="M447.051 40.8396C441.604 37.0643 435.246 34.8011 428.631 34.2824C427.624 34.1898 426.617 34.1281 425.532 34.1281C383.704 34.1281 385.563 62.9487 325.687 74.2424C265.811 85.5362 228.336 54.1853 228.336 54.1853L239.288 103.958L504.355 103.958L504.355 71.6813C504.355 66.6207 511.249 69.6447 511.249 65.5099C490.97 75.8779 464.371 50.9144 447.051 40.8396L447.051 40.8396Z" id="Фигура" fill="url(#gradient_10)" fill-rule="evenodd" stroke="#1E1E2F" stroke-width="2" />
            <path d="M357.941 20.5819C357.941 9.91359 366.625 1.26526 377.337 1.26526C388.049 1.26526 396.733 9.91359 396.733 20.5819C396.733 31.2501 388.049 39.8985 377.337 39.8985C366.625 39.8985 357.941 31.2501 357.941 20.5819Z" id="Круг" fill="#FDCC52" fill-rule="evenodd" stroke="#1E1E2F" stroke-width="2" />
            <path d="M256.67 69.3362C258.943 65.9742 259.748 61.8371 258.901 57.8728C257.507 51.1305 250.783 48.2608 250.783 48.2608C247.538 46.8357 244.661 44.6936 242.371 41.9968C239.273 37.939 239.273 35.2545 239.273 35.2545C239.273 35.2545 239.273 37.939 236.174 41.9967C233.887 44.6968 231.009 46.8395 227.762 48.2608C227.762 48.2608 221.054 51.1305 219.644 57.8728C218.807 61.8392 219.617 65.9744 221.891 69.3362" id="Фигура" fill="#FFFFFF" fill-rule="evenodd" stroke="#1E1E2F" stroke-width="2.22" />
            <path d="M279.025 77.035C280.647 74.5962 281.206 71.6065 280.574 68.7498C279.771 65.699 277.648 63.1611 274.78 61.8224C272.435 60.7996 270.357 59.2528 268.708 57.3018C268.193 56.6433 267.736 55.9412 267.344 55.2035C267.175 54.8491 266.819 54.6208 266.424 54.6142C266.03 54.6077 265.666 54.824 265.485 55.1727C265.105 55.9136 264.653 56.6163 264.137 57.271C262.488 59.222 260.41 60.7688 258.065 61.7915C255.176 63.1193 253.03 65.6579 252.209 68.719C251.6 71.5861 252.187 74.5766 253.835 77.0041" id="Фигура" fill="#FFFFFF" fill-rule="evenodd" stroke="#1E1E2F" stroke-width="2.22" />
            <path d="M204.122 91.677L204.122 80.8615L234.331 60.7581L234.393 60.7581L289.42 80.8615L289.42 91.677L204.122 91.677L204.122 91.677Z" id="Многоугольник" fill="#FFFFFF" fill-rule="evenodd" stroke="#1E1E2F" stroke-width="2.22" />
            <path d="M239.227 18.931L239.227 35.2545" id="Линия" fill="none" fill-rule="evenodd" stroke="#1E1E2F" stroke-width="2.22" />
            <path d="M232.999 24.5931L245.439 24.5931" id="Линия" fill="none" fill-rule="evenodd" stroke="#1E1E2F" stroke-width="2.22" />
            <path d="M234.331 60.7581L234.331 87.9432" id="Линия" fill="none" fill-rule="evenodd" stroke="#1E1E2F" stroke-width="2.22" />
            <path d="M340.931 14.2716C343.347 11.5037 347.511 11.0911 350.427 13.3305L348.708 13.3305C349.438 12.8141 350.249 12.423 351.109 12.1734C353.579 11.5141 356.208 12.3311 357.864 14.2716C355.534 12.5322 352.237 12.9563 350.427 15.2282L349.56 16.2002L348.692 15.2128C346.789 12.8682 343.36 12.4516 340.946 14.2716L340.931 14.2716Z" id="Фигура" fill="#1E1E2F" fill-rule="evenodd" stroke="none" />
            <path d="M346.942 24.4695C348.113 23.0907 350.175 22.8923 351.59 24.0221L350.691 24.0221C352.066 22.9931 354.005 23.195 355.137 24.4849C354.005 23.645 352.409 23.8497 351.528 24.9478L351.14 25.4261L350.691 24.9324C349.759 23.8042 348.099 23.607 346.927 24.4849L346.942 24.4695Z" id="Фигура" fill="#1E1E2F" fill-rule="evenodd" stroke="none" />
            <path d="M364.866 17.5731C366.041 16.2048 368.09 16.0007 369.514 17.1102L368.677 17.1102C370.047 16.0831 371.981 16.2852 373.108 17.5731C371.976 16.7331 370.379 16.9378 369.498 18.0359L369.111 18.5142L368.661 18.0205C367.733 16.8847 366.068 16.6868 364.897 17.5731L364.866 17.5731Z" id="Фигура" fill="#1E1E2F" fill-rule="evenodd" stroke="none" />
            <path d="M109.017 64.6763C108.465 62.7992 108.619 60.786 109.45 59.014C110.341 57.2436 112.246 56.2148 114.222 56.4375C112.77 54.4896 111.64 52.3228 110.876 50.0192C110.135 47.6566 110.598 45.0827 112.115 43.1226C113.733 41.1716 116.624 40.8761 118.606 42.4592C118.155 40.9752 117.536 39.5467 116.763 38.2009C116.037 36.84 115.609 35.3413 115.508 33.8037C115.424 32.2358 116.185 30.7421 117.506 29.8848C118.174 29.4995 118.971 29.4034 119.712 29.6192C120.452 29.8349 121.072 30.3436 121.426 31.0266C120.671 27.9075 121.067 24.622 122.541 21.7694C123.424 20.0723 125.035 18.406 126.941 18.6837C128.846 18.9614 130.225 21.214 130.643 23.3123C131.489 27.6624 130.654 32.1701 128.304 35.9329C128.524 34.5083 129.786 33.4774 131.232 33.5414C132.641 33.657 133.897 34.4681 134.578 35.7014C135.244 36.9276 135.58 38.304 135.554 39.6974C135.65 43.6304 134.35 47.4709 131.883 50.5437C132.808 49.4636 134.429 49.3132 135.539 50.2043C136.585 51.1053 137.291 52.3357 137.537 53.6912C138.823 58.6283 137.615 64.6455 133.277 67.3918C134.813 66.6674 136.65 67.1807 137.584 68.5952C138.426 70.0055 138.508 71.7414 137.801 73.2238C137.103 74.6889 136.035 75.9487 134.702 76.8803C132.165 78.8886 128.966 79.8793 125.733 79.6575C123.674 79.458 121.745 78.5655 120.264 77.1272C119.04 75.9238 118.591 74.4118 117.165 73.5015C113.308 71.2026 110.132 69.3358 109.017 64.6763L109.017 64.6763Z" id="Фигура" fill="url(#gradient_11)" fill-rule="evenodd" stroke="#1E1E2F" stroke-width="2" stroke-linecap="round" stroke-linejoin="round" />
            <path d="M129.342 41.287C126.058 44.4962 124.307 80.6454 124.307 94.67" id="Фигура" fill="none" fill-rule="evenodd" stroke="#1E1E2F" stroke-width="2" stroke-linecap="round" stroke-linejoin="round" />
            <path d="M100.233 49.1863C97.6766 52.0869 96.7161 90.4269 98.5286 94.6698" id="Фигура" fill="url(#gradient_12)" fill-rule="evenodd" stroke="#1E1E2F" stroke-width="2" stroke-linecap="round" stroke-linejoin="round" />
            <path d="M93.8811 57.0394C95.6782 57.1629 98.1104 58.8754 97.94 66.5434" id="Фигура" fill="none" fill-rule="evenodd" stroke="#1E1E2F" stroke-width="1.6" stroke-linecap="round" stroke-linejoin="round" />
            <path d="M122.433 38.3709C125.511 43.2173 126.91 48.9348 126.414 54.6481" id="Фигура" fill="none" fill-rule="evenodd" stroke="#1E1E2F" stroke-width="1.58" stroke-linecap="round" stroke-linejoin="round" />
          </g>
        </g>
      </g>
    </g>
  </g>
</svg>