<?xml version="1.0" encoding="utf-8"?>
<!-- Generator: Adobe Illustrator 26.0.3, SVG Export Plug-In . SVG Version: 6.00 Build 0)  -->
<svg version="1.1" id="Layer_1" xmlns="http://www.w3.org/2000/svg" xmlns:xlink="http://www.w3.org/1999/xlink" x="0px" y="0px"
	 viewBox="0 0 464 445.2" style="enable-background:new 0 0 464 445.2;" xml:space="preserve">
<style type="text/css">
	.st0{fill:#222222;}
</style>
<path class="st0" d="M300.3,342.5c3.2-1.6,6.4-3.4,9.2-5.6c0.3-0.3,0.9-0.3,0.7-1c-0.1-0.1-0.2-0.1-0.3-0.2
	c-0.4,0.2-0.8,0.3-1.2,0.5c-6.7,3.6-13.6,6.6-20.6,9.4c-3.2,1.3-6.5,2.5-9.8,3.8c-0.6,0.3-1.3,0.3-1.8,1.1c0.5,0,0.8,0.1,1,0
	C285.5,348.7,293,346.1,300.3,342.5z M299.1,330.4c-1-0.5-1.7-0.1-2.3,0.2c-4,1.5-7.8,3.5-11.7,5.4c-3.2,1.6-6.4,3.3-9.9,4.3
	c-0.9,0.3-1.7,0.7-2.5,1c-0.3,0.1-0.5,0.4,0,1c8.7-3,17-7.2,25.4-11.1C298.4,330.9,298.8,330.7,299.1,330.4z M291,350.8
	c-0.3-0.1-0.5-0.2-0.8-0.2c-4,1-7.9,2.2-11.8,3.5c-0.3,0.1-0.5,0.3-0.9,0.5c1.9,0.3,7.6-1,11.2-2.3
	C289.6,352.1,290.5,351.8,291,350.8z M292.4,341c3.5-1.7,6.9-3.4,10-5.6c0.2-0.2,0.7-0.3,0.4-0.9c-0.9,0.2-1.7,0.6-2.4,1
	c-3.9,1.7-7.8,3.4-11.7,5.1c-3.7,1.6-7.3,3.1-11,4.7c-0.8,0.3-1.6,0.5-2.1,1.3c0.7,0.4,1.2,0.1,1.8-0.1
	C282.6,345,287.6,343.2,292.4,341z M319.5,345.1c0.3-0.2,0.8-0.4,1.1-0.7c0.3-0.3,0.5-0.5,0-1c-2,0.6-3.8,1.7-5.8,2.5
	c-2.1,1-4.1,1.9-6.2,2.8c-2,0.9-4,1.7-6,2.5c-2.1,0.9-4.2,1.7-6.3,2.4c-2.1,0.7-4.2,1.3-6.2,2.1c-2.1,0.8-4.4,1-6.4,2.1
	c0.2,0.2,0.2,0.3,0.3,0.3c0.4,0,0.9,0,1.3-0.1c5.7-1.1,11.3-2.9,16.8-4.9C308.2,350.9,313.9,348.1,319.5,345.1z M124.2,256.3
	c0.6-0.1,1-0.6,1-1.2c0-0.5-0.4-0.8-1-0.8c-0.6,0.1-1,0.4-1,1C123.3,255.8,123.7,256.3,124.2,256.3z M324.2,347.5
	c-1-0.1-1.7,0.3-2.4,0.7c-8.3,3.7-16.5,7.6-25.1,10.5c-2.1,0.7-4.1,1.4-6.2,2.1c-0.3,0.2-0.5,0.3-0.3,0.7c0.7,0.3,1.3-0.1,1.9-0.3
	c5.7-1.7,11.3-3.5,16.8-5.7c4-1.6,8-3.3,11.7-5.5C321.9,349.4,323.1,348.6,324.2,347.5z M289.8,328.3c0.4-0.2,1-0.3,1-1
	c-0.1-0.1-0.3-0.3-0.3-0.2c-6.4,2.1-12.4,5-18.7,7.6c-1.1,0.4-2.3,0.8-3.2,1.6c0.2,0.2,0.3,0.3,0.3,0.3c0.3-0.1,0.7-0.1,1-0.2
	c5.3-1.4,10.4-3.4,15.4-5.7C286.8,329.9,288.3,329.1,289.8,328.3z M120.9,297.2c0.1,0.9,0.3,1.7,1.7,1.9c-0.2-1.2-0.3-2.3-1-3.2
	C120.7,296.2,120.8,296.7,120.9,297.2z M117.9,295.6c-0.1,0.3-0.1,0.7,0,1c0.1,0.3,0.4,0.4,0.7,0.7c0.6-0.9,0.3-1.4-0.2-1.8
	C118.3,295.4,117.9,295.5,117.9,295.6z M126.4,301.4c0.1-1.7-0.1-3.1-1.4-4.8C124.5,299.3,124.8,300.6,126.4,301.4z M442.6,314.6
	c0.2-1.7-0.1-2.9-0.7-4.1c-0.1-0.3-0.4-0.4-1-0.8c-0.2,1.7,0.3,3,0.9,4.4C441.9,314.2,442.2,314.3,442.6,314.6z M435.5,311.7
	c0.2-0.4,0.3-0.6,0.2-0.9c-0.2-1.6-0.4-3.1-0.8-4.6c-0.2-0.8-0.6-1.6-1-2.3c-0.2-0.2-0.5-0.3-0.8-0.3c-0.1,0-0.3,0.3-0.3,0.5
	c0.2,2.4,0.7,4.8,1.9,6.9C434.9,311.3,435.1,311.3,435.5,311.7z M128.3,296c-0.4,2.1-0.1,4.5,0.9,6c0.1,0.2,0.4,0.2,0.9,0.4
	c-0.2-2.1-0.5-3.8-1-5.5C128.9,296.7,128.8,296.5,128.3,296z M131.4,276.6c0.3,0.1,0.7,0.2,1,0.2c1,0,1.7-0.3,1.5-0.9
	c-0.3-0.8-1-0.5-1.7-0.6c-0.3,0-0.7,0.1-0.9,0.3c-0.2,0.1-0.3,0.3-0.3,0.5C131.1,276.3,131.3,276.5,131.4,276.6z M160.3,232.9
	c0.2,0.1,0.4,0.2,0.6,0.1c0.2-0.1,0.3-0.3,0.3-0.5c-0.1-0.6-0.3-1-1.2-1C159.7,232.1,159.9,232.6,160.3,232.9z M160.3,202.5
	c0.2-0.3,0.3-0.5,0.3-0.7c-0.2-0.6-0.3-1.2-0.6-1.8c-0.1-0.3-0.3-0.5-0.8-0.2C159.2,200.7,159.4,201.7,160.3,202.5z M158.6,205.9
	c0.7-0.4,0.4-1,0.3-1.4c-0.4-2.3-0.6-2.7-1.6-3.7c-0.3,1.2-0.3,1.7,0.1,3.1C157.7,204.6,157.8,205.4,158.6,205.9z M164.3,188.6
	c0.8-1.4,1.7-2.9,1.8-4.5c0-0.1-0.1-0.2-0.3-0.4c-1.4,1-2.3,2.6-3,4.1c-0.6,1.3-1.2,2.7-0.9,4.7
	C163.3,191.1,163.7,189.9,164.3,188.6z M163.3,226.2c-0.1,0-0.2,0-0.3,0c-0.1,0.1-0.3,0.2-0.3,0.2c-0.2,0.9,0.4,2.2,1.3,2.7
	c0.3,0.3,0.9-0.1,0.9-0.4C164.9,227.5,164.3,226.5,163.3,226.2z M157.8,237.1c0.2-0.1,0.3-0.3,0.3-0.5c-0.1-0.6-0.3-1.1-1.1-1.1
	c-0.3,0.5-0.2,1,0.2,1.4C157.3,237.1,157.6,237.3,157.8,237.1z M162.9,217.9c0.2,0.7,0.3,1.7,1.5,2c0.2-1-0.3-1.7-0.8-2.3
	C163.3,217.4,163,217.5,162.9,217.9z M132.1,246c0.6,0.1,1-0.4,1.1-1.1c0.1-0.8-0.3-1.3-1-1.4c-0.7-0.1-1.3,0.5-1.3,1.2
	C130.9,245.3,131.4,245.9,132.1,246z M135.6,240.2c0.5,0.6,1,1.3,1.7,2c0.3,0.3,0.6,0.5,1,0c-0.6-1.4-1.1-2.9-0.9-4.4
	c0.1-0.4-0.3-0.8-0.9-0.8c-1-0.1-1.6,0.5-1.4,1.5C135.4,239.1,135.5,239.6,135.6,240.2z M134.4,242.3c0.5,0.1,1-0.3,1.1-0.8
	c0.1-0.4,0-0.9,0-1.3c-0.5-0.3-1.1-0.4-1.7,0.1c-0.4,0.3-0.5,0.9-0.3,1.4C133.7,241.9,134.1,242.2,134.4,242.3z M155.4,208.5
	c0.2,0.2,0.4,0.2,0.6,0.3c0.4-1.4,0.4-2.4-0.1-4.4c-0.2-0.4-0.2-1-1-1.1c-0.5,0.7-0.3,1.5-0.3,2.3
	C154.6,206.6,154.7,207.6,155.4,208.5z M126.7,253.3c0.7,0.1,1.2-0.4,1.2-1.2c0-0.6-0.4-1-1-1c-0.7-0.1-1.2,0.5-1.2,1.2
	C125.7,252.8,126.1,253.2,126.7,253.3z M151.3,244.9c0.1,0,0.3,0,0.4,0c0.3,0,0.4-0.2,0.4-0.2c0-1-0.3-1.5-1-1.8
	c-0.3-0.1-0.7,0.1-0.7,0.3C150.3,244,150.7,244.6,151.3,244.9z M154.6,241.4c0.2,0,0.2-0.2,0.3-0.3c0-0.6-0.2-1.1-0.9-1.4
	c-0.2,0-0.4,0.1-0.5,0.3c-0.3,0.5,0,1,0.5,1.5C154.2,241.5,154.4,241.5,154.6,241.4z M167.2,189.8c1.3,0.2,1.4-1.3,2.3-1.8
	c1.1,0.3,2.3,0.9,3.6,0.3c0.3-0.1,0.6-0.1,0.9-0.1c1.5-0.3,1.6-0.4,1-1.9c-0.1-0.2,0-0.3,0-0.4c1.7-1.7,1.8-1.7,3.6-1
	c-0.5,0.8-1,1.4-1.2,2.1c-0.1,0.2,0,0.6,0.2,0.8c0.2,0.2,0.6,0.2,0.8,0.1c0.4-0.4,1-0.9,1.3-1.5c0.7-1.5,1.9-2,3.4-2.3
	c2.6-0.4,5.2-0.4,7.8-0.3c3,0.1,6,0.2,9,0.2c1,0,2.1-0.2,3.1-0.3c0.2,0,0.6-0.1,0.4-0.6c-0.3-0.1-0.5-0.2-0.8-0.2
	c-7.5-0.7-15-0.8-22.4-0.2c-1,0.1-2,0.3-3-0.3c-0.3-0.1-0.8-0.1-1,0.1c-1.1,0.5-2.3,0.9-3.5,0.4c-0.3-0.1-0.5-0.1-0.7,0
	c-1.1,0.4-2.2,0.9-3.3,1.3c-0.3,0.2-0.4,0.4-0.6,0.7c0.2,0.2,0.3,0.3,0.4,0.5c0.2,0.2,0.3,0.3,0.4,0.5
	C167.7,187,166.5,188,167.2,189.8z M173,185.1c0.1,1-0.6,1.5-1,2.3c-0.5-0.5-0.9-0.8-1.3-1.1C171.2,185.3,172,185.2,173,185.1z
	 M188.9,308.9c-0.3,1.8-0.1,2.3,1.4,3.2C190.2,310.7,189.9,309.8,188.9,308.9z M196.7,285.1c0.8,0,1.5-0.4,1.5-1
	c0-0.7-0.5-1.4-1.1-1.4c-0.7-0.1-1.4,0.5-1.5,1.3C195.6,284.6,196,285.1,196.7,285.1z M189.5,281.2c-0.1-0.6-0.7-1-1.3-1
	c-0.6,0.1-1,0.6-1,1.3c0.1,0.6,0.5,1,1,1C189,282.5,189.6,281.9,189.5,281.2z M192.4,283.8c0.9,0,1.4-0.4,1.4-1.1
	c0-0.8-0.5-1.4-1.1-1.4c-0.8,0.1-1.3,0.7-1.3,1.6C191.3,283.4,191.8,283.8,192.4,283.8z M180.9,305.1c-0.1,0.4,0.3,1,0.7,1
	c0.3-0.1,0.5-0.3,1-0.6c-0.3-0.3-0.5-0.7-0.8-0.9C181.4,304.4,181,304.7,180.9,305.1z M183.5,280.8c0,0.4,0.4,0.8,0.9,0.8
	c0.6,0,1.1-0.6,1-1.4c-0.3-0.2-0.5-0.4-0.9-0.5C183.9,279.6,183.4,280.2,183.5,280.8z M181.9,301.5c-0.4-0.1-0.9,0.3-0.8,0.7
	c0.1,0.3,0.3,0.5,0.7,0.9c0.3-0.3,0.6-0.5,0.7-0.9C182.6,301.9,182.3,301.6,181.9,301.5z M201.3,316.4c-0.3,1.7,0.3,3,1.1,4.2
	c0.2,0.3,0.5,0.3,0.8,0.4c0.6,0.2,1-0.2,1-0.8c-0.2-1-0.4-1.9-0.8-2.8C203.1,316.6,202.4,316.1,201.3,316.4z M199.7,310.7
	c0.1,1.6,0.2,1.8,0.8,2.7c0.1,0.2,0.4,0.3,0.7,0.4C201.1,312,200.7,311.3,199.7,310.7z M181.2,308.4c0.1,0.2,0.3,0.4,0.4,0.6
	c0.2-0.2,0.4-0.3,0.4-0.4c0-0.2-0.2-0.4-0.3-0.8C181.5,308,181.2,308.2,181.2,308.4z M200.8,286.1c0.7,0,1.1-0.4,1-1
	c0-0.5-0.4-1-1-1c-0.5,0-1,0.5-1,1.2C199.9,285.8,200.4,286.1,200.8,286.1z M192.3,314.8c-0.2-0.4-0.6-0.9-1-1.2
	c-0.2-0.2-0.4-0.2-0.9-0.3c-0.1,0.1-0.3,0.3-0.2,0.6c0.2,1.8,0.5,3.5,1.8,4.9c0.2,0.1,0.4,0.3,0.6,0.3c0.3,0,0.6-0.1,0.8-0.3
	c0.1-0.1,0.2-0.4,0.1-0.6C193.1,317,192.8,315.9,192.3,314.8z M193.8,308.8c0.2,1.2,0.3,1.9,0.6,2.6c0,0.3,0.2,0.5,0.3,0.8
	c0.3,0.4,0.6,0.6,1,0.1C195.2,310.1,195.1,309.9,193.8,308.8z M196.6,315c-0.3-0.3-1,0.1-1,0.5c0.1,1.3,0.4,2.5,1.1,3.6
	c0.4,0.8,1,0.9,2.3,0.4c-0.5-1.2-0.8-2.3-1.2-3.3C197.6,315.8,197.1,315.3,196.6,315z M155.1,273.7c-0.2-0.1-0.5,0-0.6,0.1
	c-0.2,0.2-0.3,0.4-0.2,0.6c0.5,1.3,1.6,2,3,2.3C156.9,275.3,156.2,274.4,155.1,273.7z M143.8,272.7c-0.2-0.1-0.4,0.1-0.6,0.1
	c0,0.3-0.1,0.4,0,0.5c0.5,0.5,1,1.1,1.6,1.6c1.3,1,2.6,2,4.3,2.6c0-0.3,0.2-0.5,0-0.6C147.6,275.1,146,273.6,143.8,272.7z
	 M152.2,306c0,0,0.1-0.1,0.2-0.1c0.4-0.3,0.3-0.7-0.8-1.9C151.5,305.7,151.5,306,152.2,306z M139.5,272.7c-0.2-0.1-0.6,0-0.6,0.1
	c-0.1,0.3-0.2,0.6,0,0.8c1.6,1.7,3.6,2.6,5.7,3.1C143.3,274.7,141.5,273.5,139.5,272.7z M149.4,272.7c-0.2-0.1-0.6,0-0.6,0.1
	c-0.1,0.3-0.2,0.6,0,0.8c1,1.3,2.3,2.3,3.9,2.8c0.2,0.1,0.3-0.1,0.4-0.1c0-0.1,0.1-0.2,0.1-0.3C152.2,274.6,150.9,273.6,149.4,272.7
	z M133,277.6c-0.1,0-0.3,0.2-0.6,0.3c1.7,1.4,3,3,4.9,3.9c0.1,0,0.3-0.1,0.3-0.2C136.8,279.8,134.7,278,133,277.6z M134.5,280.9
	c-3-2.6-6.4-3.9-10.3-4.1c-0.8-0.1-1.7,0.1-2.4,0.3c-0.3,0-0.3,0.3-0.7,0.7c0.6,0.2,1,0.3,1.5,0.3c1.8,0.4,3.7,0.8,5.7,1.3
	c1.9,0.5,3.7,1.4,5.1,2.7c0.9,0.8,1.4,1.7,1.5,2.9c0,1,0.2,2.1,0.3,3.1c0.3,4.4,0.4,8.8,0.3,13.2c0,0.5,0.1,1,0.1,1.6
	c0.1,0.1,0.3,0.1,0.6,0.2c0.2-0.3,0.3-0.4,0.4-0.7c0.5-1.4,0.8-2.7,0.8-4.2c0-2.2,0.2-4.4,0.2-6.5c0-1.7,0-3.4-0.1-5.1
	C137.3,284.2,136.2,282.4,134.5,280.9z M164,288.8c-1.1,2.5-1.9,5-2.3,7.7c-0.2,1.7,0,3.3,0,5c0,0.3,0.1,0.7,0.6,0.7
	c0.1,0,0.2-0.1,0.1-0.1c0.7-4.6,1.4-9.1,2.5-13.7c0.1-0.2-0.1-0.3-0.1-0.4C164.3,287.9,164.2,288.5,164,288.8z M177.7,295.7
	c-0.5,0-1,0.5-1.1,1.1c0,0.4,0.3,1,1,1c0.7,0.1,1.2-0.3,1.3-0.8C178.9,296.4,178.3,295.7,177.7,295.7z M178.3,292.6
	c-0.3,0-0.8,0.3-0.7,0.7c0.1,0.3,0.3,0.4,0.5,0.8c0.3-0.3,0.5-0.4,0.7-0.6C179,293.1,178.6,292.6,178.3,292.6z M133,287.7
	c-0.2,0.3-0.4,0.7-0.5,1.1c-0.8,2.8-1.2,5.7-1,8.6c0.1,1.1,0.4,2.3,0.7,3.5c0.2,0.3,0.5,0.7,1,1.2c0.1-0.6,0.2-1,0.2-1.1
	c-0.3-1.9-0.3-3.9-0.1-5.8c0.2-2.3,0.3-4.4,0.4-6.7C133.7,288.1,133.7,287.7,133,287.7z M172.3,288.5c0.8-1.1,1.3-1.9,1.2-3
	C172.1,286.3,172,286.5,172.3,288.5z M181.2,311.7c0,0.1,0.2,0.2,0.3,0.3c0.2-0.2,0.3-0.3,0.3-0.4c-0.1,0-0.3-0.1-0.3-0.2
	C181.4,311.4,181.2,311.6,181.2,311.7z M161.2,275.4c-0.4-0.8-1.3-1.1-1.6-0.7c-0.3,0.6,0.2,1,0.4,1.4c0.3,0.4,0.6,1,1.6,1
	c0-0.3,0-0.6-0.1-0.9C161.5,275.9,161.4,275.7,161.2,275.4z M125.7,324.7c-0.2,0-0.4-0.1-0.6,0c-0.1,0-0.2,0.3-0.2,0.3
	c0.3,1.5,1,2.8,2.2,3.7c0.2,0.1,0.4,0.1,0.9,0.1c-0.7-1.4-1.2-2.7-1.9-3.9C126,324.8,125.8,324.7,125.7,324.7z M412.3,323.3
	c0-0.8-0.2-1.7-0.2-2.4c-0.2-4.5-0.7-9-1.5-13.4c-0.3-1.3-0.5-2.5-0.9-3.7c-0.1-0.3-0.2-0.7-0.7-0.6c-0.5,3.9,1.4,18.4,3.2,21.8
	C412.4,324.5,412.4,323.9,412.3,323.3z M407.8,386.7c-0.3-0.1-0.7-0.1-0.9,0.1c-0.3,0.2-0.4,0.5-0.3,0.8c0.3,1.1,0.6,2.3,1,3.4
	c0.3,0.8,0.9,1.3,1.7,1.5c0.4,0.1,1-0.3,1-0.7c0-0.2,0-0.3,0.1-0.4c-0.6-1.4-1.2-2.8-1.8-4.1C408.3,387,408.1,386.8,407.8,386.7z
	 M406.5,289.8c-0.9-1.8-1.7-3.7-2.6-5.5c-0.7-1.3-1.6-2.5-2.4-3.7c-0.2-0.3-0.4-0.4-0.8-0.2c0.3,1.7,2.4,6.4,4.3,9.2
	c0.4,0.6,0.7,1.3,1.5,1.6C406.9,290.7,406.6,290.2,406.5,289.8z M417.9,391.2c-0.5-1.2-1.1-2.4-1.7-3.7c-0.3-0.7-0.9-1-1.6-1
	c-0.6,0-1,0.3-0.9,0.8c0.5,1.3,1,2.6,1.6,3.9c0.3,0.6,0.8,1,1.6,1.1C417.7,392.5,418.3,392,417.9,391.2z M419.9,395.7
	c-0.1-0.3-0.3-0.5-0.4-0.8c-0.3-0.6-1-0.7-1.6-0.8c-0.3-0.1-0.5,0.1-0.9,0.2c0.8,3.3,2.3,6.1,3.8,9c1.9,3.6,3.1,5.3,4.6,6.6
	c0-0.5,0.1-0.8-0.1-0.9C423.6,404.5,421.7,400.1,419.9,395.7z M412.8,381c-0.3-0.3-0.6-0.4-1,0c0.2,0.7,0.3,1.5,0.4,2.2
	c0.2,1,0.5,1.2,2.2,0.7C414,382.7,413.5,381.7,412.8,381z M404.4,380.3c-0.2,2.3,0.2,3,2,3.7c0-1.4-0.3-2.4-1-3.3
	C405.3,380.3,404.9,379.9,404.4,380.3z M401.4,387c-0.1-0.3-0.6-0.3-1-0.4c-0.4-0.1-0.9,0.3-0.8,1.2c0.3,1,0.7,2.3,1,3.6
	c0.2,0.5,0.6,0.9,1,1.2c0.2,0.2,0.4,0.3,0.6,0.3c0.7,0.3,1.3-0.1,1.2-0.8C403.2,390.4,402.3,388.7,401.4,387z M392.4,381.1
	c-0.2-0.1-0.5-0.3-0.6-0.2c-0.3,0.2-0.3,0.4-0.6,0.7c0.4,1.1,0.8,2.3,1.2,3.4c0.2,0.3,0.5,0.4,1,0.3c0.4-0.2,0.7-0.4,0.6-0.9
	C393.7,383.3,393.3,382.1,392.4,381.1z M400,365.2c2.7-2.5,4.8-6.6,4.8-9.7C402.3,358.9,400.4,362.9,400,365.2z M399.2,356.6
	c-1.1,2-2.3,4-3.4,6.1c-0.7,1.3-1.4,2.5-2.3,3.6c-0.6,0.6-1.1,1.3-1.5,2c-1,1.9-2.3,3.6-3.7,5c-0.3,0.3-0.7,0.8-1,1.2
	c-0.1,0.3-0.3,0.5,0.3,0.8c0.3-0.3,0.7-0.6,1-1c1.3-1.4,2.6-2.8,3.9-4.3c0.4-0.4,0.9-1,1.2-1.6c1.1-1.7,2.3-3.4,3.3-5.1
	c1.4-2.3,2.4-4.6,2.8-7.3C399.6,356.2,399.4,356.5,399.2,356.6z M380.1,374.9c0.8-0.2,1.3-0.7,1.7-1.4
	C381.1,373.6,380.6,374.2,380.1,374.9z M427.2,397.2c-0.3-0.7-0.6-1.4-1-2c-0.3-0.5-1-0.9-1.6-0.8c-0.3,0-0.6,0.3-0.6,0.5
	c-0.1,0.3,0,0.7,0.2,1c0.6,1.5,1.2,3,1.8,4.4c2,4.3,4.2,8.4,6.7,12.4c0.3,0.6,0.6,1.3,1.8,1.8c-0.3-0.9-0.4-1.2-0.5-1.5
	C431.7,407.8,429.5,402.5,427.2,397.2z M400,384c-0.3-1.1-0.6-2.3-1.4-3.2c-0.2-0.3-0.5-0.3-0.8-0.4c-0.2,0.2-0.3,0.3-0.4,0.6
	c-0.1,1.1,0.1,2.3,0.9,3.1c0.2,0.3,0.7,0.3,1.1,0.4C399.5,384.5,400,384.1,400,384z M388.3,320c0.1-1.6-0.3-3.1-0.7-4.6
	c-2.1-9.4-5.5-18.4-9.1-27.2c-0.4-1.1-1.1-2.1-1.7-3.1c-0.3-0.3-0.7-0.6-1.1-1c-0.5,0.6-0.2,1.1,0,1.6c1,2.4,2,4.9,3,7.3
	c3.2,7.9,6.3,16,8.4,24.4c0.2,0.9,0.5,1.8,0.8,2.7C387.9,320,388.1,320,388.3,320z M343.9,108.1c-0.8,1.6-0.8,1.6,0.5,2.3
	c0,0.3,0,0.6,0,0.9c0.1,1.1,0.7,1.6,1.7,1c0.6-0.3,1.3-0.8,1.8-1.3c1-1,1.9-2.1,3.1-2.9c0.4-0.3,0.7-0.8,1-1.2
	c0.4-0.8,0.3-1.2-0.6-1.6c-0.4-0.2-1-0.1-1.1-0.6c-0.2-1-1.1-0.8-1.7-1c0-0.3-0.1-0.3-0.1-0.5c-0.3-1-0.9-1.4-1.6-0.9
	c-0.5,0.3-1,0.8-1.2,1.3c-0.3,0.4-0.1,0.9,0.3,1.1c0.3,0.2,0.7,0.3,1,0.3c0.1,1.6,0.1,1.6,1.3,2.3c-0.1,0.3-0.1,0.6-0.2,1
	c-0.5,0-1,0-1.4,0c-0.4-0.4-0.9-1-1.3-1.5c-0.6,0.3-1,0.6-1.5,0.9C343.9,108,343.9,108.1,343.9,108.1z M127.5,320
	c-0.1-0.1-0.3,0-0.5,0c-0.2,2.3,0.9,4.4,2,6.2c1,1.6,2,3.1,3.8,3.9c0.1-0.3,0.2-0.4,0.2-0.5c-1.1-2.8-2.5-5.6-4.2-8.1
	C128.5,321,128,320.5,127.5,320z M344.8,98.5c0.1-0.2,0-0.6-0.2-0.8c-0.1-0.1-0.4-0.2-0.6-0.1c-0.7,0.3-1.3,0.9-1.5,2
	C343.8,99.7,344.5,99.4,344.8,98.5z M344,101.2c-0.3,0.4,0.2,1,0.6,1c0.7,0,1.2-0.3,1.6-0.9c0.3-0.5,0.2-1.2-0.2-1.4
	c-0.4-0.3-0.9-0.1-1.2,0.2C344.5,100.4,344.2,100.9,344,101.2z M376.1,73.6c-1.5,0.5-4.2,2.9-5.8,4.7c-0.5,0.5-1.1,1-1.1,1.9
	c0.9,0.1,1.4-0.4,1.8-0.9C372.9,77.7,375,76.1,376.1,73.6z M204.2,285.5c-0.3-0.1-0.7,0.3-0.6,0.7c0,0.3,0.3,0.6,0.4,0.6
	c0.3-0.1,0.5-0.3,0.9-0.6C204.5,285.8,204.4,285.6,204.2,285.5z M376.9,87.3c2.5-1.8,5.3-5.7,5.8-7.9c0-0.2-0.2-0.3-0.3-0.5
	c-1.2,1.1-4.5,5.7-5.3,7.2C377,86.3,377.1,86.6,376.9,87.3z M129.7,335c0.3,0.3,0.4,0.5,0.7,0.8c1,0.2,1.9,0.5,2.9,0.5
	c5.3,0.2,9.5-2.3,12.9-6.2c0.1-0.2,0-0.4,0-0.8c-0.6,0.3-1,0.5-1.5,0.8c-1.1,0.5-2.3,1.1-3.4,1.7c-2.9,1.2-5.8,1.8-8.9,2.4
	C131.5,334.4,130.6,334.4,129.7,335z M453.9,221.3c0.1-51.3-18.3-99-49.2-136.3c-0.9,3.9-2.5,7.6-4.8,10.7
	c27.3,34.6,43.5,78.2,43.4,125.5l0.1,76.5c-2.8-2-5.5-4.1-8.1-6.4c-4.4-4.1-9.4-7.6-14.6-10.8c-5-3-10-6.1-15.1-9
	c-9.8-5.7-18.8-12.6-27.5-19.9c-4.6-3.9-9.2-7.8-13.9-11.7c-7.3-6.1-14.7-12.2-22-18.3c-10.6-8.8-21.1-17.5-32.5-25.2
	c-0.5-0.3-1-0.7-1.4-1.1c-1.8-2.2-4.2-3.6-6.8-4.7c-1.7-0.8-3.5-1.7-5.2-2.6c-1.1-0.6-2.1-1.5-2.8-2.6c-0.7-1.1-1.6-2-2.6-2.8
	c-1.5-1.1-2.9-2.2-4.4-3.2c-1.1-0.9-2.3-1.7-3.4-2.6c-0.3-0.3-0.5-0.7-0.8-1c0.3-1,1-1.4,1.5-1.8c2.7-2.3,5.4-4.7,8.2-7
	c6.7-5.7,13.6-11.2,20.2-17c4.4-3.7,8.9-7.4,13.4-11c4-3.1,8-6.2,11.7-9.5c6.9-5.9,13.6-12.1,20.3-18.2c5.7-5.1,11.3-10.2,17.3-14.8
	c2.8-2.3,5.5-4.7,7.9-7.3c2.5-2.7,4.6-5.6,5.8-9c1.1-3.5,1-6.8-0.8-10c-0.8-1.6-1.7-3-3.2-4c-3.6-2.3-7.3-3-11.4-1.6
	c-2,0.7-3.9,1.7-5.6,2.9c-3.7,2.8-7.6,5.5-11.1,8.4c-8.6,7-17.1,14.1-25.5,21.1c-3.7,3.1-7.6,6-10.9,9.5c-4.1,4.2-8.4,8-12.8,11.7
	c-4.2,3.5-8.2,7-12.3,10.6c-5.7,4.9-11.2,9.9-17,14.8c-7.3,6.2-14.6,12.3-21.7,18.7c-3.8,3.5-7.7,6.9-11.7,10.3
	c-1.4,1.1-2.7,1.6-4.4,1.5c-1.6-0.1-3-0.2-4.5-0.1c-7.7,0.4-15.3,0.3-23,0.1c-7-0.2-14-0.3-21-0.4c-3.9-0.1-7.7,0.1-11.7,0.5
	c-5,0.5-9.8,1.5-14.4,3.4c-4.4,1.8-8.2,4.4-11.2,8.1c-3.9,4.7-6.8,10-9.3,15.6c-2.4,5.5-4.8,11.1-7.1,16.5
	c-2.5,5.8-5.6,11.4-10,16.2c-1.4,1.4-2.5,3-3.7,4.5c-1.7,2.3-3.4,4.5-5.2,6.8c-3.3,4.2-6.7,8.3-9.7,12.7c-2.3,3.4-4.4,7-5.8,10.9
	c-1.7,4.5-2.6,9.2-2.5,14.1c0.1,3,1,5.6,3.7,7.2c0.1,0.1,0.3,0.2,0.3,0.3c0.6,0.3,0.8,1,0.8,1.6c0,1-0.4,1.9-1,2.7
	c-1.4,1.7-2.8,3.5-4.1,5.3c-5.4,7.6-10.3,15.6-15.2,23.4c-0.3,0.4-0.4,0.9-0.6,1.4c-0.3,0.8,0.3,1.4,1,1.3c0.6-0.1,1.3-0.3,1.9-0.5
	c3-1,5.9-2,8.9-3.1c4.2-1.7,8.4-3.3,12.5-5c3-1.3,5.9-3,8.3-5.4c0.7-0.6,1.5-1.1,2.2-1.7c0.7-0.4,1.4-0.6,2.2-0.5
	c0.6,0.1,1,0.3,1.1,1c-0.3,0.4-0.5,0.9-0.8,1.3c-2.8,4.3-3.4,9-2.3,13.8c0.3,1.1,0.8,2.3,1.4,3.3c0.7,1.3,1.8,2.3,3.3,2.9
	c0.3,0.1,0.5,0,1,0c-0.2-0.3-0.3-0.6-0.4-0.7c-3-2.3-3.8-5.6-3.7-9c0.2-3.2,1.2-6.4,2.9-9.1c0.4-0.7,0.9-1.4,1.7-1.7
	c1.7,0.5,3.2,1,4.8,1.6c0.4,0.2,0.8,0.4,1,0.8c0.3,0.5,0.5,1.1,0.8,1.7c1.6,3.2,3.5,6.4,5.7,9.1c0.4,0.5,0.8,1.1,1.5,1.2
	c0.5-0.3,0.4-0.7,0.3-1c-0.7-1.7-1.5-3.3-2.3-4.9c-0.8-1.5-1.7-2.9-2.5-4.3c-0.2-0.3-0.4-0.6,0-1c1.3,0.5,2.3,1.4,3,2.5
	c0.8,1.3,1.6,2.6,2.5,3.7c0.6,0.7,1.4,1.3,2.2,1.9c0.3,0.2,0.7,0.3,1.1-0.3c-0.3-1.5-1.7-2.7-1.9-4.5c1.6,0.3,2.5,1.5,3.7,2.2
	c0.8,0,1.7-0.7,2.3,0.4c-0.1,0.7-0.7,1.2-1.1,1.8c-0.9,1.1-1.7,2.2-2.5,3.2c-0.2,0.3-0.4,0.5,0.1,0.9c0.3-0.1,0.8-0.3,1.1-0.5
	c1.3-0.7,2.8-1.5,4.1-2.3c2-1.2,3.9-1.1,5.9,0c1.7,1,3.6,1.9,5.3,3c3.4,2.1,7.1,3.3,11.1,3.8c4.1,0.5,8.3,0.9,12.4,1
	c5.7,0.2,11.3,1,16.8,2.7c2.8,0.9,5.6,1.8,8.4,2.6c6.1,1.7,11.9,4,17.7,6.7c7.4,3.5,15,6.7,22.8,9c0.8,0.3,1.5,0.6,2,1.3
	c2.3,3,5,5.3,8.2,7.3c3.1,2,6.4,4,9.6,5.9c6.9,4.2,14,8,21.5,11.2c5.2,2.3,10.3,4.6,15.4,7c7.4,3.5,15,6.6,22.9,8.7
	c6.5,1.7,13.1,2.7,19.8,2c3.5-0.4,7-0.3,10.5,0.4c4.4,0.9,8.8,1.6,13.1,2.6c4.1,1,8.1,2.1,12.1,3.4c6.7,2.2,13,5.2,19.1,8.6
	c9,4.9,17.5,10.4,26.1,16H21l0.3-115c5-1.1,10-1.7,15.2-1.8c1-0.1,2,0,2.9,0.5c0.9,0.5,1.2,1.2,0.7,2.1c-0.5,0.8-1.1,1.5-1.7,2.1
	c-2.4,2.3-5,4.5-7.5,6.8c-2.5,2.3-4.9,4.9-7,7.7c-0.7,1-1.3,2-1.7,3.1c-0.8,2,0.1,3.2,2.2,3.5c0.3,0.1,0.4,0.1,0.7,0.1
	c3.8,0.3,7.5-0.2,11.1-1.2c3.6-1,7-2.6,10.4-4.1c3.3-1.4,6.6-2.9,9.9-4.2c2.3-1,4.8-1.3,7.3-1c1.1,0.2,2.2,0.5,3.2,1
	c1,0.5,1.6,1.4,1.3,2.6c-0.1,0.6-0.3,1.2-0.5,1.9c-0.2,0.6-0.3,1.1-0.3,1.7c0,1,0.4,1.7,1.4,1.7c0.9,0.1,1.8,0.1,2.7-0.1
	c0.8-0.2,1.6-0.4,2.3-0.9c2.5-1.4,5-3,7.6-4.4c0.3-0.1,0.3-0.3,0.6-0.7c-1-0.2-1.7,0.3-2.5,0.5c-1.5,0.5-3,1.1-4.4,1.7
	c-0.9,0.3-1.7,0.6-3,0.4c0.1-0.9,0.2-1.5,0.1-2.1c0.3-1.7-0.1-3.1-1.1-4.4c-1-1.4-2.5-2-4.3-2.3c-3.5-0.5-6.9,0-10.2,1
	c-2.9,1-5.7,2.1-8.4,3.2c-4,1.7-7.9,3.6-11.9,5.3c-2.8,1.1-5.6,2.1-8.6,2.4c-0.7,0.1-1.3,0.1-2,0.1c-0.4,0-0.7-0.5-0.5-1
	c0.2-0.3,0.4-0.8,0.7-1.1c0.6-0.8,1.3-1.7,2.1-2.3c3.4-3.2,6.8-6.4,10.2-9.6c1.6-1.5,3-3,4.4-4.5c0.9-1,1.6-2.1,1.9-3.3
	c0.6-2-0.1-3.7-1.9-4.5c-0.4-0.3-1-0.3-1.5-0.4c-1.9-0.3-3.7-0.6-5.7-0.6c-2.1-0.1-4.2,0-6.3,0.3c-2.6,0.3-5.2,0.9-7.7,1.6l0.2-87.3
	c0-42.8,13.3-82.6,35.9-115.3c36.8-53.3,98.1-88.2,167.8-88.2H240c9.3,0,18.5,0.6,27.7,1.9c33.4,4.5,64.2,17.1,90.3,35.8
	c3.1-2.4,6.7-4.3,10.6-5.3c-28.3-21.4-62.2-35.9-99.4-40.9c-9.3-1.3-18.8-2-29.2-2h-14.8c-70.4,0-136.4,34.7-176.5,92.8
	C24.1,136.1,11,178,11,221.6l-0.6,216.2h443.9L453.9,221.3z M346.4,115.3c-0.1,0.1-0.1,0-0.2,0C346.3,115.3,346.4,115.2,346.4,115.3
	C346.5,115.3,346.4,115.4,346.4,115.3z M347.8,114.3c0-0.2,0-0.3,0-0.3c0,0,0.1-0.1,0.2-0.1c0.1,0.1,0.1,0.2,0.2,0.3
	C348,114.3,347.9,114.3,347.8,114.3z M346.6,90.7c3.5-3.1,7-6.4,10.6-9.4c3.7-3.1,7.3-6.3,11.1-9.3c1.2-1,2.6-2,4-2.9
	c2.6-1.6,5.5-2,8.4-1c2.8,0.9,4.3,2.7,4.4,5.6c0.1,1.9-0.2,3.9-0.8,5.7c-1.3,3.8-3.4,7.2-6.4,9.9c-3.7,3.2-7.5,6.3-11.2,9.4
	c-1.8,1.6-3.7,3.1-5.5,4.7c-0.7,0.6-1.5,1.2-2.3,1.7c-0.5,0.3-1.1,0.4-1.7,0.4c-0.7,0-1.3-0.4-1.7-1.2c0.4-0.9,1.1-1.4,1.9-1.9
	c3-2.5,5.9-5,8.9-7.6c3.1-2.7,6.2-5.5,8.9-8.6c2.4-2.8,4.4-5.8,5.9-9.2c0.3-0.8,0.7-1.5,0.7-2.3c-0.7-0.1-0.8,0.4-1,0.8
	c-1.9,3-4,5.8-6.3,8.5c-3.3,3.9-7,7.3-11,10.6c-1.9,1.7-3.9,3.3-5.9,4.9c-0.7,0.6-1.4,1.1-2.2,1.6c-0.8,0.5-1.7,0.6-2.6,0.3
	c-0.3-0.1-0.4-0.3-0.8-0.6c0.4-0.4,0.8-0.8,1.1-1.1c3-2.4,5.9-4.9,8.9-7.3c3.8-3.2,7.7-6.4,11.1-10.2c1.6-1.7,3-3.5,4.5-5.3
	c0.5-0.6,1-1.3,1.4-2c-0.5-0.4-0.8,0-1,0.2c-1.7,1.7-3.2,3.3-4.9,5c-6.4,6.4-13.1,12.3-20.4,17.6c-0.4,0.3-0.9,0.6-1.3,0.9
	c-0.2,0.2-0.4,0.2-0.8,0.3c-2.4-1.6-3.7-4.2-5.2-6.7C345.9,91.5,346.2,91,346.6,90.7z M333.9,100.8c1-1,2.2-1.9,3.3-2.7
	c2.5-1.7,4.8-3.7,6-6.4c0.6-0.1,0.7,0.3,0.9,0.6c1.8,2.7,3.6,5.5,5.5,8.2c1.9,2.7,4.3,5,7,6.9c0.2,0.2,0.4,0.4,0.6,0.6
	c0.1,0.1,0,0.2,0,0.3c-0.6,0-1.2-0.1-1.7,0c-0.5,0.1-1,0.3-1.5,0.5c-0.1-0.5-0.2-1-0.3-1.5c-0.5,0.1-1,0.1-1.3,0.3
	c-1,0.6-1.8,1.3-2.6,2.1c-1.4,1.3-2.6,2.8-3.9,4.1c-0.6,0.6-1.4,1.1-2.2,1.6c-0.3,0.2-0.8,0-1.3,0c0.1-0.9,0.7-1,1.1-1.4
	c0.6-0.5,0.5-1.2-0.2-1.6c-0.3-0.1-0.7-0.3-1-0.2c-0.5,0.1-1,0.3-1.5,0.4c-0.3,0.2-0.5,0.4-0.9,0.5c-0.3,0.3-0.8,0.2-1-0.2
	c-0.2-0.3-0.3-0.7-0.2-1c0-0.3,0.3-0.5,0.4-0.8c0.3-0.3,0.5-0.5,0.8-0.8c0.3-0.3,0.3-0.7,0-1c-0.2-0.3-0.6-0.3-1-0.3
	c-0.3,0-0.5,0.2-0.8,0.3c-0.5,0.3-1,0.4-1.5,0.8c-1.1-1-1.7-2.3-2.4-3.5c-0.8-1.1-1.5-2.3-2.2-3.6
	C332.5,102.2,333.2,101.5,333.9,100.8z M246.2,178.6c7.7-6.5,15.2-13.3,22.7-20.1c5.7-5.2,11.6-10.1,17.3-15.1
	c3.3-2.9,6.4-5.8,9.7-8.7c8-7,16.1-14,24.1-21c2.8-2.4,5.5-4.9,8.3-7.3c0.8-0.6,1.6-1.2,1.7-2.5c0.7,0.9,1.1,1.7,1.6,2.4
	c2.1,3.4,4.4,6.6,7.6,9.1c0.9,0.8,1.9,1.5,2.9,2.2c0.3,0.3,0.8,0.5,1.2,0.9c-0.3,0.4-0.6,0.8-1,1c-5.9,5-11.8,9.9-17.8,14.8
	c-8.4,6.8-16.8,13.7-24.6,21.1c-5.8,5.5-12,10.6-18.3,15.7c-7.9,6.5-15.9,13.1-23.8,19.6c-3.3,2.8-6.4,5.7-9.7,8.6
	c-4.4,3.7-8.7,7.4-13.1,11c-6.4,5.3-12.6,10.8-18.9,16.4c-6.6,5.8-13.2,11.6-20.1,17.1c-4.5,3.6-8.7,7.5-13.1,11.1
	c-2.2,1.8-4.4,3.7-6.6,5.4c-1,0.8-2.2,1.5-3.3,1.9c-1.7,0.7-3,1.8-4.1,3.1c-0.8,0.9-1.6,1.7-2.4,2.3c-0.5,0.3-1.3,0.5-1.9,0.6
	c-0.4,0-1-0.2-1.7-0.3c0.3-0.5,0.5-1,0.8-1.2c4.4-4,9-8,13.5-11.9c2.9-2.4,5.8-4.7,8.8-7c3.5-2.7,6.9-5.5,10-8.7
	c1.2-1.2,2.6-2.4,4-3.6c4.9-3.7,9.5-7.8,14.1-11.9c2.5-2.3,5.2-4.3,7.8-6.4c4.5-3.7,9-7.4,13.4-11.1c2.9-2.3,5.8-4.4,8.6-6.9
	c7.7-6.8,15.7-13.1,23.7-19.4c5.1-4.1,10.1-8.3,14.8-12.8c2.9-2.8,5.9-5.1,9-7.5c8.9-6.7,17.2-13.9,25.4-21.5
	c5.8-5.4,11.7-10.9,17.4-16.4c0.5-0.6,1.2-1,1.7-2.1c-1,0.4-1.7,1-2.3,1.5c-3.5,2.8-6.9,5.6-10.3,8.4c-8.4,7-16.8,14.1-25.1,20.9
	c-3.5,3-7.1,5.7-10.6,8.7c-2.9,2.4-5.7,4.9-8.5,7.3c-4.1,3.4-8.3,6.7-12.4,10.1c-2.1,1.7-4.2,3.7-6.3,5.5c-2.6,2.2-5.2,4.4-7.7,6.5
	c-2.5,2.2-5.1,4.4-7.7,6.6c-2.8,2.5-5.7,5-8.8,7.3c-6.3,4.6-12.1,9.7-18,14.6c-8.4,7-16.6,14.1-24.9,21.1c-4,3.5-7.8,7-11.8,10.4
	c-5.7,5-11.6,10-17.8,14.4c-0.8,0.5-1.7,1.1-2.4,1.7c-0.4-0.4,0.1-0.7,0.3-0.9c1.9-1.7,3.8-3.4,5.7-5c7-5.8,13.9-11.6,20.9-17.4
	c2.3-2,4.6-4.1,6.9-6.2c4.2-4.1,8.5-7.9,13.3-11.4c2-1.4,3.8-3.1,5.6-4.9c2.8-2.8,5.7-5.3,8.8-7.7c2.9-2.2,5.5-4.6,8.3-7
	c2.1-1.7,4.2-3.6,6.4-5.2c5-3.6,9.4-7.7,14.1-11.6c2.2-1.8,4.4-3.7,6.6-5.4c2.7-2,5.2-4.3,7.7-6.6c2.7-2.7,5.6-5.2,8.7-7.5
	c3-2.2,5.9-4.6,8.6-7.2c2.1-2,4.3-3.9,6.8-5.5c2.5-1.6,4.8-3.5,6.9-5.5c5.2-5,10.4-9.8,16.1-14.4c2.4-1.9,4.7-4.2,7-6.3
	c3.6-3.2,7.2-6.5,10.9-9.7c0.6-0.6,1.4-1.1,1.5-2.3c-0.4,0.3-1,0.5-1.3,0.9c-2.1,1.5-4.1,3-6.2,4.5c-2.3,1.7-4.3,3.6-6.4,5.4
	c-5.6,4.9-11.2,9.7-16.8,14.6c-1.4,1.2-2.9,2.4-4.2,3.7c-2.8,2.7-5.7,5.3-9,7.5c-2.5,1.7-4.8,3.7-6.9,5.8c-2.5,2.6-5.3,4.9-8.4,6.9
	c-3.3,2.2-6.3,4.8-9,7.7c-2.4,2.6-5.1,4.9-7.9,7c-4.1,3.2-8,6.7-12.1,10c-3,2.4-6,4.7-9,7.1c-2.5,2.1-5,4.2-7.4,6.3
	c-1.5,1.2-3,2.5-4.4,3.8c-4.9,4.3-9.7,8.4-14.6,12.7c-0.8,0.7-1.7,1.5-2.5,2.2c-4.7,3.5-9,7.5-13.1,11.6c-3.1,3-6.5,5.7-9.9,8.4
	c-7.1,5.5-14.1,11.2-20.8,17.2c-1.2,1-2.3,2.2-3.5,3.2c-1.1,1-2.4,1.8-3.9,2.2c-0.3,0.1-0.7,0-1.3,0c0.3-0.4,0.4-0.9,0.7-1
	c8.2-6.2,15.5-13.4,23.2-20.2c0.8-0.7,1.7-1.4,2.5-2.2c0.4-0.3,0.8-0.8,1.1-1.1c-0.5-0.4-0.8-0.1-1,0.1c-1.6,1.1-3.1,2.2-4.6,3.3
	c-6.8,5.4-13.5,10.7-20.3,16.1c-1,0.8-1.9,1.7-2.9,2.5c-1.3,1.1-2.8,2.1-4.5,2.3c-0.3,0.1-0.7,0-1.1,0c-0.1-0.9,0.4-1.3,0.9-1.7
	c2.9-2.6,5.7-5.3,8.6-7.9c4.3-3.7,8.5-7.4,12.8-11.1c5.8-5,11.7-10.1,17.6-15.1c8.3-7,16.5-14.1,24.8-21.2
	C223.1,198.6,234.6,188.4,246.2,178.6z M234,280.5c-0.1,0-0.3,0.1-0.3,0c-0.6-0.4-0.9-1.3-1.7-1.7c-0.3,1.2,0.8,1.8,1,2.8
	c-0.5,0.3-0.7-0.4-1-0.3c-0.3,0.1-0.7,0.2-1.1,0.3c-0.8-0.4-1.3-1.1-1.6-2.1c-0.5-0.3-1-0.6-1.7-1c-0.4,1,0.5,1.6,0.5,2.3
	c-0.5,0.3-1.4,0.4-0.9,1.6c-1.9-1.6-3.3-3.4-4.3-5.5c-0.2,0-0.4,0.1-0.8,0.1c-0.1,1.3,1,2.3,1.2,3.5c0.2,0.3,0.4,0.4,0.7,0.7
	c-0.7,0-0.6-0.4-0.7-0.7c-0.6-0.3-1.2-0.7-1.8-1.1c-0.5,1.1,0.7,1.7,0.5,2.6c-0.4,0.2-0.7-0.2-0.9-0.4c-0.6-1-1.2-1.9-1.7-2.9
	c-1.3-2.3-3.2-4.3-4.9-6.3c-0.6,0.3-0.4,0.5-0.3,0.8c1,1.8,1.8,3.6,2.8,5.4c0.3,0.6,0.6,1.2,1,1.9c-0.6-0.5-1.1-1-1.7-1.5
	c-0.6,0.8,0.3,1.3,0.2,1.9c-0.2,0-0.3,0.1-0.4,0c-1.2-1.4-2.4-2.7-3.6-4.1c-0.8-0.9-1.5-1.9-2.2-2.7c-0.5,0.2-0.5,0.5-0.4,0.8
	c0.3,0.9,0.8,1.7,1.1,2.4c-0.3,0.2-0.5,0.3-0.8,0.6c0.3,0.6,0.4,1.2,0.8,2.2c-0.6-0.4-1-0.6-1.2-0.8c-1.2-1-2.1-2.3-3-3.6
	c-1-1.4-1.9-2.7-3-4c-0.3-0.3-0.8-0.6-1.2-1c-0.1,0.3-0.2,0.3-0.2,0.5c0,0,0.1,0.1,0.1,0.2c1,1.9,2.1,3.8,3.1,5.7
	c-0.8,0.1-1,0.6-1,1.2c-0.2,0-0.3,0.1-0.4,0.1c-0.3-0.1-0.7-0.3-1-0.3c-1-0.2-1.5-0.8-1.8-1.7c-0.3-1-1-1.9-1-3
	c0.4-0.1,0.8-0.3,1.2-0.4c0-0.3-0.1-0.7-0.2-1c-0.3-1-0.9-1.9-1.2-2.9c-0.4-1.3-0.5-2.6-0.2-3.8c0.6-0.2,0.9,0.2,1,0.4
	c0.9,1,1.7,2.2,2.5,3.2c1,1.2,2.1,2.4,3.1,3.6c0.3,0.3,0.5,0.6,1.1,0.3c-0.6-2.1-2-3.7-3.2-5.5c-1.2-1.8-2.4-3.6-3.7-5.3
	c0.8-1.1,1.4-1.4,2.2-0.8c0.6,0.4,1.2,1,1.7,1.7c0.7,1,1.2,2.1,1.8,3.1c1.4,2.5,3,4.9,4.9,7c0.5,0.6,1,1.3,1.7,1.6
	c0.5-0.4,0.3-0.8,0.2-1.1c-2.1-4.2-4.2-8.4-7.2-11.9c-0.3-0.3-0.7-0.8-1-1.2c-0.3-0.3,0-0.9,0.4-1c1-0.3,1.9,0,2.4,0.7
	c0.4,0.6,0.8,1.2,1.1,1.9c2.4,4.4,5.2,8.7,8.5,12.6c0.4,0.5,0.8,1.1,1.7,1.3c0.1-0.3,0.2-0.6,0.1-0.8c-0.5-0.9-1-1.8-1.6-2.7
	c-0.6-0.9-1.1-1.8-1.7-2.7c-0.1-0.3-0.1-0.5-0.3-1c0.6,0.3,1,0.3,1.4,0.5c3.7,1.7,7.4,3.4,11.1,5.1c1.4,0.6,2.9,1.3,4.3,2
	c0.9,0.5,1.7,1.1,2.6,1.7c0.5,0.4,1,1,1,1.7c-0.5,0.4-0.8-0.2-1.1-0.3c-0.3-0.2-0.6-0.3-1-0.5C233.8,279.7,233.8,279.8,234,280.5z
	 M218.7,281.4c-0.6-0.1-0.6-0.4-0.7-0.7C218.3,280.9,218.4,281.1,218.7,281.4z M185.6,271.9c0.2,0.1,0.3,0.2,0.4,0.1
	c0.3-0.2,0.7-0.3,1-0.5c1.5-1.3,3-2.6,4.4-3.9c1.4-1.2,2.6-2.6,4-3.9c1-1,2.1-1.7,3.2-2.3c0.4,0.3,0.2,0.6,0,0.8c-0.8,1-1.5,2-2.3,3
	c-0.5,0.6-0.7,1.3-0.7,2.1c-0.1,2,0.3,3.9,0.7,5.8c0.2,1,0.6,2.1,0.5,3.4c-0.4,0-0.8,0-1.1-0.1c-3.3-1-6.8-1.2-10.2-1.7
	c-1.2-0.2-2.3-0.3-3.6-0.5c-0.7-0.2-1.3-0.4-1.7-1c-0.8-1.3-1.7-2.6-2.5-4.1c1-0.1,1.2,1.3,2.3,0.9c-0.3-1.8-2.1-3-2.2-5
	c0.8-0.3,1,0.3,1.3,0.7c0.5,0.7,0.9,1.5,1.4,2.3c0.7,1.1,1.3,1.5,1.7,1c0.5-0.7,0-1.2-0.3-1.8c-0.5-0.9-1-1.7-1.6-2.6
	c0.8-0.4,1,0.8,1.7,0.3c0.3-0.9-1-1.7-0.5-2.8c0.3,0.2,0.5,0.2,0.7,0.3c0.5,0.7,1,1.4,1.7,2.1c0.3,0.4,0.8,1,1.4,1
	c0.8-0.5,0.2-1.1,0.3-1.7c0.3,0,0.4,0.1,0.6,0.1c0.2,0,0.6,0.1,0.6,0c0.1-0.3,0.2-0.6,0.1-0.8c-0.3-0.5-0.7-1-1-1.5
	c-0.3-0.5-0.5-1-0.8-1.6c-0.1-0.2,0.1-0.3,0.2-0.6c0.8,0.1,1,0.7,1.4,1.1c0.3,0.5,0.7,1,1.1,1.4c0.3,0.2,0.7,0.2,1,0.1
	c0.2-0.1,0.3-0.5,0.3-0.8c0-0.3-0.1-0.4-0.1-0.8c0.3-0.1,0.7-0.3,1-0.3c0-0.2,0.2-0.4,0.1-0.6c-0.3-0.8-0.8-1.7-1.1-2.4
	c-0.2-0.3-0.3-0.7,0.1-1c0.7,0,1,0.6,1.4,1c0.3,0.4,0.8,1,1.2,1.3c0.2,0.2,0.6,0.2,0.8,0.1c0.2-0.1,0.3-0.6,0.2-0.8
	c-0.3-0.6-0.6-1.1-1-1.7c-0.3-0.3-0.3-0.7-0.6-1.2c1.3-0.1,1.3,1.4,2.4,1.4c0.3-1.2-1.1-1.9-0.9-3.1c0.3-0.3,0.6-0.2,0.9,0.1
	c0.5,0.6,1,1.3,1.6,1.9c0.4,0.4,0.9,1,1.7,0.9c0.2-0.7,0.4-1.5,0.5-2.3c0.1-0.3-0.1-0.7-0.3-1c-0.3-0.8-0.7-1.5-1-2.2
	c0.4-0.4,0.7-0.1,0.9,0.1c0.5,0.7,1,1.4,1.7,2.1c0.6,0.6,1.1,1.3,2.1,1.5c0.6-0.6,0.1-1,0-1.7c0.4,0.2,0.9,0.3,1.4,0.5
	c0-0.3,0-0.7-0.1-0.9c-0.4-0.7-1-1.4-1.4-2.1c-0.4-0.8-1-1.5-1-2.4c0.3-0.3,0.6-0.1,0.8,0.2c0.8,1.1,1.7,2.3,2.5,3.4
	c0.4,0.5,0.8,1.3,1.8,1.3c0-0.5,0.1-1,0-1.3c-0.2-0.7-0.5-1.4-0.8-2.1c-0.5-0.3-0.8-0.8-0.9-1.4c-0.2-0.2-0.3-0.3-0.4-0.4
	c-0.1,0,0-0.2,0-0.3c0.1,0,0.2,0,0.2,0.1c0.1,0.3,0.2,0.4,0.3,0.6c0.3,0.4,0.6,1,1.2,1.9c0.9-0.2,1-0.3,0.9-0.9
	c-0.2-0.4-0.4-1-0.6-1.4c-0.2-0.6-0.4-1.2-0.6-1.8c0.8,0.3,1.1,1.1,1.5,1.7c0.9,1.1,1.7,2.3,2.7,3.3c0.3,0.3,0.7,0.4,1.1,0.6
	c0.4-0.8-0.2-1.3-0.3-1.9c0.4-0.5,0.9-1.1,0.4-1.9c-0.3-0.6-0.7-1.3-1-2c-0.3-0.8-0.6-1.6-1-2.3c0.4-0.4,0.5,0,0.7,0.2
	c0.7,0.9,1.3,1.8,2,2.7c0.8,1,1.6,2,2.6,2.6c0.6-0.2,0.5-0.6,0.4-0.9c0.6,0.3,1,1.2,1.8,1.2c0.4-0.5,0.1-1-0.1-1.3
	c-0.7-1.3-1.4-2.6-2-4c-0.6-1.3-1.1-2.7-1.7-4.1c-0.1-0.3-0.1-0.5-0.2-1.1c0.4,0.3,0.7,0.4,0.9,0.6c0.6,0.9,1.1,1.7,1.7,2.6
	c1.2,1.8,2.4,3.7,3.7,5.6c0.5,0.7,1,1.3,2,1.7c0-0.4,0.1-0.8,0-1c-0.4-1-0.8-1.9-1.3-2.9c0.4,0.3,0.8,0.6,1.3,0.9
	c0.3,0.2,0.6,0.3,1,0.5c0-1.1,0-1.1-1.1-3.4c-0.5-1-1.1-1.9-1.5-3.3c1.2,1.6,5.8,9.5,6.6,11.3c-0.2,0.5-0.7,0.4-1.1,0.5
	c-4.3,0.6-8.4,1.4-12.5,2.6c-5.7,1.7-11.1,3.9-16.1,7.3c-3.5,2.4-6.4,5.3-8.7,9c-0.3,0.4-0.5,0.9-0.7,1.4
	C185.4,271.7,185.5,271.8,185.6,271.9z M203.8,244.9L203.8,244.9c0.1,0.1,0.1,0.1,0.1,0.1C203.9,245,203.9,245,203.8,244.9z
	 M207.5,246.2L207.5,246.2c0.1,0.1,0.1,0.1,0.1,0.2C207.5,246.3,207.5,246.2,207.5,246.2z M207.7,246.6c0,0,0-0.1,0-0.2
	C207.7,246.6,207.8,246.7,207.7,246.6C207.8,246.7,207.7,246.7,207.7,246.6z M213.2,247L213.2,247c0.1,0.1,0.1,0.1,0.1,0.1
	C213.3,247.1,213.3,247.1,213.2,247z M224.8,243.1c0.2-0.5,0.3-0.7,0.3-1c-0.1-0.3-0.2-0.7-0.3-1c1.5,0.7,2.1,2.1,2.9,3.3
	c0.5,1.1,1.1,2.1,1.7,3.1c1.6,2.5,3,5,4.1,7.7c0.5,1.1,1.1,2.3,1.7,3.4c0.3,0.8,0.8,1.5,1.2,2.3c-0.4,0.4-0.7,0.2-0.9,0
	c-0.5-0.4-1-1-1.5-1.4c-1-1-2.2-2.1-3.1-3.2c-0.6-0.6-1-1.4-1.6-2.2c-0.5-0.7-1-1.4-1.5-2.2c-0.5-1-1.1-1.9-1.7-2.9
	c-0.5-1-1-2-1.6-3c-1.4-2.4-2.9-5-4.3-7.4c-0.2-0.3-0.3-0.6-0.6-1.2C222.5,238.7,223,241.3,224.8,243.1z M219.9,231.5
	c1.3,0.4,2,1.2,2.5,3.5C220.6,234.2,220.3,232.9,219.9,231.5z M223.9,229.3c2.1,2.3,2.9,3.7,3.3,5.3
	C225.9,234.3,225.4,233.5,223.9,229.3z M212.8,257.4c0.4-0.8,1.2-0.9,2.1-0.9c0.5,0,0.9,0.2,1.1,0.6c1.8,3.3,3.7,6.6,5.6,9.9
	c0.1,0.2,0,0.3,0,0.4C219.4,266.1,215.9,261.9,212.8,257.4z M215.9,266c-0.6-0.3-1-0.5-1.2-0.9c-1.7-1.6-3.2-3.1-4.8-4.7
	c-0.3-0.3-0.7-0.9-0.9-1.3c-0.2-0.2-0.1-0.6,0.1-0.8c0.6-0.7,1.9-0.7,2.4-0.1c0.1,0.1,0.2,0.3,0.3,0.3c1.3,2.2,2.6,4.4,3.9,6.5
	C215.8,265.3,215.8,265.6,215.9,266z M217.9,256.8c-0.2-0.3-0.3-0.7-0.4-1c1-0.8,2-0.8,3-0.4c0.3,0,0.7,0.3,0.9,0.6
	c2.1,4,4.2,8,6.3,12.1c0.1,0.2,0.1,0.3,0.1,0.8c-0.4-0.3-0.7-0.3-0.9-0.5C223.3,264.8,220.7,260.7,217.9,256.8z M230.8,267.5
	c-3-3.8-5.4-7.9-7.8-12.1c-0.2-0.3-0.3-0.5-0.4-1c1.1-0.8,2.3-0.7,3.1-1.2c1,0.3,1.3,0.9,1.6,1.5c3.1,6.2,6.8,12,9.7,18.3
	c0.2,0.3,0.2,0.5,0.3,0.8c-0.5,0.3-0.8,0.1-1-0.2C234.4,271.6,232.5,269.6,230.8,267.5z M235.5,253.7c-0.5-1.1-1.3-2.1-2.1-3.1
	c-1.2-1.6-2.4-3.2-3.2-5.1c-0.3-0.6-0.7-1.1-1-1.7c-0.8-1-1.5-2.1-1.7-3.4c0-0.2,0-0.3,0-0.9c0.7,0.8,1.2,1.3,1.8,2
	c0.1-0.3,0.2-0.5,0.3-0.9c0.8,0.4,1.5,0.9,1.9,1.7c0.6,1,1.1,2.1,1.7,3.1c0.6,1.2,1.1,2.4,1.7,3.7c1.1,2.1,2.3,4.2,3.3,6.4
	c0.3,0.5,0.5,1,0.4,1.9C237.2,256.3,236.2,255.1,235.5,253.7z M228.6,227.9c1.4,2.6,2.7,5.3,4.1,7.9c0,0.2-0.1,0.3-0.1,0.6
	c-0.3-0.2-0.5-0.3-0.7-0.4c-0.4-0.5-0.9-1-1.2-1.6c-1.3-2.3-2.3-4.7-2.9-7.2c0-0.1,0-0.1,0-0.2l0,0c0,0.1,0,0.1,0,0.2
	C228.1,227.4,228.6,227.6,228.6,227.9z M238,248.3c-1.1-1.2-2.5-3.5-3.1-5.2c0.3,0,0.6-0.1,0.9,0c0.3,0.1,0.5,0.3,0.8,0.4
	c1.6,1.1,2.6,3.2,2.8,5.7C238.8,249,238.4,248.7,238,248.3z M237.9,237.9c-1.2-1.8-2.5-3.7-3.7-5.6c-0.4-0.6-0.6-1.1-0.4-1.9
	c0.1-0.8,0-1.7-0.1-2.4c0-0.6-0.2-1.1-0.2-1.6c0.3,0.3,0.6,0.5,0.8,0.8c2.1,3.6,4.1,7.1,5.6,11c0.2,0.3,0.2,0.7,0.3,1.2
	C239,239,238.3,238.6,237.9,237.9z M239.2,229.9c-1.3-1.7-2.6-3.5-3.8-5.1c0.2-0.6,0.7-1,0.6-1.6c1.4,2,2.9,4.1,4.2,6.1
	c0.3,0.5,0.8,1.1,0.4,1.8c-0.2,0-0.3,0-0.4-0.1C239.9,230.7,239.5,230.3,239.2,229.9z M234.8,220.2c0.5,0.7,0.9,1.6,1,2.5
	C235.5,221.8,235.1,221,234.8,220.2z M176.3,271.2c-0.3,0.4-0.7,0.4-0.9,0.1c-0.6-1.2-1.4-2.3-1.6-3.7c0-0.1-0.1-0.2-0.1-0.3
	l0.1,0.1c0,0.1,0,0.1,0,0.2C175.2,268.9,175.5,269.2,176.3,271.2z M173.1,270.6c-1-0.3-1.2-0.9-1.5-1.7
	C172.6,269.2,173,269.7,173.1,270.6z M172.9,216.3C172.9,216.3,172.9,216.3,172.9,216.3C172.9,216.3,172.9,216.4,172.9,216.3
	C173,216.4,172.9,216.4,172.9,216.3z M179.7,228.9c0.1-0.1,0.2-0.2,0.3-0.3c0,0,0.2,0.1,0.3,0.2c-0.1,0.1-0.2,0.3-0.3,0.3
	C180,229.1,179.8,229,179.7,228.9z M106,280.8c-0.2-2.5,0.4-5,1.5-7.4c1.9-4.4,4.3-8.4,7-12.3c3.1-4.4,6.4-8.5,9.5-12.9
	c9.2-12.7,17.5-26,24.3-40.2c1.7-3.7,3.3-7.4,5-11.1c1.3-2.9,2.8-5.5,4.6-8c3.2-4.5,7.5-7.2,12.9-8.4c3.7-0.8,7.3-1.1,11-1.4
	c9-0.6,18-0.5,27-0.3c9,0.1,17.8,0.3,26.8,0.3c0.4,0,0.9,0,1.5,0.1c-0.3,0.4-0.4,0.7-0.6,0.9c-4.5,4.4-25.1,21.9-27.1,23.1
	c-0.9-0.5-1.7-1.1-2.9-1.8c-0.1,0.5-0.2,0.8-0.1,1c0.2,0.7,0.4,1.3,0.7,1.9c0.2,0.4,0.1,0.8-0.2,1c-0.3,0.3-0.8,0.5-1.2,0.3
	c-0.5-0.3-1-0.7-1.4-1.1c-0.4-0.4-0.7-1-1.1-1.4c-0.3-0.3-0.7-0.3-1.3-0.6c0,0.6-0.1,1,0,1.3c0.3,0.7,0.6,1.3,1,2
	c0.2,0.4,0.4,0.9,0.6,1.4c0.1,0.3,0,0.6-0.2,0.8c-0.2,0.2-0.5,0.2-0.8,0.1c-1.1-0.4-2-1.2-2.8-2.2c-0.4-0.5-0.9-1-1.2-1.5
	c-0.7,0.2-0.7,0.6-0.6,1c0.2,0.8,0.5,1.5,0.9,2.3c0.3,0.7,0.7,1.3,1,2c0.2,0.5,0.1,1,0.2,1.7c-1.4-0.1-2.3-1-3-1.8
	c-0.6-0.7-1-1.5-1.5-2.3c-0.2-0.3-0.3-0.6-0.5-1c-0.6-0.9-1.3-1.2-1.7-0.9c-0.5,0.5-0.1,1.1,0.1,1.7c0.4,1,0.6,2,1.5,2.7
	c0.1,0.1,0.2,0.1,0.2,0.2c0.2,1.4,0.9,2.5,1.3,3.8c0.1,0.2-0.2,0.5-0.3,0.7c-0.1,0.1-0.4,0.1-0.6,0c-0.4-0.3-0.8-0.7-1.1-1
	c-0.3-0.5-0.7-1-1.1-1.4c-0.3-0.3-0.9-0.5-1.4-0.6c-0.7-0.1-1.2,0.5-1,1.1c0.3,0.9,0.7,1.7,1,2.4c0.3,0.7,0.9,1.2,0.9,2.3
	c-0.4-0.3-0.9-0.3-1-0.5c-0.6-0.6-1.1-1.4-1.7-2c-0.6-0.6-1.2-1.1-1.9-1.6c-0.3-0.3-0.9-0.4-1.2,0c-0.2,0.3-0.3,0.7-0.2,1
	c0.2,0.6,0.4,1.2,0.8,1.8c0.5,1,1,1.8,1.6,2.8c0.2,0.3,0.2,0.5,0.3,1c-0.4-0.2-0.8-0.1-1-0.3c-0.9-1-1.7-1.8-2.6-2.8
	c-0.6-0.6-1-1.3-1.5-2c-0.3-0.3-0.5-0.5-0.8-0.8c-0.4-0.3-0.9-0.3-1.3,0c-0.5,0.3-0.5,0.8-0.3,1.2c0.5,1,1,2,1.5,3
	c0.5,1,1,1.9,1.6,3c0.2,0.3,0.3,0.7,0.3,1c-0.3,0.4-0.7,0.3-0.9,0.1c-0.5-0.6-1.1-1.1-1.7-1.8c-0.9-1.1-1.7-2.3-2.4-3.5
	c-0.3-0.5-0.7-1-1-1.5c-0.3-0.3-0.5-0.6-1-0.4c-0.5,0.2-0.6,0.7-0.4,1.1c0.3,0.9,0.6,1.8,1,2.7c0.4,0.9,1,1.7,1.6,2.7
	c0.3,0.4,0.6,0.9,0.4,1.6c-0.8-0.6-1.5-1.3-2-2.1c-1.6-2.3-3-4.5-4.4-6.8c-0.7-1-1.2-2.3-1.9-3.3c-0.3-0.4-0.8-0.9-1.4-1.7
	c0,0.7-0.1,1,0,1.2c0.3,0.9,0.7,1.8,1,2.7c0.3,0.9,0.6,1.8,0.9,2.7c-0.7-0.4-1-1.1-1.3-1.7c-1.1-2.1-2.3-4.3-3.4-6.4
	c-0.3-0.4-0.5-1-1-1.6c-0.7,1-0.2,1.8,0,2.5c0.2,0.7,0.4,1.4,0.8,2.4c-1.7-0.9-2.1-2.4-3.3-3.3c-0.5,0.7-0.2,1.3,0,1.8
	c1,3,2.5,5.7,4.3,8.4c1,1.4,1.9,2.7,2.9,4.1c0.3,0.4,0.5,0.8,0.7,1.3c-2-1.3-3.2-3.4-4.8-5.1c-0.6,0.5-0.3,1-0.1,1.3
	c1,2.3,2.3,4.5,3.9,6.5c0.3,0.3,0.6,0.8,1.1,1.5c-1.4-0.3-2-1-2.7-1.7c-0.5-0.4-1-1-1.9-0.9c-0.3,1.5,0.2,2.8,0.8,3.6
	c0.5,0.8,1.1,1.5,1.7,2.2c0.3,0.3,0.4,0.7,0.7,1.3c-2.5,0-3.7-2.2-5.5-2.9c-0.6,0.2-0.7,0.6-0.7,1c0,1,0.3,1.7,0.9,2.5
	c0.6,0.8,1.2,1.6,1.8,2.3c0.3,0.4,0.5,0.9,0.8,1.2c-0.3,0.6-0.7,0.6-1,0.4c-0.9-0.4-1.7-0.9-2.5-1.4c-0.6-0.3-1.1-0.9-1.8-1.2
	c-0.3-0.2-0.8-0.2-1,0c-0.3,0.2-0.4,0.7-0.3,1c0.2,0.6,0.4,1.2,0.8,1.8c0.3,0.7,0.8,1.3,1.2,1.9c0.2,0.3,0.3,0.6,0.6,1.2
	c-0.7-0.1-1.1,0-1.5-0.2c-1-0.4-1.8-1-2.8-1.4c-0.3-0.1-0.8-0.2-1,0c-0.3,0.2-0.4,0.7-0.3,1c0.2,0.7,0.4,1.3,0.7,1.9
	c0.3,0.7,0.8,1.3,1.1,1.8c-0.3,0.6-0.7,0.6-1,0.4c-0.8-0.3-1.6-0.7-2.4-1c-0.3-0.2-0.8-0.2-1,0c-0.4,0.3-0.5,0.8-0.3,1.2
	c0.3,0.5,0.6,1,0.9,1.6c0.2,0.4,0.3,0.8,0.5,1.3c-1,0.3-1.7-0.3-2.4-0.6c-0.5-0.3-1-0.6-1.5-0.2c-0.5,0.3-0.6,0.9-0.3,1.7
	c0.2,0.5,0.4,1,0.7,1.4c-0.3,0.4-0.7,0.2-1,0c-1-0.9-2-1.7-3-2.6c-0.4-0.3-0.8-0.6-1.2-1c-0.1-0.1-0.3-0.1-0.5-0.1
	c-0.4,0.9,0.3,1.4,0.6,2c0.3,0.5,0.7,1.1,1.1,1.7c-1.4-0.3-1.5-0.4-2.6-1.3c-0.7-0.5-1.2-1.2-2.3-1.7c0.2,0.7,0.3,1.1,0.4,1.7
	c-1-0.3-1.6-0.9-2.3-1.3c-0.6-0.3-1-1-2-1.1c0.3,1.1,1,1.8,1.6,2.6c0.5,0.8,1.2,1.5,1.8,2.3c0.7,0.8,1.3,1.5,2,2.2
	c0.7,0.6,1.4,1.2,2.3,2.2c-2.2,0.2-2.8-1.9-4.4-2.3c0.3,1.8,1.9,2.9,2.3,4.5c-1,0.5-1.8,0.2-2.5-0.3c-0.7-0.5-1.3-1.2-2-1.8
	c-0.7-0.7-1.2-0.9-1.5-0.5c-0.3,0.5-0.2,1,0.1,1.5c0.5,0.9,1.1,1.7,1.7,2.6c0.4,0.7,1,1.2,1.2,2.2c-1.2,0.4-2.3-0.1-3.2-0.6
	c-0.9-0.5-1.7-1.2-2.4-1.8c-0.7,0.3-0.6,0.7-0.4,1.1c0.3,0.6,0.7,1.1,1.1,1.7c0.3,0.5,0.8,1,1.2,1.6c0.1,0.2,0.1,0.4,0.2,0.6
	c-0.3,0.6-0.8,0.6-1.3,0.6c-0.9-0.1-1.7-0.5-2.4-1c-0.5-0.3-1-0.7-1.5-1c-0.2-0.1-0.4,0-0.6,0.1c-0.1,0.2-0.3,0.4-0.2,0.6
	c0.3,0.6,0.6,1.1,1,1.7c0.3,0.5,0.6,1,1,1.5c-1.7,1-2.6,0.9-5-0.1c-0.9,0.2,0,1.1-0.9,1.7c-0.9,0.5-2.2,0.3-3.6,0.2
	c-0.3,0.3-0.4,0.8-0.7,1c-0.2,0.3-0.6,0.3-1,0.5c-2.1,0.9-4.3,1.7-6.4,2.8c-1.6,0.8-3,1.8-4.4,3c-2.7,2.3-4.7,5-5.8,8.4
	c-0.2,0.4-0.3,0.8-0.5,1.1c-0.6,0.2-0.9-0.2-1-0.5C106.3,282.7,106,281.8,106,280.8z M98.2,318.6c-0.3,0.3-0.4,0.6-0.6,0.8
	c-0.3,0.3-0.8,0.4-1.2,0.2c-0.5-0.3-1.1-0.7-1.7-1c-1.4,0.3-1.9,1.7-3.4,2.2c4.9-8,10.1-15.4,16.2-22.2c1,0.8,1,0.8,1.7,2.5
	c-0.7,0.9-1.4,1.8-2.2,2.7c-0.8,0.9-1.5,1.7-2.2,2.6c-0.8,0.9-1.7,1.7-2.2,2.7c0.3,0.4,0.6,0.3,0.9,0.1c0.6-0.4,1.2-0.8,1.8-1.2
	c-0.6,0.8-1.2,1.6-1.8,2.3c-1.7,2-3.2,4-4.8,6c-0.3,0.3-0.5,0.7-0.7,1.1C97.8,317.8,97.9,318.2,98.2,318.6c1-1,1.9-2.1,2.9-3.1
	c3-2.9,5.8-5.8,8.7-8.8c0.4-0.4,0.9-0.9,1.3-1.2c0.1-0.1,0.3-0.1,0.7-0.2c-0.1,0.3-0.2,0.6-0.3,0.7c-3.9,3.9-7.8,7.8-11.8,11.7
	C99.3,318,98.6,318.2,98.2,318.6z M107.6,305.6c-0.2,0.2-0.3,0.4-0.5,0.6c-0.5,0.5-1,1-1.5,1.4C105.9,306.6,106.8,306.1,107.6,305.6
	z M106.5,313.1c2-2.7,4.4-4.7,6.5-5.6C112.4,308.8,110.6,310.4,106.5,313.1z M112.2,311.8c1-1.6,2.1-2.3,4.3-3.3
	C116,309.7,114.2,311.1,112.2,311.8z M440.3,427.2c-5.6-4-11.4-7.9-17.3-11.5c-2.1-1.2-3.7-2.7-4.5-5c-1.3-3.3-2.8-6.6-4.2-9.9
	c-0.7-1.7-1.4-3.3-2.2-5c-0.4-0.8-1-1.6-1.9-1.7c-0.3-0.1-0.7,0-1.1,0.1c0.2,0.5,0.3,1,0.4,1.4c0.9,2.1,1.7,4.2,2.7,6.2
	c1.3,2.8,2.8,5.7,4.2,8.4c0.2,0.3,0.5,0.7,0,1.2c-2.1-1-4-2.2-6-3.4c-0.4-0.3-0.8-0.8-1-1.2c-1.2-3-3-5.9-3.7-9.1
	c-0.2-0.8-0.7-1.6-1.2-2.3c-0.5-0.7-1.2-1-2.3-0.8c0,0.5-0.1,1,0.1,1.4c0.4,1.2,1,2.5,1.5,3.7c0.8,1.7,1.6,3.4,2.3,5.1
	c0.2,0.3,0.3,0.7-0.2,1.1c-0.4-0.2-1-0.3-1.4-0.5c-1.1-0.8-2-1.7-2.7-3c-0.6-1-1.1-2.2-1.7-3.2c-0.6-1.1-1-2.3-1.8-3.3
	c-0.8-1-1.1-1.8-1.2-3c-0.2-2-1-3.9-2.6-5.3c-0.3-0.3-0.8-0.5-1.2,0c-0.2,1,0.2,1.9,0.5,2.8c0.5,1.5,1.2,3,1.9,4.5
	c0.8,1.7,1.7,3.6,2.4,5.3c0.2,0.3,0.4,0.6,0,1.1c-0.8-0.2-1.5-0.8-2.3-1c-1.9-0.6-3-2-3.4-3.8c0-0.3-0.2-0.6-0.3-0.9
	c-1-2.6-1.8-5.4-2.9-8c-0.7-1.7-1.6-3.3-2.3-4.9c-0.2-0.4-0.4-0.9-1.1-0.8c0,0.3-0.1,0.7,0,1c0.5,2.7,1.4,5.3,2.4,7.9
	c0.7,1.8,1.4,3.7,2.1,5.7c0.2,0.4,0,0.9,0,1.4c-0.5-0.1-0.9-0.2-1.2-0.3c-3.7-1.1-3.2-1.1-4.3-4c-1.2-3.2-2.4-6.4-3.7-9.7
	c-0.2-0.4-0.3-1-1-1.1c-0.3,0.8,0,1.5,0.2,2.2c0.8,3,1.7,5.8,2.4,8.7c0.2,0.6,0.6,1.2,0.3,2c-0.9,0.3-1.7-0.2-2.6-0.3
	c-1.3-0.1-2-0.8-2.3-2c-0.5-1.7-1.1-3.5-1.7-5.1c-0.4-1.2-1-2.4-1.7-3.7c-0.1-0.3-0.3-0.7-1-0.3c0.2,0.8,0.3,1.6,0.5,2.3
	c0.6,2,1.2,4,1.8,6c0.2,0.5,0.5,1,0.2,1.7c-1.2,0.3-2.4-0.2-3.6-0.3c-1.2-0.1-2.3-0.4-3.6-0.6c-1.2-0.2-2.5-0.4-3.7-0.6
	c-1.2-0.3-2.3-0.3-3.6-0.5c-1.1-0.2-2.3,0.1-3.7-0.7c0.6-0.4,1-0.7,1.4-1c0.3-0.3,1-0.3,1-1.2c-0.3,0.1-0.7,0.2-1,0.3
	c-1.1,0.3-2.3,0.9-3.6,1.2c-1.3,0.3-2.7,0.5-4,0.7c-0.9,0.2-1.7,0.1-2.7-0.6c0.9-0.7,1.7-1,2.6-1.5c0.9-0.4,1.7-0.8,2.4-1.2
	c0.8-0.4,1.8-0.7,2.2-1.8c-0.9-0.3-1.4,0.1-2,0.3c-2.1,0.9-4.2,1.9-6.4,2.8c-2.1,0.9-4.4,1.1-6.6,0.7c-0.3-0.1-0.9-0.1-0.8-0.7
	c1.5-0.7,3-1.3,4.4-2.1c1.7-1,3.4-1.9,5-3c0.3-0.2,0.8-0.5,0.4-1.1c-0.8-0.2-1.4,0.3-2.1,0.5c-2,0.9-3.9,1.8-5.9,2.7
	c-1.4,0.5-2.8,1.1-4.2,1.6c-1.6,0.5-3.2,0.6-4.9,0.3c-0.3-0.1-0.8-0.2-0.8-0.8c0.6-0.5,1.5-0.9,2.3-1.3c0.8-0.4,1.7-0.8,2.4-1.2
	c0.9-0.4,1.7-0.9,2.6-1.3c0.8-0.3,1.7-0.6,2.2-1.4c-0.4-0.5-1-0.3-1.3-0.2c-1.2,0.5-2.4,1.1-3.7,1.6c-2.1,0.8-4.1,1.6-6.2,2.2
	c-1.7,0.4-3.5,0.4-5.1-0.2c-0.3-0.1-0.8-0.2-0.7-0.9c1.2-0.5,2.6-1.1,3.9-1.8c1.2-0.7,2.8-1,3.8-2.5c-0.6,0-0.9-0.1-1.1,0
	c-0.7,0.3-1.4,0.5-2.1,0.8c-1.8,0.6-3.5,1.4-5.3,1.9c-1.7,0.5-3.4,0.6-5-0.1c-0.3-0.1-0.5-0.4-0.9-0.7c1.5-1.2,3.3-1.4,4.6-2.5
	c-0.4-0.6-0.9-0.3-1.3-0.3c-1.4,0.4-2.8,1-4.3,1.3c-1,0.2-1.9,0.3-2.9,0.3c-1-0.1-1.8-0.3-2.3-1.6c1-0.3,1.9-0.8,2.8-1.1
	c1-0.4,1.8-0.8,2.7-1.2c0.9-0.4,1.8-0.6,2.6-1.7c-0.6-0.1-1-0.2-1.3-0.1c-1.3,0.3-2.6,0.7-3.9,1.1c-1.6,0.5-3.1,1-4.7,1.5
	c-1.1,0.3-2.3,0.3-3.3-0.3c-0.3-0.2-0.6-0.3-0.6-0.9c0.8-0.6,1.9-0.8,2.8-1.3c1-0.4,2-0.6,2.9-1.7c-1-0.2-1.8,0.2-2.6,0.3
	c-1.7,0.3-3.2,0.8-4.9,1c-1.7,0.3-3.2,0.1-4.6-0.8c-0.3-0.1-0.4-0.4-0.8-0.8c0.6-0.3,1-0.4,1.4-0.7c0.3-0.2,0.5-0.3,0.3-0.6
	c-1.6,0-3,0.2-4.5,0.1c-1.7-0.1-2.9-0.8-4-1.9c0.3-0.2,0.5-0.4,0.9-0.5c0.8-0.3,1.6-0.5,2.3-0.9c0.3-0.1,0.3-0.3,0.7-0.7
	c-1.2-0.3-2.2,0-3.1,0.2c-1.6,0.3-3.2,0.6-4.9,0.2c-0.4-0.1-0.7-0.3-0.6-0.9c1.4-0.9,3.2-0.9,4.6-2c-0.3-0.5-0.7-0.5-1-0.4
	c-1.5,0.3-3,0.6-4.6,0.9c-1.2,0.2-2.4,0.3-3.6-0.1c-0.3-0.2-0.5-0.4-1-0.8c1-0.3,1.8-0.6,2.6-0.9c0.2-0.1,0.3-0.4,0.4-0.7
	c-0.2-0.1-0.3-0.3-0.5-0.3c-0.6,0-1.2,0.2-1.8,0.2c-1.3,0.1-2.7,0.1-4,0c-0.8-0.1-1.7-0.2-2.3-1c0.6-0.2,1.1-0.3,1.6-0.5
	c0.9-0.3,1.8-0.5,2.8-0.8c0.3,0,0.5-0.3,0.3-0.8c-0.3,0-0.6-0.1-1-0.1c-1.3,0.2-2.5,0.3-3.8,0.4c-1.4,0.2-2.9,0.2-4.2-0.5
	c-0.3-0.2-0.7-0.3-0.4-1c0.5-0.2,1.1-0.3,1.7-0.5c0.5-0.2,1.2-0.2,1.6-1c-0.3-0.2-0.4-0.4-0.7-0.4c-1,0-1.9,0.1-2.9,0.2
	c-1.1,0-2.3,0.1-3.4,0.1c-0.5,0-1.1-0.2-1.2-0.9c1.2-0.7,2.8-0.5,4.1-1.7c-0.6-0.1-1-0.2-1.3-0.2c-1.2,0.1-2.3,0.3-3.6,0.3
	c-0.8,0-1.7-0.2-2.4-0.3c-0.3-0.1-0.7-0.3-0.5-1c0.4-0.2,0.9-0.3,1.4-0.4c0.7-0.2,1.5-0.3,2.2-0.6c0.9-0.3,1.2-0.6,1-1
	c-0.2-0.5-0.7-0.4-1.1-0.4c-1,0-2.1,0.1-3.1,0.2c-0.7,0-1.3,0.1-2,0.1c-0.3,0-0.7,0-0.7-0.6c0.6-0.2,1.3-0.3,1.9-0.5
	c1.3-0.4,2.7-0.9,4-1.4c0.2-0.1,0.3-0.3,0.6-0.6c-1-0.4-1.8-0.3-2.6-0.3c-2.6,0.1-5.2,0-7.8-0.4c-1.7-0.3-3.3-1-4.4-2.4
	c-0.7-0.9-1.3-1.8-1.8-2.8c-0.6-1.2-1.1-2.6-1.7-3.9c-0.8-1.9-1.5-3.9-2.7-5.7c-0.2-0.2-0.6-0.3-1.1-0.7c0.1,4,1.8,7.4,2.4,11
	c-0.3-0.2-0.6-0.4-0.8-0.7c-0.7-1.3-1.5-2.6-2.1-4c-1-2.3-1.7-4.5-2.7-6.7c-0.5-1.2-1.3-2.3-2-3.3c-0.2-0.2-0.5-0.3-1.1-0.6
	c0.2,0.9,0.2,1.4,0.3,1.8c0.9,3.1,1.7,6.2,2.6,9.3c0.2,0.4,0.4,0.9-0.2,1.3c-0.3-0.3-0.7-0.7-1-1.1c-1.5-2.6-2.9-5.3-4.3-7.9
	c-0.7-1.4-1.5-2.9-2.3-4.4c-0.2-0.4-0.4-1-1.2-1c-0.2,1,0.3,1.7,0.5,2.6c0.2,0.8,0.5,1.6,0.7,2.3c0.3,0.9,0.4,1.7,0.6,2.6
	c0.2,0.9,0.6,1.7,0.3,2.7c-0.8-0.6-1-1.3-1.4-1.9c-0.5-0.9-1-1.7-1.5-2.5c-0.5-0.8-1.2-1.6-1.9-2.2c-0.6-0.6-1.5-1-2.5-0.7
	c0,0.4,0,0.8,0,1.1c0,0.3,0.2,0.7,0.3,1c0.2,0.3,0.3,0.8,0.5,1.2c0.2,0.3,0.3,0.7,0.4,1c0.1,0.3,0.5,0.5,0,1c-0.3-0.5-0.7-1-1-1.5
	c-0.6-1-1.1-1.9-1.7-2.9c-0.8-1.1-1.7-2.1-3-2.5c-0.8-0.3-1.4,0.1-1.2,1c0.1,0.8,0.3,1.7,0.4,2.4c0.3,0.2,0.4,0.4,0.8,0.8
	c-0.8-0.1-0.8-0.4-0.8-0.8c-0.8-0.3-1-1.2-1.5-1.9c-0.8-1.1-1.6-2.3-3-3c-0.6-0.3-1.3-0.8-1.9-0.3c-0.8,0.4-0.3,1.2-0.2,1.8
	c0.1,0.1,0,0.3-0.1,0.5c-0.6-0.9-1.2-1.6-1.8-2.3c-0.8-0.9-1.7-1.6-3-1.8c-0.7-0.1-1.2,0.3-1,1c0.3,1.1,0.8,2.3,1.2,3.4
	c0.1,0.3,0.1,0.5,0.3,1.3c-0.7-0.8-1.1-1-1.4-1.5c-0.7-0.9-1.2-1.7-1.8-2.6c-0.8-1-1.7-2.1-2.9-2.8c-0.3-0.2-0.8-0.2-1.2-0.3
	c-0.3,1,0.1,1.7,0.3,2.5c0.3,0.8,0.9,1.6,0.9,2.7c-1-0.7-1.4-1.5-1.9-2.2c-0.6-0.9-1.1-1.8-1.8-2.6c-0.7-0.7-1.5-1.4-2.3-2
	c-0.3-0.2-0.7,0-1,0c0.1,1.9,1.3,3.3,1.7,5.4c-0.5-0.4-0.9-0.6-1-0.9c-0.6-1-1.2-1.9-1.8-2.9c-0.7-1-1.4-2.1-2.5-2.8
	c-0.3-0.3-0.8-0.3-1.5-0.5c0.2,2.3,1.6,3.9,1.9,6.2c-0.5-0.3-1-0.5-1.1-0.8c-0.8-1-1.7-2-2.3-3c-0.6-1.1-1-2.3-2-3.2
	c-0.2-0.1-0.3-0.3-0.3-0.5c-0.3-1.7-1.4-2.8-2.1-4.2c-0.1-0.2-0.4-0.2-0.9-0.4c0.1,0.6,0.1,1,0.2,1.3c0.3,1.4,1.3,2.6,1.6,3.9
	c0.3,1.4,0.7,2.8,1.2,4.1c0.1,0.3,0.3,0.6,0.3,1c-0.4-0.1-0.8-0.3-1-0.5c-0.8-1.3-1.6-2.6-2.3-3.9c-0.7-1.2-1.2-2.6-1.9-3.8
	c-0.3-0.4-0.5-1-1.3-1c0,0.4,0,0.9,0.1,1.2c0.7,2.2,1.4,4.4,2.1,6.6c0.1,0.5,0.5,1,0.1,1.6c-0.8-0.5-1-1.4-1.5-2.2
	c-0.5-0.8-0.6-1.8-1.6-2.4c-0.7,1,0.3,2-0.1,3.3c-1.3-3-1.9-6-2.3-9c-0.3-2-1-4.1-0.7-6.2c-0.6-1.9-0.3-3.9-0.2-5.8
	c0-0.6,0.1-1.2,0-1.8c-0.1-0.7-0.5-1.1-1-1c-0.4,0.1-0.9,0.5-1,1.1c-0.1,0.2-0.1,0.3-0.1,0.4c0.3,1.9,0.3,3.8,0.2,5.7
	c-0.1,1.6,0.3,3.2,0.5,4.9c0.2,1.3,0.2,2.7,0.3,4c0.1,1.6,0.1,3.1,0.2,4.7c0,0.3,0.3,0.6-0.3,0.8c-0.8-1.3-1.2-2.7-1.6-4.2
	c-1.4-5.6-1.6-11.2-1.2-17c0.3-3.7,0.7-7.2,1-10.8c0.1-0.3,0.2-0.8-0.3-1c-0.9,0.6-1,1.7-1.2,2.5c-2.1,7.7-3,15.6-2.1,23.6
	c0,0.3-0.1,0.4-0.1,0.7c-0.3-0.7-0.4-1.3-0.5-2c-0.5-4-1-7.9-1-11.9c0-1.7,0-3.4-0.1-5.1c0-0.3,0.1-0.8-0.6-1
	c-0.2,0.3-0.3,0.6-0.4,1c-0.3,2.3-0.8,4.5-0.9,6.9c-0.2,5.1,0.6,10.3,1.5,15.4c0.1,0.3,0.1,0.6,0.1,1c-0.3-0.2-0.5-0.4-0.6-0.7
	c-0.6-2.2-1.3-4.4-1.7-6.5c-0.9-4-1.1-8.2-1.4-12.3c-0.1-0.8,0.1-1.7-0.4-2.6c-0.7,1-0.6,1.9-0.7,2.8c-0.1,0.9-0.2,1.8-0.2,2.7
	c0,1-0.1,2-0.1,3c0,0.9,0,1.8,0.1,2.7c0.1,0.9,0.1,1.8,0.2,2.7c0.1,1,0.2,1.8,0.3,2.7c0.2,1,0.4,1.9,0.6,2.9
	c0.2,0.8,0.5,1.6,0.5,2.8c-0.9-0.8-1.2-1.6-1.6-2.3c-0.7-1.3-1.3-2.7-2-4c-0.2-0.3-0.3-0.6-0.9-0.5c-0.5,0.6-0.1,1.3,0,1.9
	c0.1,0.7,0.3,1.3,0.4,2c0.1,0.6,0.6,1.2,0.3,2.1c-0.7-0.7-1.1-1.5-1.5-2.2c-0.5-1-1-2.1-1.6-3c-0.5-1-1-1.8-1.7-2.7
	c-0.2-0.3-0.4-0.6-1-0.3c0,0.3-0.1,0.8,0,1.2c0.1,0.5,0.2,1,0.3,1.6c0.1,0.4,0.3,0.9,0.4,1.3c0.2,0.5,0.4,1,0.5,1.5
	c0.1,0.3,0.6,0.7,0,1.2c-0.4-0.8-0.9-1.5-1.3-2.2c-0.6-1-1-2-1.7-3c-0.6-0.9-1.4-1.7-2.1-2.6c-0.2-0.2-0.5-0.2-1-0.3
	c0.1,2.6,1.6,4.6,2.3,7.2c-1-1-1.6-1.8-2.1-2.7c-0.6-1-1.1-1.9-1.7-2.9c-0.6-0.8-1-1.9-1.9-2.3c-0.6,0.5-0.3,1-0.2,1.5
	c0.3,1.4,0.7,2.7,1.1,4.1c-0.8-0.3-1.1-1.2-2-1.7c-0.9-1.5-1.7-3-2.7-4.4c-0.2-0.3-0.4-0.8-1-0.7c-0.3,0.4-0.2,1,0,1.4
	c0.7,1.7,1.4,3.2,2,4.8c0.2,0.3,0.6,0.7,0,1.2c-0.6-0.9-1.3-1.7-1.8-2.6c-0.5-0.9-1-1.8-1.6-2.7c-0.5-0.9-0.8-1.9-1.8-2.4
	c-0.2,0.3-0.3,0.4-0.3,0.5c0.1,0.4,0.2,0.9,0.3,1.3c0.3,1,0.8,2,1.1,3c0.1,0.3,0.2,0.6-0.3,0.7c-0.7-0.4-0.9-1.2-1.2-1.8
	c-0.3-0.7-0.8-1.4-1.2-2.1c-0.2-0.3-0.5-0.4-0.9,0c-0.1,1.2,1.1,2.2,0.9,3.8c-0.6-0.7-1-1.1-1.3-1.6c-0.3-0.5-0.6-1.1-1.3-1.1
	c-0.3,0.3-0.4,0.6-0.7,0.9c-0.7-0.2-1.3-0.3-2-0.4c-0.7-0.1-1.5,0-2.3-0.7c0.7-0.4,1.3-0.8,1.9-1.2c0.1-0.1,0.1-0.3,0.1-0.4
	c0-0.2-0.2-0.3-0.3-0.3c-0.2-0.1-0.4-0.1-0.6-0.1c-2.7,0.3-5.4-0.1-8-0.7c-3.9-0.9-7.6-2.3-11-4.5c-3.3-2.1-4.9-5-4.9-8.9
	c-0.1-5.1,1.6-9.7,4.3-14c0.5-0.8,1.2-1.4,2-1.8c2.1-1.2,4.3-2.2,6.5-3c4.8-1.6,9.7-2.3,14.8-2.8c9.3-0.8,18.4,0.3,27.5,2.4
	c3.2,0.8,6.4,1.8,9.6,2.7c2.2,0.6,4.4,1,6.7,0.8c2.2-0.3,4.2,0.2,6.3,0.6c4.2,0.9,8,2.5,11.9,4.1c3.6,1.5,7.1,3,10.7,4.3
	c4.9,1.7,9.9,2.7,15.1,2.2c2.3-0.2,4.5-0.5,6.7-1c7.9-1.5,15.3-4.3,22.2-8.5c1.3-0.8,2.6-1.7,3.9-2.6c0.2-0.2,0.3-0.5,0.4-1
	c-0.7,0.1-1.1,0.1-1.6,0.2c-2.3,0.7-4.5,1.4-6.7,2.1c-2.3,0.7-4.5,1.5-6.8,2.3c-0.3,0.1-0.7,0.2-1.1-0.3c0-0.3,0-0.6,0.1-1
	c0.2-1.3,0.3-2.5,0.5-3.8c0.5-5.1,0.5-10.3,0.5-15.5c0-0.3-0.1-0.8-0.1-1.1c-0.1-1.6-0.3-3.1-0.3-4.7c0-3.5,0.6-7,0.4-10.5
	c0-0.3,0-0.6,0.1-0.9c0.4-1.7,0.3-3.4,0.3-5.1c0-3.4-0.9-6.6-2.5-9.7c-1-1.8-2.1-3.7-3-5.5c-0.7-1.2-1.2-2.4-1.8-3.7
	c-0.1-0.3-0.1-0.5-0.1-1c1.3,0.6,1.3,2.3,2.5,2.6c0.5-0.5,0.3-0.9,0.1-1.3c-0.4-1-0.9-1.8-1.2-2.7c-0.1-0.2,0.1-0.3,0.2-0.5
	c0.7-0.1,0.8,1,1.7,0.5c-0.3-0.7-0.4-1.3-0.6-1.9c0.3-0.2,0.3-0.4,0.5-0.5c0.6-0.3,1.2-0.7,1.8-1c6.5-3,13.3-5.7,20-8.2
	c4.5-1.7,9.1-3.5,13.7-5.2c0.5-0.2,1.1-0.3,1.5-1.2c-3.7,0.5-7,1.5-10.3,2.4c-3.4,1-6.7,2.2-10,3.4c-3.1,1.1-6.3,2.6-9.5,3.9
	c0-0.1,0-0.3,0-0.3c0.2-0.2,0.3-0.4,0.6-0.6c2.1-1.7,4.4-3,6.8-4c3.6-1.5,7.1-2.8,10.7-4.2c1.8-0.7,3.6-1.5,5.4-2.3
	c0.3-0.2,0.7-0.3,0.6-1c-0.3-0.1-0.6-0.2-1-0.2c-1.9,0-3.7,0.3-5.5,1c-2.3,1-4.7,2-7,3c-0.3,0.2-0.7,0.6-1.2,0.1
	c1.1-1.1,2.6-1.8,4-2.4c2.3-1,4.5-1.8,6.9-2.7c2-0.8,4-1.5,5.9-2.3c0.3-0.2,0.7-0.4,1.3-0.9c-0.5-0.2-0.8-0.3-1-0.3
	c-1,0.1-1.9,0.1-2.9,0.3c-1.8,0.4-3.6,1.1-5.4,1.7c-0.3,0.1-0.7,0.3-1.1-0.1c1.4-1.1,3-1.6,4.6-2.3c1.4-0.6,2.8-1.1,4.1-1.8
	c0.8-0.3,1.6-0.8,2.5-0.7c0.7,0.1,1.5-0.2,2-0.8c0.1-0.1,0.1-0.3,0.1-0.4c0-0.2-0.2-0.3-0.3-0.3c-0.3-0.1-0.8-0.1-1.1,0
	c-1.6,0.3-3,0.7-4.6,1c-0.4,0.1-0.9,0.4-1.6,0.2c1.1-0.8,2.3-1.2,3.4-1.7c1.3-0.5,2.7-1,4-1.5c0.5-0.2,1-0.3,1.1-1.1
	c-1.3-0.5-2.5,0.6-3.8,0.3c0.8-1.1,1.8-2.2,3-3.1c0.8-0.6,1.5-0.6,2.3-0.1c1.6,1,3.1,2.1,4.6,3.2c5.7,4.3,11.5,8.5,17.2,12.7
	c5.3,3.8,10.6,7.7,15.7,11.7c4.8,3.8,9.6,7.7,14.4,11.6c9.2,7.3,18.2,14.7,26.9,22.6c10,9.1,20.7,17.3,32,24.8
	c5.1,3.4,10.4,6.7,15.3,10.3c7.3,5.2,14.5,10.8,21.8,16.2c3.3,2.5,6.6,5,10.4,6.8c2.1,1,4,2.1,5.9,3.4l0.2,86.1
	c-0.2-0.1-0.4-0.2-0.6-0.3c-0.2,0.2-0.3,0.3-0.3,0.5c0.3,0.6,0.5,1.3,0.8,2c0.1,0.1,0.1,0.3,0.2,0.4l0,12.1
	c-0.6-1.1-1.2-2.3-1.8-3.4c-1.7-3.1-3.5-6.3-4.5-9.7c-0.3-0.8-0.9-1.6-1.4-2.3c-0.3-0.3-0.6-0.5-1-0.1c1.1,4.5,4.9,13.2,8.6,20.5
	l0,9.8c0-0.1,0-0.1,0-0.2c-2.3-6.4-5-12.6-8.1-18.7c-0.7-1.5-1.6-2.9-2.4-4.3c-0.2-0.3-0.5-0.7-0.9-1c-0.1-0.1-0.3-0.2-0.4-0.1
	c-0.2,0.2-0.3,0.3-0.3,0.5c0.1,0.6,0.3,1.3,0.5,1.9c3,7.9,7.1,15.4,11.1,22.8c0.1,0.3,0.3,0.4,0.5,0.6c0,0,0,0,0.1,0l0,6.6H440.3z
	 M134.4,322.7c-0.9-1.6-1.8-3-2.8-4.6c-0.3-0.4-0.5-0.9-1.2-0.9c-0.4,0.8,0,1.4,0.3,2c1.1,3,2.3,5.9,4.5,8.3c0.4,0.5,1,1.2,1.7,1.2
	c0.4-0.3,0.3-0.7,0.1-1C136.1,326,135.4,324.3,134.4,322.7z M342.4,108.4c0.4,0,0.9-0.2,1.3-0.3c0.2-0.1,0.3-0.3,0.3-0.3
	c0.2-0.3,0.3-0.8,0.4-1.2c0.1-0.3,0-0.6-0.2-0.9c-0.2-0.3-0.5-0.3-0.8-0.5c-0.7,0.6-1.4,1-1.9,1.7c-0.2,0.3-0.3,0.8-0.1,1
	C341.6,108.2,342,108.4,342.4,108.4z M230.6,279.1c-0.3-1-0.7-2-1.5-2.7c-0.3-0.3-0.7-0.4-1.1,0.1c0.4,1,0.8,2,1.2,3
	c0.1,0.1,0.3,0.2,0.4,0.2C230.3,280,230.7,279.8,230.6,279.1z M340.2,112.4c0.2,0.2,0.5,0.2,0.8,0.3c0.3-0.3,0.5-0.7,0.9-1.3
	c-1.1-0.2-1.1-0.2-1.5,0.3C340.2,111.9,340.1,112.2,340.2,112.4z M222.9,274.3c-0.3-0.3-0.7-0.5-1.3,0c0.3,1,1,1.8,1.4,2.9
	c0.7,0.6,1.2,1.7,2.4,1.5C225.2,276.8,224.2,275.3,222.9,274.3z M268,328.9c-0.7,0.3-1.5,0.5-2.1,1.7c2.3-0.4,3.9-1.2,5.7-2.2
	C270.2,327.9,269.1,328.5,268,328.9z M182,186.2c-0.3,0.1-0.5,0.3-0.7,0.5c0,0.7,0.5,1.2,1,1.1c0.3-0.1,0.6-0.3,0.6-0.8
	C183,186.6,182.5,186,182,186.2z M180.3,191c0,0.4,0.3,0.7,0.7,0.7c0.3,0,0.6-0.3,1-0.6c-0.4-0.3-0.7-0.6-1-0.7
	C180.6,190.3,180.3,190.6,180.3,191z M186,191c0-0.5-0.5-1-1-1c-0.6,0-1,0.3-1.1,0.9c0,0.5,0.3,1,0.9,1.1
	C185.4,192.1,186,191.6,186,191z M184.3,208.1c-0.1-0.1-0.3-0.1-0.4-0.1c-0.1,0.1-0.3,0.2-0.2,0.4c0,1,0.3,1.9,1,2.6
	c0.2,0.2,0.6,0.3,1,0.3c0.2,0,0.5-0.4,0.5-0.5C185.7,209.8,185.1,208.7,184.3,208.1z M174.9,208.9c-0.2-0.1-0.5,0.1-1,0.1
	c0.5,1.3,0.9,2.5,1.5,3.5c0.1,0.3,0.3,0.5,0.6,0.6c0.3,0.2,0.7,0.2,0.9,0.1c0.2-0.1,0.3-0.4,0.3-0.7
	C177,210.8,176.2,209.7,174.9,208.9z M177,190.5c-0.3,0.1-0.5,0.3-0.6,0.5c-0.2,0.3,0.2,0.9,0.5,0.8c0.3-0.1,0.6-0.3,0.8-0.4
	C177.8,190.8,177.4,190.4,177,190.5z M180.3,209.2c-0.3-0.3-0.7-0.8-1.3-0.7c-0.3,0.1-0.3,0.7,0,1.6c0.3,0.6,0.5,1.4,0.9,2
	c0.3,0.4,0.8,0.4,1.2,0.3c0.3-0.2,0.4-0.3,0.6-0.5c0-0.3,0-0.4-0.1-0.5C181.1,210.6,180.7,209.9,180.3,209.2z M193.1,186
	c-0.5,0.1-0.8,0.3-0.8,0.9c0,0.4,0.3,0.8,0.8,0.8c0.5-0.1,0.9-0.5,0.9-1C193.9,186.2,193.5,185.9,193.1,186z M192.2,190.4
	c-0.3,0.1-0.6,0.5-0.6,0.8c0,0.4,0.3,0.6,0.8,0.6c0.5-0.1,1-0.4,0.9-0.9C193.1,190.5,192.6,190,192.2,190.4z M174.3,191.3
	c0-0.4-0.3-0.8-0.9-0.8c-0.5-0.1-1,0.2-1,0.6c-0.1,0.5,0.3,1,0.7,1C173.7,192.2,174.2,191.9,174.3,191.3z M185.7,186
	c-0.4,0-0.9,0.3-0.8,0.8c-0.1,0.6,0.3,1,0.8,1.1c0.5,0.1,1-0.3,1.1-0.8C186.9,186.5,186.4,186,185.7,186z M188.5,207
	c-0.6,0.2-0.4,0.7-0.3,1.1c0.2,0.9,0.4,1.6,1,2.2c0.3,0.3,0.6,0.3,1,0.4c0.2,0,0.4-0.2,0.8-0.3c-0.3-1.1-0.8-2-1.3-2.9
	C189.4,207.2,189.1,206.8,188.5,207z M190.4,186.9c0.1-0.4-0.3-1-0.9-1c-0.5-0.1-1,0.3-1,1c0,0.4,0.2,0.7,0.6,0.8
	C189.8,187.7,190.4,187.3,190.4,186.9z M189.7,191c0.1-0.4-0.3-1-0.9-1.1c-0.4-0.1-0.9,0.3-1,1c-0.1,0.4,0.3,0.9,0.7,1
	C189.1,191.9,189.7,191.4,189.7,191z M365.4,386.4c-0.2,0-0.3,0.2-0.3,0.3c-0.2,0.6-0.1,1.2,0.3,1.7c0.2,0.2,0.4,0.3,0.6,0.2
	c0.2,0,0.3-0.3,0.4-0.5c-0.2-0.4-0.3-0.9-0.7-1.5C365.8,386.4,365.5,386.4,365.4,386.4z M370.7,375.3c-0.5,0.2-1.1,0.3-1.6,0.7
	c-1.9,1-3.8,1.9-5.7,3c-0.8,0.4-1.5,1-2.2,1.6c-0.2,0.1-0.3,0.4-0.5,1c0.9-0.3,1.4-0.5,1.9-0.8c2.4-1.5,4.9-3,7.2-4.4
	C370.1,376.1,370.4,375.6,370.7,375.3z M373.4,379.3c1.5-0.3,2.4-1,3.5-1.6c1.4-0.6,2.5-1.6,3.3-2.9c-2.1,0.3-3.5,1.8-5.2,3
	C374.4,378.2,373.9,378.5,373.4,379.3z M361.5,374.4c-1.1,0.4-2.3,0.9-3.5,1.5c-2.2,1.1-4.3,2.3-6.4,3.4c-0.4,0.2-1,0.3-1.1,1
	c0.3,0,0.4,0.2,0.6,0.1c1.6-0.5,3.1-1,4.6-1.7c2.4-1,4.7-2.2,6.8-4.2C362.2,374.5,361.8,374.3,361.5,374.4z M325.6,353.7
	c-0.8,0.2-1.1,0.2-1.4,0.3c-3.3,1.6-6.5,3.1-9.7,4.7c-0.2,0.1-0.2,0.3-0.4,0.8c3.9-1.3,7.5-2.7,10.7-4.7
	C325,354.7,325.1,354.3,325.6,353.7z M172.4,204.9c0,0.1-0.2,0.2-0.2,0.3c0,0.6,0.3,1.2,0.9,1.4c0,0.1,0.1,0,0.2,0
	c0.1-0.1,0.2-0.1,0.2-0.2C173.6,205.8,173,204.9,172.4,204.9z M371.6,374.9c0.3-0.1,0.7-0.2,1-0.3c0.3-0.1,0.4-0.3,0.2-0.7
	C372,373.8,371.9,374.3,371.6,374.9z M369.7,385.3c-0.2-0.3-0.4-0.6-0.9-0.4c-0.4,0.5-0.3,1.1-0.1,1.7c0.4,1.8,0.9,3.7,2.1,5.2
	c0.2-0.2,0.4-0.3,0.3-0.4C371.2,389.2,370.7,387.2,369.7,385.3z M335.8,361.5c0.5-0.3,1.1-0.4,1.1-1.2c-1.9,0.2-13.1,4.3-17.9,6.7
	c-1,0.4-2.1,0.8-3.1,2c1-0.2,1.4-0.2,1.9-0.3c3.7-1.2,7.3-2.4,11-3.8C331.2,363.9,333.5,362.7,335.8,361.5z M167,225.2
	c0.3,0.1,0.7,0.1,1,0.1c0-1.7-0.9-3-2.3-4c-0.2-0.1-0.4-0.1-0.6,0c-0.1,0-0.2,0.3-0.2,0.3C165.1,223.1,165.6,224.4,167,225.2z
	 M169.7,191c-0.3,0.1-0.4,0.3-0.5,0.6c-0.1,0.3,0.3,0.8,0.7,0.6c0.3-0.2,0.4-0.4,0.6-0.6C170.4,191,170,190.7,169.7,191z
	 M343.8,363.6c0.3-0.2,0.8-0.4,0.8-1c-0.3-0.3-0.8-0.1-1.1,0c-0.9,0.3-1.7,0.6-2.5,1c-3.5,1.4-7,2.6-10.4,4.1c-2.3,1-4.7,2.3-7,3.4
	c-0.4,0.3-1,0.4-1.2,1.1c0.5,0.3,0.9,0.1,1.3-0.1c1.2-0.4,2.3-1,3.6-1.4c3.5-1.3,7-2.6,10.4-4.1
	C339.7,365.8,341.7,364.7,343.8,363.6z M345.2,367.8c0.4-0.2,1-0.4,1-1c-0.2-0.1-0.3-0.2-0.3-0.1c-5.9,2.5-11.7,5.1-17.7,7.7
	c-0.3,0.1-0.5,0.3-1,0.7c0.9,0.3,1.5,0.1,2.1-0.2c3.3-1.2,6.6-2.4,9.8-3.8C341.2,370.2,343.2,368.9,345.2,367.8z M352.2,369.4
	c-0.7,0.1-1,0.1-1.4,0.2c-6,1.5-11.6,4.3-17.4,6.4c-0.3,0.1-0.6,0.3-0.9,0.5c3.7,0.1,14.3-3.7,19-6.4
	C351.7,370.1,351.9,369.8,352.2,369.4z M359.1,370.9c-1-0.3-1.7,0.1-2.4,0.4c-3.4,1.4-6.7,2.8-10.1,4.3c-1.2,0.5-2.4,1.1-3.7,1.7
	c-0.3,0.1-0.8,0.3-0.4,0.9c5.5-1.5,10.5-3.8,15.5-6.4C358.4,371.7,358.6,371.4,359.1,370.9z M291,215.4c-0.1-0.3-0.3-0.4-0.6-0.9
	c-0.3,0.4-0.7,0.7-0.8,0.9c-0.2,0.4,0.3,0.9,0.8,0.8C290.9,216.1,291.1,215.7,291,215.4z M263.2,279.4c3.5-0.5,7-1.1,10.4-1.5
	c5.7-0.6,11.3-1.2,17-1.7c3.4-0.3,6.7-0.4,10.1-0.6c0.9-0.1,1.7-0.2,2.5-0.9c-0.3,0-0.8,0-1.1,0c-5.8,0-11.7,0-17.5,0.2
	c-5.2,0.2-10.4,0.6-15.6,1.7c-2.8,0.5-5.5,1.1-8,2.3c-0.3,0.1-0.3,0.3-1,0.8C261.4,279.6,262.3,279.5,263.2,279.4z M265.4,251.9
	c-0.9,0.3-1.7,0.7-2.4,1.1c-0.3,0.1-0.4,0.4-0.9,0.8c2.7-0.3,3.2-0.5,4.4-1.8C266.1,252,265.6,251.8,265.4,251.9z M292,217.7
	c-0.1,0.4,0.3,0.9,0.8,0.9c0.5,0,0.9-0.4,0.9-0.9c-0.1-0.4-0.5-0.8-1-0.8C292.3,217,292.1,217.3,292,217.7z M279.7,264.8
	c0.6-0.3,1.2-0.5,1.8-0.8c-3-0.3-13,2.5-20,5.4c-0.3,0.2-0.9,0.3-0.9,1c0.3-0.1,0.7,0,1-0.1c2.3-0.5,4.6-1,6.8-1.7
	C272.2,267.4,276,266.1,279.7,264.8z M260.2,266.6c2.8,0.1,7.7-1.2,16.6-4.4c1.8-0.7,3.8-1,5.4-2.4c-0.6-0.1-1,0-1.6,0.1
	c-2.8,0.8-5.6,1.7-8.4,2.3c-3.6,0.8-6.9,2.1-10.3,3.3C261.4,265.6,260.7,265.7,260.2,266.6z M281.3,269.2c0.3-0.1,0.7-0.2,0.3-0.7
	c-5,0.9-10,2.1-14.9,3.7c-0.3,0.1-0.6,0.3-1.3,0.8C268.6,273.6,276.9,271.5,281.3,269.2z M293.7,213c-0.1-0.3-0.3-0.5-0.7-1
	c-0.3,0.4-0.6,0.6-0.6,1c-0.2,0.4,0.1,0.7,0.5,0.8C293.4,213.8,293.8,213.4,293.7,213z M301.4,221.2c0.5,0,0.9-0.4,0.9-1
	c0-0.6-0.3-1-0.9-1c-0.5,0.1-1,0.4-1,1C300.3,220.7,300.8,221.2,301.4,221.2z M295.7,220.9c0.1-0.2,0.4-0.3,0.4-0.6
	c0.2-0.5-0.3-0.9-0.8-0.8c-0.3,0.1-0.7,0.3-0.7,0.7C294.7,220.6,295.1,221,295.7,220.9z M301.7,214.9c0.4-0.1,0.7-0.4,0.7-1
	c0-0.6-0.4-1-1-0.9c-0.4,0.1-0.8,0.5-0.7,1C300.7,214.6,301.1,214.9,301.7,214.9z M300.6,225.9c0.5,0,0.8-0.3,0.8-0.9
	c0-0.4-0.3-0.7-0.9-0.7c-0.5,0.1-0.9,0.4-1,0.7C299.5,225.5,300,225.9,300.6,225.9z M299,222.6c-0.1-0.5-0.6-0.9-1.3-0.9
	c-0.2,0.3-0.4,0.6-0.4,1c-0.1,0.4,0.3,0.7,0.9,0.7C298.7,223.4,299.1,223,299,222.6z M295.7,215.9c0.3-0.1,0.6-0.4,0.8-0.6
	c0-0.6-0.4-1-1-0.9c-0.5,0.1-0.9,0.4-0.8,0.9C294.8,215.7,295.3,216.1,295.7,215.9z M305.4,229.3c-0.4,0.1-0.6,0.4-0.6,0.8
	c0,0.6,0.3,1,0.9,1c0.5,0,0.9-0.3,0.9-0.8C306.5,229.7,306,229.2,305.4,229.3z M309.6,222.2c0.5,0.1,1-0.3,1.1-0.8
	c0.1-0.5-0.3-1-1-0.9c-0.4,0-0.8,0.1-0.9,0.5C308.7,221.6,309,222.1,309.6,222.2z M288,238.8c-0.1,0-0.1-0.1-0.2-0.1
	c-0.3,0-0.6,0-0.9,0.1c-4.4,1-8.8,1.7-12.9,3.7c-0.5,0.3-1,0.5-1.7,0.6c-1.9,0.3-3.5,1.1-5,2.3c-0.1,0.1-0.1,0.2-0.2,0.2
	c0,0,0.1,0.1,0.2,0.1c1-0.2,2.2-0.1,3-0.5c1.8-0.8,3.7-1.1,5.6-1.7c3.7-1.2,7.4-2.5,11.1-3.8C287.5,239.5,288,239.4,288,238.8z
	 M310.4,235.5c0.3,0,0.5-0.3,1-0.6c-0.3-0.3-0.6-0.7-0.9-0.7c-0.3,0-0.6,0.3-0.8,0.5C309.5,235,309.9,235.5,310.4,235.5z M308,225.4
	c-0.2-0.5-0.6-0.9-1.1-0.9c-0.4,0-0.8,0.3-0.7,1c0,0.6,0.4,1,1,0.9C307.7,226.2,308.1,225.8,308,225.4z M299,212.3
	c0.3-0.1,0.5-0.3,0.7-0.4c0-0.5-0.3-1-0.8-1c-0.4,0-0.7,0.3-0.7,0.7C298.2,212.1,298.5,212.4,299,212.3z M306.9,219.8
	c0.8-0.1,1.2-0.7,1.1-1.2c0-0.4-0.4-0.8-0.9-0.8c-0.6,0-1.1,0.6-1,1.2C306.3,219.4,306.7,219.6,306.9,219.8z M308.1,233.5
	c0.5,0.1,1-0.3,1-0.7c0-0.3-0.4-0.8-0.9-0.8c-0.5,0-1,0.3-0.9,0.8C307.4,233.2,307.7,233.5,308.1,233.5z M304.2,217.4
	c0.7,0,1.1-0.4,1.1-1.3c-0.3-0.2-0.5-0.5-0.9-0.6c-0.5-0.2-1,0.3-1,1C303.4,217,303.7,217.4,304.2,217.4z M266.2,261.4
	c3.1-1.1,6.2-2.5,9.5-3.3c0.9-0.2,1.8-0.5,2.6-1.3c-1.5-0.2-2-0.1-3.3,0.4c-0.8,0.3-1.7,0.6-2.5,0.9c-1.5,0.3-3,0.7-4.3,1.4
	c-0.6,0.3-1.3,0.3-1.9,0.6c-0.8,0.3-1.7,0.7-2.4,1c-0.3,0.1-0.4,0.3-0.7,0.6c0.3,0.1,0.5,0.3,0.7,0.3
	C264.7,261.8,265.5,261.7,266.2,261.4z M303.9,223.7c0.6,0.1,1.2-0.3,1.3-1.1c-0.3-0.2-0.5-0.5-0.9-0.7c-0.6-0.1-1.1,0.3-1.2,0.7
	C303,223.1,303.4,223.6,303.9,223.7z M267,257.7c1.2-0.6,2.4-1.3,3.6-1.9c0.2-0.1,0.3-0.3,0.4-0.5c-3.1,0.3-6.3,1.4-8.2,2.8
	c0.3,0.2,0.5,0.3,0.7,0.4C264.8,258.5,266,258.3,267,257.7z M288.8,213.3c0-0.3-0.3-0.5-0.6-0.5c-0.3,0-0.7,0.3-0.5,0.8
	c0.1,0.3,0.3,0.4,0.7,0.8C288.5,213.8,288.8,213.5,288.8,213.3z M266.3,240.9c1.1,0.4,1.8,0,2.4-0.3c5.2-1.8,10.4-3.7,15.7-5.5
	c1.1-0.4,2.3-0.8,3.4-1.1c0.3-0.1,0.6-0.1,0.4-0.5c-3.5-0.1-13.4,2.6-18.6,5.2C268.6,239.3,267.3,239.6,266.3,240.9z M303.2,228.7
	c0.4-0.1,0.9-0.6,0.7-1.1c-0.1-0.3-0.3-0.5-0.5-0.7c-0.7,0-1,0.4-1,1C302.4,228.3,302.8,228.8,303.2,228.7z M309.7,229.1
	c0.6-0.1,1-0.4,1-1c0-0.5-0.4-1-1-1c-0.5,0.1-0.9,0.5-0.9,1.1C308.9,228.8,309.2,229.1,309.7,229.1z M249.1,262
	c-0.3-0.9-0.6-1.7-1.7-2.1c0.1,1.7,0.3,3.3,1.6,4.9C249.7,263.7,249.3,262.8,249.1,262z M252.2,266.2c-1.2,1.4-2.3,2.9-3.2,4.5
	c-0.2,0.3-0.2,0.6-0.4,1.5c0.7-0.3,1-0.4,1.2-0.6c1.9-2,3.8-4,5.2-6.4c0.4-0.8,0.9-1.7,1.2-2.6c0.1-0.1,0-0.3-0.1-0.8
	C254.5,263.1,253.5,264.8,252.2,266.2z M277.8,216.8c-1.4-0.3-2.4,0.2-3.5,0.3c-6.2,1.3-11.8,3.7-17.1,7.1c-0.8,0.4-1.7,0.8-2.1,1.7
	c0.3,0.1,0.5,0.3,0.7,0.2c0.8-0.2,1.5-0.4,2.2-0.7c6.4-2.6,12.7-5.3,19.1-8C277.2,217.4,277.4,217.1,277.8,216.8z M263.9,217
	c0.1,0,0-0.2,0-0.3c-2.3,0.2-7.7,2-10.4,3.7c-0.7,0.3-1.5,0.7-1.7,1.6c0.6,0.4,1.1,0.1,1.6-0.1C256.8,220.2,260.5,218.9,263.9,217z
	 M249,234.5c0.3,1.3,2.5,5.6,3.3,6.4c0.1,0.1,0.3,0.1,0.7,0.2c0.3-1.3-0.3-2.2-0.9-3.1C250.9,235.8,250.2,235,249,234.5z
	 M250.9,217.4c-1.8,0.5-3.5,1.3-4.9,2.6c-0.1,0.1,0,0.3-0.1,0.7c2.3-0.3,4-1.5,5.7-3C251.3,217.5,251,217.3,250.9,217.4z
	 M248.7,227.5c0.3,1.7,1.2,3,2,4.4c0.3,0.5,0.6,1.2,1.7,1.4c-0.3-2-1.1-3.5-2.3-4.9C249.8,228,249.5,227.4,248.7,227.5z
	 M269.7,282.7c8-0.8,16-1.1,24-1c5.7,0.1,11.4,0.3,17.1,0.3c1,0.1,1.8,0,2.7,0c0-0.2,0-0.3,0.1-0.3c-0.3-0.1-0.6-0.3-0.9-0.3
	c-2.3-0.3-4.4-0.6-6.7-0.8c-5.2-0.4-10.5-0.6-15.7-0.6c-7.7-0.1-15.3,0.1-22.9,1c-1.9,0.3-3.8,0.4-5.7,0.9c-1.1,0.3-2.1,0.8-3.1,1.2
	c-0.2,0.1-0.3,0.4-0.6,0.9c0.7,0,1.1,0,1.6-0.1C262.9,283.7,266.3,283.1,269.7,282.7z M255.6,336.1c0.1,1.4,1.3,4.8,2.3,6.4
	c0.2,0.2,0.4,0.3,0.9,0.7c-0.1-2.6-1-4.6-2.1-6.5C256.5,336.2,256.2,335.8,255.6,336.1z M250.3,334.1c-0.2-0.2-0.4-0.3-1-0.6
	c0.4,3.1,1.7,5.6,3,8c0.4,0.9,0.7,1.8,1.7,2.3c0.5-0.8,0.1-1.4,0-2.1C253.4,338.9,252,336.5,250.3,334.1z M284.8,291.9
	c0.4,0,1,0.3,1.1-0.5c-0.7,0-1.4,0-2,0c-0.7,0-1.3,0-2-0.1c-1.6-0.1-3.1-0.3-4.7-0.3c-5.6-0.2-11.1,0.2-16.6,0.6
	c-1.6,0.1-3.1,0.6-4.6,1c-0.4,0.2-1,0.3-1,1.3c0.8-0.1,1.4-0.1,2.1-0.3c4.6-0.5,9.2-1.1,13.8-1.2
	C275.5,292.3,280.2,292.1,284.8,291.9z M258,288.7c3.4-0.3,6.7-0.7,10.1-1c6.4-0.7,13-1,19.5-1.1c4.7-0.1,9.5,0,14.2,0
	c0.7,0,1.3,0.2,2.1-0.3c-0.9-0.5-1.7-0.5-2.6-0.6c-4.1-0.4-8.3-0.5-12.4-0.4c-4.3,0.1-8.4,0.3-12.6,0.4c-3.4,0.1-6.7,0.3-10.1,0.4
	c-2.8,0.2-5.7,0.7-8.4,1.6c-0.7,0.3-1.5,0.3-2.2,1.2C256.6,289.1,257.3,288.9,258,288.7z M249.5,294.3c0.1-0.1,0.2-0.3,0.2-0.3
	c-0.1-0.2-0.2-0.5-0.3-0.5c-1.1-0.3-2.2,0-3.5,0.9c1.5,0.7,2.4,0.7,3.5,0.2C249.4,294.4,249.5,294.4,249.5,294.3z M247.5,287.8
	c0.4,0.3,1,0.7,1.7,0.3c-0.3-1.1-0.9-2.1-2-2.4c-0.2-0.1-0.4,0-0.6,0.1c-0.1,0.2-0.3,0.5-0.2,0.6
	C246.8,286.8,247.1,287.4,247.5,287.8z M298.3,218.6c0.6,0,1.1-0.3,1.1-0.9c0-0.4-0.4-0.9-1-1c-0.4-0.1-1,0.3-1,0.7
	C297.4,218,297.7,218.5,298.3,218.6z M262.6,238c-0.4,0.2-1,0.3-1,1.1c0.4-0.1,1-0.1,1.3-0.3c2-0.8,4-1.5,5.9-2.3
	c5.9-2.3,11.8-4.7,18-6.4c0.2-0.1,0.4-0.3,1-0.5c-1-0.4-1.7-0.3-2.5-0.1c-4.2,0.6-8.3,1.8-12.1,3.5
	C269.6,234.7,266.1,236.3,262.6,238z M259.8,228.8c-0.2,0.2-0.3,0.4-0.5,1c0.7-0.2,1-0.3,1.4-0.4c2.3-0.8,20.6-7.8,21.1-8.2
	c0,0,0-0.1,0-0.2c-0.1,0-0.1-0.1-0.2-0.1c-0.2,0-0.3,0-0.4,0c-6.8,1.1-13.2,3.1-19.2,6.5C261.1,227.9,260.5,228.3,259.8,228.8z
	 M282.4,192c0.5-0.1,1.1-0.3,1.7-0.4c0.1-0.1,0.2-0.3,0.3-0.6c-0.9-0.5-1.6-0.3-2.3,0.3c-0.1,0-0.2,0.3-0.1,0.3
	C282.1,191.7,282.3,192,282.4,192z M283.5,224.9c-1.5,0.3-3,0.7-4.5,1.1c-4.7,1.3-9.3,2.7-13.7,5c-1.1,0.6-2.3,1.2-3.3,1.9
	c-0.2,0.2-0.3,0.4-0.6,1c0.6-0.1,1-0.2,1.2-0.3c3.2-1,6.5-2.1,9.7-3.3c3.7-1.4,7.4-2.9,11.1-4.4c0.5-0.2,1.1-0.3,1.1-1
	C284.2,224.9,283.8,224.8,283.5,224.9z M287.1,202c0.3,0.1,0.6,0.3,0.9,0.3c2.9-0.1,5.7-0.3,8.5-0.3c0.3-0.1,0.7-0.2,1-0.3
	C295.1,200.6,289.1,200.8,287.1,202z M295.2,199.3c0.3-0.1,0.8,0,1-0.6c-0.3-0.1-0.5-0.3-0.8-0.3c-2.4-0.2-4.9-0.2-7.3,0.3
	c-0.4,0.1-0.8,0.3-1.2,0.4c-0.1,0-0.1,0.3-0.2,0.3C288.3,199.8,290.2,199.8,295.2,199.3z M253.1,248.6c-0.2-2.1-0.2-2.1-2.8-6.7
	c-0.3-0.6-0.6-1.2-1.7-1.5c0.3,0.8,0.5,1.2,0.6,1.7c0.8,1.5,1.6,3,2.3,4.5c0.3,0.5,0.6,1,0.9,1.6
	C252.6,248.5,252.7,248.8,253.1,248.6z M290.5,195.1c-1.2-0.2-2.3-0.1-3.2,0.2c-0.2,0.1-0.3,0.4-0.4,0.7
	C289.6,196.2,289.8,196.1,290.5,195.1z M252.1,253.8c0-0.3,0-0.6-0.1-0.9c-0.6-1.8-1.2-3.7-1.9-5.5c-0.3-0.8-0.7-1.5-1.7-1.9
	c0.1,0.8,0.1,1.2,0.3,1.7c0.7,2.3,1.9,4.4,3,6.4C251.7,253.8,252,253.8,252.1,253.8z M248.5,253.2c0,2.5,1,4.5,2.3,6.9
	c0.3-0.6,0.5-0.8,0.4-1c-0.1-1.7-0.9-3-1.5-4.6C249.6,254,249.4,253.4,248.5,253.2z M277.5,193c0.2,0.1,0.3,0.2,0.7,0.3
	c0.3-0.2,0.9-0.3,1.4-0.5c0.2-0.1,0.3-0.4,0.2-0.6c0-0.2-0.3-0.4-0.4-0.4c-0.7-0.1-1.4,0.1-1.9,0.5
	C277.3,192.4,277.3,192.9,277.5,193z M250.5,212.2c4.4-1.3,16.9-6.4,19.3-7.9c-3,0.3-10.5,2.7-15.8,5.1c-1.8,0.8-3.7,1.6-5.4,2.9
	C249.4,212.7,250,212.4,250.5,212.2z M275,192.6c-0.8,0.2-1.6,0.4-2.3,0.7c-0.4,0.1-0.7,0.3-0.6,0.8c0,0.4,0.5,0.9,1,0.7
	c0.8-0.2,1.6-0.5,2.3-0.9c0.2-0.1,0.2-0.5,0.2-0.8C275.5,192.9,275.3,192.7,275,192.6z M278.2,188.8c-1.7-0.2-1.7-0.2-2.1,0.9
	C277.7,189.9,277.7,189.9,278.2,188.8z M412.9,295.9c-0.6-3-1.8-5.3-3.1-7.7c-1-1.7-1.9-3.7-3.8-5.3c0.1,2.1,0.9,3.5,1.6,5
	C409.1,291.4,411,294.3,412.9,295.9z M205.8,313.3c0.1,0.5,0.2,1,0.3,1.5c0.1,0.3,0.3,0.4,0.8,0.2
	C207.1,314.3,206.9,313.6,205.8,313.3z M404.7,310.3c0.1,0.1,0.3,0.2,0.7,0.6c-0.3-1.4-0.4-2.4-0.9-3.5c-1.8-6.4-3.8-12.8-6.5-18.9
	c-2.1-4.9-4.5-9.5-7.5-13.8c-0.3-0.6-0.7-1.3-1.4-1.7c-0.1,0.2-0.2,0.2-0.2,0.3c0,0.2,0,0.3,0.1,0.4
	C394.7,285.8,400.3,297.8,404.7,310.3z M384,275.7c4.3,8.1,7.9,16.6,11.1,25.2c1,2.7,2,5.5,3,8.2c0.1,0.3,0.1,0.8,0.8,0.6
	c-0.2-0.5-0.2-1-0.3-1.5c-1.1-3.8-2.3-7.7-3.5-11.4c-2.5-7.7-5.5-15.2-9.7-22.2c-1.4-2.3-3-4.5-4.4-6.8c-0.5-0.7-1-1.5-2.3-1.7
	c0.3,1.1,0.8,1.8,1.3,2.5C381.3,271,382.7,273.3,384,275.7z M393,361.5c2.3-2.8,3.8-6,4.4-9.6c0-0.3-0.1-0.5-0.6-0.5
	c-1.5,3.2-3,6.4-4.4,9.7c-0.1,0.2,0.1,0.4,0.1,0.6C392.8,361.6,392.9,361.6,393,361.5z M419.9,384.1c0.1,0.1,0.3,0.2,0.3,0.2
	c0.2,0.1,0.4,0,0.6-0.1c0.1,0,0.2-0.3,0.2-0.3c-0.3-1-0.3-2-1.1-2.8c-0.2-0.2-0.5-0.2-1-0.3C418.9,382.1,419,383.2,419.9,384.1z
	 M357.5,291.5c-0.1-0.2-0.4-0.3-0.7-0.3c-0.5,0.7-0.1,1.2,0.1,1.7c3.1,8.3,4.3,10.6,5.4,11.7c0.1-0.3,0.2-0.5,0-0.6
	c-1-3.4-2.2-6.8-3.4-10.2C358.6,293,358,292.2,357.5,291.5z M413.7,291.8c1.6,3.2,3.3,6.5,5,9.7c0.1,0.1,0.3,0.1,0.5,0.2
	c0.2-1.4-0.3-2.5-0.7-3.7c-1.3-4-3-7.8-5.7-11.1c-0.1,0-0.3,0-0.4,0.2c-0.1,0.3-0.2,0.7-0.1,1C412.8,289.2,413.1,290.5,413.7,291.8z
	 M373.4,277.9c-0.2-0.2-0.3-0.4-0.6-0.6c-0.3-0.3-0.6-0.4-0.9,0.2c0.4,1,0.9,2.2,1.4,3.2c0.3,0.5,0.5,1,1,1.5c0.2,0.2,0.6,0.2,1,0.3
	c0.1-0.1,0.2-0.3,0.3-0.3C374.7,280.7,374.1,279.2,373.4,277.9z M421.1,386.9c0,1.7,0.3,3.6,0.8,4.6c0.3,0.7,0.9,1.3,1.6,1.6
	c0.4,0.2,0.9,0.3,1.2-0.4c-0.3-1.3-0.7-2.6-1.3-3.9C423,387.7,422.3,387,421.1,386.9z M374,297.9c0.3,3,5.3,16.5,7.2,19.6
	c0-1.7-0.4-3-0.7-4.2c-1.4-4.3-2.8-8.5-4.2-12.8c-0.3-0.9-0.8-1.7-1.2-2.4C374.9,297.7,374.5,297.5,374,297.9z M394.6,324.2
	c0.3-1.6-0.2-3-0.3-4.4c-0.9-4.1-1.8-8.2-3.2-12.2c-0.8-2.2-1.7-4.3-2.6-6.4c-0.3-0.4-0.4-1-1-1c-0.1,0.1-0.2,0.2-0.2,0.2
	c2.3,7.8,4.7,15.6,7,23.4C394.3,323.9,394.5,324,394.6,324.2z M364.1,288.2c-0.1-1.4-0.5-2.5-1-3.5c-0.3-0.4-0.7-0.7-1.1-1
	c-0.2-0.1-0.4-0.1-0.6,0c-0.1,0.1-0.3,0.3-0.3,0.5c0.3,1,0.6,2.2,1,3.1C362.5,287.9,363,288.5,364.1,288.2z M383.8,288.5
	c0-0.1,0-0.2-0.1-0.2C383.7,288.5,383.8,288.5,383.8,288.5z M371.8,265.3c3.8,7,7.7,14,10.9,21.4c0.3,0.6,0.8,1.1,1.1,1.7
	c-0.2-0.8-0.2-1.7-0.3-2.3c-1.7-5.8-3.8-11.4-6.9-16.6c-1.5-2.7-3.2-5.2-5.2-7.6c-0.6-0.7-1.1-1.4-1.9-1.8c-0.3,0.5-0.1,0.8,0.1,1.1
	C370.2,262.5,371,263.9,371.8,265.3z M417.2,313.8c-0.3,1.8,0.4,11.2,1.2,13.1c0.2-0.4,0.3-1,0.4-1.5c0-2.5,0.1-5,0-7.4
	c-0.1-1.2-0.5-2.4-0.9-3.7C417.9,314,417.7,313.7,417.2,313.8z M226.3,323.5c-0.3-0.2-0.6,0-1,0c0.5,3.3,1.2,4.4,3.3,4.4
	c-0.2-1.6-0.7-3-1.3-3.6C227,324,226.6,323.7,226.3,323.5z M220.6,321.7c-0.3-0.2-0.7-0.2-0.9-0.1c-0.3,0.2-0.4,0.5-0.3,0.8
	c0.2,0.9,0.4,1.7,0.8,2.5c0.3,0.7,0.8,0.9,2.1,0.6c0-1-0.3-2-0.7-2.9C221.3,322.2,221,322,220.6,321.7z M225.5,291.7
	c-0.2-0.3-0.4-0.4-0.7-0.5c-0.2-0.1-0.4,0-0.6,0.1c-0.1,0-0.1,0.3-0.1,0.3c0.7,2,2.1,3.4,4,4.3c0.1,0.1,0.3-0.1,0.7-0.3
	c-0.8-1-1.4-1.9-2.1-2.6C226.4,292.5,225.9,292.1,225.5,291.7z M229.2,290.7c-0.4-0.3-0.9-0.6-1.5-0.2c-0.1,1,0.6,1.6,1.1,2.3
	c1,1.4,2.1,2.2,4,3C231.9,293.5,230.7,291.9,229.2,290.7z M221.6,294.5c-0.2-0.9-0.3-1.7-0.6-2.4c-0.1-0.4-0.4-0.8-0.7-1.1
	c-0.1-0.1-0.4-0.2-0.6-0.1c-0.2,0.1-0.3,0.3-0.3,0.5c-0.2,1,0.3,1.7,0.8,2.4C220.4,294.3,220.6,294.7,221.6,294.5z M208,318.1
	c-0.1,0-0.6,0.3-0.6,0.4c0,1.4,0.3,2.7,1.4,3.7c0.4,0.3,1,0.6,1.6-0.1c-0.3-1-0.4-2.1-1.1-3C209,318.6,208.5,318.4,208,318.1z
	 M214.7,320c-0.2-0.1-0.5-0.2-0.8-0.1c-0.2,0.1-0.4,0.4-0.4,0.7c0,0.5,0.2,1,0.3,1.6c0.3,1.3,1.1,2,2.9,2c-0.2-0.8-0.3-1.3-0.4-2
	C215.9,321.3,215.5,320.6,214.7,320z M424.9,306.3c0-0.6,0-0.9,0-1.2c-0.6-2.8-1.3-5.7-2.4-8.4c-0.4-1.1-1.1-2.1-1.7-3.1
	c-0.3-0.3-0.7-0.4-1-0.7c-0.2,0.3-0.3,0.4-0.3,0.5c1.4,4.1,2.6,8.3,4.6,12.1C424.2,305.8,424.4,305.9,424.9,306.3z M233.4,289.8
	c-0.6-0.3-1.3-0.7-2.1-0.3c0.3,1.1,1,1.7,3.7,4c0.5,0.3,1,1,1.7,0.8C236,292.3,234.7,290.5,233.4,289.8z M429,387.8
	c-0.1,0.3-0.3,0.3-0.3,0.4c0.2,1.5,0.6,3,1.3,4.3c0.2,0.3,0.5,0.7,0.9,1c0.3,0.3,0.8,0.3,1.2-0.2c-0.6-1.7-1.2-3.6-2.4-5.1
	C429.6,388,429.2,387.9,429,387.8z M427.2,384.5c0.4-0.8,0.4-0.9-0.7-2.4C426.3,383.4,426.7,383.9,427.2,384.5z M430.3,308.6
	c0.3-0.8-0.1-1.5-0.3-2.2c-0.9-2.7-1.6-5.5-3.2-7.8c-0.1-0.2-0.3-0.2-0.5-0.3c-0.2,1.8,1.2,6.4,2.8,9.1
	C429.3,307.9,429.5,308.6,430.3,308.6z M237,288.6c0,0.3-0.2,0.8,0,1.1c0.5,1.5,1.6,2.7,3,3.4c0.2,0,0.4-0.1,0.6-0.2
	C239.4,290,238.8,289.2,237,288.6z M241.4,287.8c-0.1,0-0.3,0.3-0.3,0.4c0.2,1,1.4,2.2,2.4,2.3c0.2,0,0.4-0.3,0.6-0.3
	C244,289.1,242.4,287.7,241.4,287.8z M312.1,229.9c-0.2,0.2-0.5,0.4-0.7,0.7c-0.2,0.3,0.3,0.8,0.8,0.9c0.5,0.1,1-0.3,1-0.7
	C313.1,230.3,312.8,229.9,312.1,229.9z M346.6,269.7c0.2,0.1,0.3,0.1,0.4,0c0.1-0.1,0.3-0.4,0.3-0.5c-0.3-0.5-0.5-1-0.9-1.5
	c-0.1-0.1-0.3-0.1-0.4-0.1c-0.1,0.1-0.3,0.2-0.3,0.3C345.6,268.6,345.9,269.3,346.6,269.7z M341,235.7c0.1,0.1,0.1,0.2,0.3,0.3
	c0,0,0.2-0.1,0.3-0.1c0-0.1,0-0.2-0.1-0.2C341.2,235.8,341.2,235.7,341,235.7z M347.8,272.5c0.1,0.8,0.5,1.5,1,2.1
	c0.4,0.4,0.9,0.4,1.4-0.1c0-0.8-0.3-1.5-1-2C348.7,272.1,348.3,271.9,347.8,272.5z M313.4,211.7c5.7,5.6,11.5,11,17.5,16.2
	c2.6,2.3,5.3,4.4,8,6.6c0.6,0.5,1.2,1.1,2.1,1.1c-0.4-0.4-0.8-1-1.2-1.7c-5-4.8-10-9.7-15.1-14.4c-3.3-3.1-6.9-6.1-10.6-8.7
	c-0.5-0.3-1-0.9-1.8-0.8C312.3,210.9,313,211.3,313.4,211.7z M323.6,216.6c4.9,4.3,9.7,8.6,14.6,12.9c2.6,2.3,5.3,4.5,7.9,6.7
	c0.7,0.6,1.4,1.1,2.3,1.3c-0.2-0.4-0.5-0.8-0.8-1c-2.5-2.4-5-4.9-7.6-7.3c-4.4-4.3-8.8-8.6-13.7-12.4c-2-1.5-4.1-3-6.2-4.4
	c-0.7-0.4-1.3-1-2.6-1c0.9,0.8,1.5,1.4,2.1,1.8C321,214.3,322.3,215.4,323.6,216.6z M342.7,272.4c0.3,2.1,0.4,2.4,1,3
	c0.2,0.2,0.6,0.3,0.8,0.3s0.4-0.4,0.4-0.7c-0.1-0.8-0.3-1.7-1-2.2C343.7,272.7,343.3,272.6,342.7,272.4z M346.6,282.2
	c0.2,0.1,0.4,0.2,0.6,0.1c0.2-0.1,0.3-0.3,0.3-0.5c0-1.3-0.3-2.4-1.4-3.3c-0.2-0.2-0.4-0.2-1.2-0.3c0.5,1.5,0.8,2.5,1.2,3.6
	C346.2,281.8,346.4,282.1,346.6,282.2z M329,357.7c-2.3,0.9-4.8,1.7-7.1,2.7c-1.4,0.5-2.6,1.2-3.8,1.9c-0.2,0.1-0.3,0.4-0.4,0.7
	c2.9-0.1,10.4-3.1,12.4-5C329.8,357.4,329.3,357.5,329,357.7z M318,228.6c0-0.3-0.3-0.5-0.5-1c-0.3,0.4-0.5,0.6-0.6,0.8
	c-0.1,0.4,0.2,0.8,0.6,0.8C317.7,229.1,318,228.8,318,228.6z M312.6,223c-0.5,0-1,0.4-1,1c0.1,0.4,0.3,0.7,0.7,0.8
	c0.5,0.1,1.1-0.5,1-1.3C313.2,223.4,313,223.1,312.6,223z M319.4,223.8c0.3,0.2,0.6,0.3,1.3,0.7c-0.3-0.7-0.4-1-0.6-1.1
	c-0.8-0.9-1.6-1.7-2.3-2.4c-3.4-3.4-6.7-6.9-10.4-9.9c-0.7-0.6-1.4-1.1-2.6-1.6C306.2,212,312.6,218.1,319.4,223.8z M305.8,345.4
	c0.7,0.2,1.2-0.2,1.7-0.4c3.6-1.7,7.3-3.5,10.4-6c0.3-0.2,0.4-0.5,0.7-0.9c-1-0.3-1.5,0.3-2,0.6C309,342.8,307.1,344,305.8,345.4z
	 M314.6,233.5c0.3,0.1,0.8-0.3,0.6-0.7c-0.1-0.3-0.3-0.3-0.7-0.7c-0.3,0.4-0.5,0.7-0.5,1C314,233.2,314.4,233.5,314.6,233.5z
	 M315.3,227.3c0.4-0.1,0.7-0.4,0.7-1c-0.1-0.5-0.4-1-0.9-0.9c-0.5,0.1-0.9,0.7-0.6,1.2C314.6,227,314.9,227.4,315.3,227.3z
	 M366.2,295.4c0.2,0,0.5-0.2,0.7-0.3c-0.1-1.6-0.5-3.5-1.7-4.5c-0.1-0.2-0.3-0.3-0.5-0.3c-0.3-0.2-0.8,0.2-0.8,0.5
	c0.2,1.5,0.5,2.9,1.4,4C365.5,295.1,365.9,295.3,366.2,295.4z M368.2,283.6c-0.1,0-0.3,0.3-0.3,0.5c0.3,1.5,0.6,2.8,1.6,3.9
	c0.3,0.4,0.7,0.8,1.5,0.5c-0.1-1.4-1.1-4.1-1.7-4.9c0,0-0.1-0.1-0.2-0.1C368.7,283.6,368.5,283.5,368.2,283.6z M368.3,268.6
	c0.2,0.2,0.4,0.4,0.9,0c-1.7-3.7-3.4-7.4-6-10.6c-0.3-0.3-0.5-0.9-1.6-0.7c1.6,2.8,3,5.5,4.5,8.2
	C366.8,266.5,367.6,267.6,368.3,268.6z M373.8,296.3c0.3-1.3-0.2-3.3-1.1-5c-0.3-0.7-0.8-1.4-2.1-1.7c0.3,2.4,0.9,4.4,1.9,6.1
	C372.8,296,373.2,296.5,373.8,296.3z M361.5,269.4c0.3-0.5-0.1-1-0.3-1.4c-0.3-0.4-0.7-0.7-1.2-1.2c-0.1,0.5-0.2,0.7-0.2,0.8
	c0.1,0.3,0.3,0.7,0.4,1C360.6,269.4,361.3,269.7,361.5,269.4z M370.3,307.7c0.5,1.6,1.1,3.2,1.9,5.2c0.5-1,0.3-1.7,0.1-2.3
	c-1.1-3.1-2.1-6.4-2.9-9.7c-0.3-0.9-0.8-1.7-1.2-2.6c-0.1-0.3-0.5-0.4-0.8-0.6c-0.7,0.8-0.3,1.4-0.1,2
	C368.3,302.4,369.3,305,370.3,307.7z M364.1,274.8c0.2,0,0.3-0.3,0.6-0.4c-0.6-1-0.7-2.3-1.7-3c-0.2-0.1-0.3-0.1-0.4-0.2
	c-0.3-0.1-0.6,0.2-0.6,0.4c0.2,1.1,0.5,2.2,1.4,3C363.5,274.7,363.9,274.8,364.1,274.8z M368,281.8c-0.2-1.6-0.5-2.7-1.2-3.7
	c-0.3-0.5-0.9-0.9-1.3-1.2c-0.3-0.2-0.8,0.1-0.7,0.3c0.3,1.7,0.6,3.3,2.1,4.4C367.2,281.7,367.5,281.7,368,281.8z M348.3,284.8
	c-0.1,0.6-0.2,0.9-0.1,1.1c0.5,2.3,2.5,7.3,3.8,9.1c-0.3-3-1.6-7.1-2.6-8.9C349.2,285.8,348.8,285.4,348.3,284.8z M354.5,269.3
	c0.3-0.1,0.3-0.7,0-1.4c-0.3-0.8-0.8-1.6-2.2-1.8c0.1,1.1,0.3,1.9,0.9,2.6C353.5,269.1,353.9,269.5,354.5,269.3z M359.1,280.4
	c0.2,0.3,0.3,0.5,0.6,0.7c0.4,0.3,1.1,0.4,1.2,0.2c0.2-0.3,0.2-0.7,0.1-1c-0.2-0.6-0.4-1.2-0.8-1.8c-0.3-0.5-0.8-1-1.2-1.3
	c-0.3-0.2-0.7,0-1.4-0.1C358.2,278.4,358.5,279.5,359.1,280.4z M356.6,253.7c-0.2-1.6-0.6-2.3-1.7-3.2
	C354.9,252.2,355.4,253.2,356.6,253.7z M353,281.8c0.3-1.4,0.3-1.7-0.2-2.7c-0.3-0.7-0.8-1.3-1.5-1.6c-0.2-0.1-0.5,0.1-0.8,0.1
	c0.4,2.3,0.7,3,1.5,3.7C352.3,281.5,352.6,281.6,353,281.8z M355.4,271.5c-0.3,0-0.4,0.5-0.2,1.1c0.3,0.4,0.4,1,0.7,1.4
	c0.2,0.3,0.5,0.4,0.9,0.6c0.3,0.2,0.8-0.2,0.8-0.8c-0.1-0.7-0.4-1.6-1.1-2.1C356.2,271.6,355.8,271.5,355.4,271.5z M354,283.8
	c-0.2,0.3-0.4,0.6-0.4,0.6c0.3,1,0.5,2.1,0.9,3c0.2,0.6,0.7,1,1,1.5c0.2,0.2,0.5,0.3,0.6,0.2c0.3-0.2,0.4-0.5,0.4-0.7
	c-0.3-1.6-1-3-1.8-4.3C354.6,283.9,354.4,283.9,354,283.8z"/>
</svg>
