<?xml version="1.0" encoding="utf-8"?>
<svg width="191px" height="256.403px" viewBox="0 0 191 256.403" version="1.1" xmlns:xlink="http://www.w3.org/1999/xlink" xmlns="http://www.w3.org/2000/svg">
  <g id="Группа-4">
    <path d="M95.499 0L95.501 0Q97.8454 0 100.187 0.115033Q102.528 0.230065 104.862 0.459854Q107.195 0.689642 109.514 1.03363Q111.833 1.37762 114.132 1.83499Q116.431 2.29235 118.705 2.86198Q120.979 3.43162 123.223 4.11215Q125.466 4.79269 127.674 5.58248Q129.881 6.37228 132.047 7.26943Q134.213 8.16658 136.332 9.16893Q138.451 10.1713 140.519 11.2764Q142.586 12.3815 144.597 13.5868Q146.608 14.792 148.557 16.0945Q150.507 17.3969 152.39 18.7935Q154.273 20.19 156.085 21.6773Q157.897 23.1645 159.634 24.7389Q161.371 26.3133 163.029 27.971Q164.687 29.6287 166.261 31.3658Q167.835 33.1029 169.323 34.9151Q170.81 36.7273 172.206 38.6103Q173.603 40.4933 174.905 42.4426Q176.208 44.3919 177.413 46.4027Q178.618 48.4135 179.724 50.4811Q180.829 52.5486 181.831 54.6679Q182.833 56.7872 183.731 58.9531Q184.628 61.119 185.417 63.3263Q186.207 65.5337 186.888 67.7771Q187.568 70.0205 188.138 72.2946Q188.708 74.5687 189.165 76.8681Q189.622 79.1674 189.966 81.4864Q190.31 83.8054 190.54 86.1385Q190.77 88.4715 190.885 90.8131Q191 93.1546 191 95.499L191 256.403L0 256.403L0 95.499Q0 93.1546 0.115033 90.8131Q0.230065 88.4715 0.459854 86.1385Q0.689642 83.8054 1.03363 81.4864Q1.37762 79.1674 1.83499 76.8681Q2.29235 74.5687 2.86198 72.2946Q3.43162 70.0205 4.11215 67.7771Q4.79269 65.5337 5.58248 63.3263Q6.37228 61.119 7.26943 58.9531Q8.16658 56.7872 9.16893 54.6679Q10.1713 52.5486 11.2764 50.4811Q12.3815 48.4135 13.5868 46.4027Q14.792 44.3919 16.0945 42.4426Q17.3969 40.4933 18.7935 38.6103Q20.19 36.7273 21.6773 34.9151Q23.1645 33.1029 24.7389 31.3658Q26.3133 29.6287 27.971 27.971Q29.6287 26.3133 31.3658 24.7389Q33.1029 23.1645 34.9151 21.6773Q36.7273 20.19 38.6103 18.7935Q40.4933 17.3969 42.4426 16.0945Q44.3919 14.792 46.4027 13.5868Q48.4135 12.3815 50.4811 11.2764Q52.5486 10.1713 54.6679 9.16893Q56.7872 8.16658 58.9531 7.26943Q61.119 6.37228 63.3263 5.58248Q65.5337 4.79269 67.7771 4.11215Q70.0205 3.43162 72.2946 2.86199Q74.5687 2.29235 76.8681 1.83499Q79.1674 1.37762 81.4864 1.03363Q83.8054 0.689642 86.1385 0.459854Q88.4715 0.230065 90.8131 0.115033Q93.1546 0 95.499 0Z" id="Прямоугольник-13" fill="#F5E7E8" fill-rule="evenodd" stroke="none" />
    <g id="Группа-3" transform="translate(8.454712 9.66571)">
      <path d="M172.537 236.898L3.41492 236.898L3.41492 85.7763L9.37642 85.7763L9.37642 231.11L166.575 231.11L166.575 85.7763L172.537 85.7763L172.537 236.898ZM0.926064 72.8114L7.81364 79.5254L7.81364 79.5254L0.231512 78.5993L0 80.683L11.0549 82.072L11.2864 80.0463L4.39879 73.3902L4.39879 73.3902L12.0388 74.3163L12.2703 72.2327L1.21546 70.8436L0.926064 72.8114L0.926064 72.8114ZM10.5339 57.7631C7.40844 56.837 4.28299 58.5155 3.29904 61.6988C2.37298 64.8243 4.05146 68.0076 7.11905 68.9337C10.1866 69.8598 13.37 68.1813 14.3539 64.9979C15.28 61.8725 13.6015 58.6891 10.5339 57.7631L10.5339 57.7631ZM12.5597 64.4769C11.9231 66.6763 9.72369 67.5445 7.75581 66.9078C5.78794 66.329 4.45672 64.419 5.09339 62.2196C5.73006 60.0202 7.92944 59.152 9.89732 59.7887C11.9231 60.3675 13.2543 62.2775 12.5597 64.4769L12.5597 64.4769ZM8.10303 49.7757L15.8588 59.2099L16.9006 57.0684L15.28 55.1005L17.5951 50.3545L20.1418 50.4702L21.1836 48.3287L8.97119 47.9814L8.10303 49.7757L8.10303 49.7757ZM11.0549 50.1231L15.6852 50.2389L14.0068 53.6537L11.0549 50.1231L11.0549 50.1231L11.0549 50.1231ZM16.9586 35.1325L20.7207 37.7949L17.6531 42.1358L13.891 39.4734L12.6755 41.1519L21.7625 47.5764L22.978 45.8979L19.158 43.1776L22.2255 38.8367L26.0455 41.557L27.261 39.8785L18.174 33.454L16.9586 35.1325L16.9586 35.1325ZM25.9298 24.9458L29.2289 28.1291L25.5246 31.9491L22.2255 28.7658L20.7786 30.2706L28.7658 38.0264L30.2128 36.5215L26.8558 33.2803L30.5601 29.4603L33.917 32.7015L35.364 31.1967L27.3767 23.4409L25.9298 24.9458L25.9298 24.9458ZM34.4958 17.4794C31.8334 19.4473 31.3125 22.9779 33.2803 25.5824C35.2482 28.187 38.7788 28.65 41.4412 26.6821C44.1037 24.7143 44.6246 21.1837 42.6567 18.5791C40.6888 15.9746 37.1003 15.5115 34.4958 17.4794L34.4958 17.4794ZM40.2836 25.2351C38.4315 26.6242 36.1742 25.9875 34.9588 24.3091C33.6854 22.6306 33.8012 20.3154 35.5954 18.9263C37.4476 17.5372 39.7048 18.1739 40.9203 19.7945C42.1936 21.5309 42.0779 23.846 40.2836 25.2351L40.2836 25.2351ZM44.9139 17.9424L45.7821 19.563L51.0491 16.6691L50.1809 15.0485L44.9139 17.9424L44.9139 17.9424ZM59.4416 4.39876C56.6055 5.44058 55.1007 8.21876 55.6795 10.9969L54.2904 11.5178L52.6698 7.11906L50.7019 7.81361L54.464 18.2897L56.4319 17.5951L54.8113 13.1385L56.2004 12.6175C57.5316 15.1642 60.4834 16.3218 63.3195 15.28C66.387 14.1803 67.9498 10.9391 66.8501 7.87148C65.7504 4.80391 62.5092 3.29906 59.4416 4.39876L59.4416 4.39876ZM62.6827 13.4858C60.5412 14.2382 58.5733 13.0228 57.8788 11.0549C57.1842 9.08703 57.9367 6.88764 60.0782 6.13521C62.2197 5.38279 64.2455 6.59824 64.94 8.56612C65.6345 10.534 64.8821 12.7334 62.6827 13.4858L62.6827 13.4858ZM72.7536 1.27343L68.4706 2.02586L70.3806 12.9649L72.4063 12.6177L71.7118 8.79768L73.9112 8.39253C75.7633 8.04525 77.6733 6.65616 77.2681 4.1095C76.863 1.56283 74.6057 0.984035 72.7536 1.27343L72.7536 1.27343ZM73.5061 6.65611L71.4803 7.00338L70.8436 3.47277L72.8694 3.1255C74.4321 2.83611 75.1267 3.53065 75.3003 4.51459C75.474 5.49853 75.0688 6.36671 73.5061 6.65611L73.5061 6.65611ZM84.2715 3.99357L82.0142 4.10932L81.8406 0.231445L79.757 0.347201L80.2779 11.4599L84.6188 11.2284C86.5288 11.1127 88.6124 10.013 88.4967 7.40842C88.323 4.86175 86.1815 3.87781 84.2715 3.99357L84.2715 3.99357ZM84.3294 9.3764L82.2458 9.49216L82.0721 5.90367L84.1558 5.78792C85.7764 5.73004 86.2973 6.48246 86.3552 7.4664C86.413 8.50822 85.8921 9.31852 84.3294 9.3764L84.3294 9.3764ZM90.2332 11.0548L98.3362 11.6915L98.4519 9.89727L92.4326 9.43424L92.6641 6.59818L98.3362 7.06121L98.4519 5.26697L92.7798 4.80394L93.0113 2.02575L98.9729 2.48879L99.0886 0.694544L91.1013 0L90.2332 11.0548L90.2332 11.0548ZM106.96 2.02573L102.619 1.09967L100.304 11.9809L104.992 12.9648C107.076 13.4278 109.159 13.0227 109.622 10.8233C109.97 9.2027 108.928 8.27664 108.233 7.81361L108.233 7.81361C108.986 7.58209 109.97 7.11907 110.259 5.84573C110.78 3.58846 108.754 2.43088 106.96 2.02573L106.96 2.02573ZM107.655 10.3025C107.481 11.2286 106.729 11.5758 105.282 11.2864L102.735 10.7655L103.372 7.87158L105.976 8.45037C107.192 8.62401 107.828 9.37643 107.655 10.3025L107.655 10.3025ZM108.233 5.61431C108.06 6.42461 107.249 6.82976 106.034 6.59824L103.719 6.07733L104.298 3.24127L106.497 3.7043C107.828 4.05158 108.407 4.57249 108.233 5.61431L108.233 5.61431ZM116.105 14.5854C113.963 13.7751 113.211 11.5757 113.905 9.60784C114.6 7.63996 116.626 6.42451 118.767 7.23481C119.925 7.63996 120.619 8.45027 121.14 9.7236L122.992 8.79754C122.298 7.23482 120.967 6.07724 119.404 5.49846C116.336 4.39876 113.037 5.84573 111.938 8.9133C110.838 11.9809 112.343 15.2221 115.468 16.3218C116.973 16.8427 118.883 16.8427 120.33 16.0903L119.578 14.2382C118.362 14.8748 117.262 14.9906 116.105 14.5854L116.105 14.5854ZM134.453 12.8491L132.022 11.5758L126.002 13.6015L128.202 9.49212L126.349 8.50818L121.14 18.3476L122.993 19.3315L124.729 16.0903L126.234 15.5694L127.218 21.5309L129.475 22.7464L128.259 14.9906L134.453 12.8491L134.453 12.8491ZM143.424 19.2158L134.221 21.9361L134.221 21.9361L138.793 15.8009L137.115 14.5854L130.459 23.4988L132.079 24.7142L141.282 21.9939L141.282 21.9939L136.71 28.1291L138.388 29.3445L145.044 20.4312L143.424 19.2158L143.424 19.2158ZM153.61 28.7657L144.06 29.9812L144.06 29.9812L149.559 24.6563L148.112 23.1515L140.182 30.9072L141.571 32.3542L151.121 31.1388L151.121 31.1388L145.623 36.5215L147.07 38.0263L154.999 30.2706L153.61 28.7657L153.61 28.7657ZM155.752 26.2769L155.347 24.9457C154.363 25.3509 153.9 25.4087 153.379 24.83C152.8 24.2512 152.858 23.846 153.321 22.8621L152.048 22.399C151.411 23.7303 151.411 24.7142 152.453 25.756C153.495 26.7978 154.421 26.7978 155.752 26.2769L155.752 26.2769ZM165.013 44.2774L163.623 42.1937L158.935 41.9043L160.556 37.5055L159.167 35.364L156.794 41.9622L149.848 41.3834L151.237 43.5249L155.926 43.8722L154.363 48.3289L155.752 50.4704L158.009 43.8722L165.013 44.2774L165.013 44.2774ZM161.598 53.8273C162.408 55.5637 164.26 57.0107 166.633 55.911C169.006 54.8113 169.006 52.4382 168.196 50.7019L166.344 46.7661L156.273 51.5122L157.141 53.4222L160.671 51.8016L161.598 53.8273L161.598 53.8273ZM165.533 49.4864L166.402 51.3385C167.096 52.7855 166.575 53.5958 165.707 54.0009C164.839 54.4061 163.855 54.2903 163.16 52.8434L162.292 50.9912L165.533 49.4864L165.533 49.4864ZM171.784 59.9045L159.63 58.3997L160.324 60.6569L162.813 60.9463L164.376 65.9818L162.466 67.6603L163.16 69.9175L172.247 61.7566L171.784 59.9045L171.784 59.9045ZM165.938 64.7664L164.781 61.1201L169.353 61.641L169.353 61.6988L165.938 64.7664L165.938 64.7664ZM175.72 78.9467L169.353 75.9948L169.353 75.9948L174.794 71.5382L174.505 69.4545L163.45 70.9015L163.739 72.9851L171.032 72.0591L171.032 72.0591L165.881 76.2842L165.939 76.6894L172.016 79.4676L172.016 79.4676L164.723 80.3936L165.013 82.4773L176.067 81.0303L175.72 78.9467L175.72 78.9467Z" id="Group" fill="#1E1E2F" fill-rule="evenodd" stroke="none" />
      <g id="Group" transform="translate(19.447144 20.31549)">
        <path d="M128.375 72.4063C121.719 61.2936 109.391 55.4478 97.1206 56.2002C96.9469 56.2002 96.7733 56.2002 96.5997 56.2581C96.5418 56.2581 96.4839 56.2581 96.4839 56.2581C74.5478 57.8787 54.5218 77.6154 42.7145 82.6508C30.3863 87.9178 14.6433 90.9854 3.00964 83.9242L3.00964 129.822L133.931 129.822L133.931 91.159C134.279 84.7924 131.906 78.252 128.375 72.4063L128.375 72.4063Z" id="Фигура" fill="#87CEF2" fill-rule="evenodd" stroke="none" />
        <path d="M42.6566 82.651C48.0972 80.3358 55.2742 74.8373 63.6087 69.5125C56.8948 64.9401 48.676 62.2776 39.8784 62.2776C23.9039 62.2776 10.013 71.0752 3.00964 84.0401C14.6433 90.9277 30.3863 87.918 42.6566 82.651L42.6566 82.651Z" id="Фигура" fill="#9BD4F3" fill-rule="evenodd" stroke="none" />
        <path d="M3.18335 84.04L3.76214 84.6188C3.76214 84.04 3.18335 84.04 3.18335 84.04L3.18335 84.04ZM79.4097 3.70422C76.5736 3.29907 73.7376 3.12543 70.8437 3.12543L66.2712 3.12543C44.6824 3.12543 25.6982 13.9488 14.2961 30.4442C7.29275 40.573 3.18335 52.9012 3.18335 66.1554L3.18335 83.6927C10.1867 70.9015 24.0197 62.1618 39.8785 62.1618C48.6761 62.1618 56.8949 64.8242 63.6088 69.3966C71.0752 64.5927 79.4097 59.9045 88.2073 57.5315C88.1494 57.5315 88.0337 57.5894 87.9758 57.5894C90.7539 56.8369 93.59 56.316 96.4261 56.0845C96.484 56.0845 96.5418 56.0845 96.5418 56.0845C96.7155 56.0845 96.8891 56.0845 97.0627 56.0266C109.391 55.2742 121.661 61.1778 128.317 72.2327C131.327 77.2681 133.526 82.7666 133.816 88.2651L133.816 66.0397C133.874 34.2642 110.201 7.87149 79.4097 3.70422L79.4097 3.70422Z" id="Фигура" fill="#C7E4EE" fill-rule="evenodd" stroke="none" />
        <path d="M136.826 135.494L0.0579834 135.494L0.0579834 141.514L136.826 141.514L136.826 135.494L136.826 135.494Z" id="Фигура" fill="#1E1E2F" fill-rule="evenodd" stroke="none" />
        <path d="M47.75 159.572L6.19304 186.659L6.19304 147.012L0 147.012L0 201.245L6.19304 201.245L6.19304 193.952L47.75 166.865L47.75 201.302L53.8852 201.302L53.8852 147.012L47.6921 147.012L47.6921 159.572L47.75 159.572L47.75 159.572ZM105.803 144.002C94.9792 144.002 85.4292 149.501 79.9307 157.778L66.2713 157.778L66.2713 147.012L60.0782 147.012L60.0782 201.245L66.2713 201.245L66.2713 163.797L76.8631 163.797C75.6476 167.038 75.011 170.511 75.011 174.157C75.011 190.768 88.844 204.254 105.86 204.254C122.877 204.254 136.71 190.768 136.71 174.157C136.652 157.488 122.819 144.002 105.803 144.002L105.803 144.002ZM105.803 198.235C92.201 198.235 81.0883 187.412 81.0883 174.157C81.0883 160.845 92.1431 150.08 105.803 150.08C119.404 150.08 130.517 160.903 130.517 174.157C130.517 187.412 119.404 198.235 105.803 198.235L105.803 198.235Z" id="Фигура" fill="#1E1E2F" fill-rule="evenodd" stroke="none" />
        <path d="M115.41 116.741L115.931 116.741C115.931 116.741 120.099 111.474 118.478 103.95C116.857 96.426 109.217 93.2427 109.217 93.2427C109.217 93.2427 103.198 90.8117 99.6673 86.2393C96.1367 81.6669 96.0788 78.7151 96.0788 78.7151C96.0788 78.7151 96.0209 81.7248 92.4903 86.2393C91.1012 88.0336 89.307 89.5384 87.6285 90.6381C87.5706 89.3069 87.4549 87.9757 87.1655 86.5287C85.024 76.3999 74.7216 72.1169 74.7216 72.1169C74.7216 72.1169 66.5606 68.8178 61.8146 62.7405C57.0685 56.6633 56.9528 52.6118 56.9528 52.6118C56.9528 52.6118 56.8949 56.6633 52.091 62.7405C47.287 68.8178 39.184 72.1169 39.184 72.1169C39.184 72.1169 28.8816 76.4578 26.7401 86.5287C24.5985 96.6575 30.1549 103.777 30.1549 103.777L30.6179 103.777L3.06763 121.198L3.06763 129.764L133.816 129.764L133.816 123.803L115.41 116.741L115.41 116.741Z" id="Фигура" fill="#F5E7E8" fill-rule="evenodd" stroke="none" />
        <path d="M97.9889 9.26062C91.3328 14.2961 87.0498 22.1097 87.0498 30.9652C87.0498 46.1294 99.6095 58.3997 115.121 58.3997C121.603 58.3997 127.565 56.2582 132.311 52.6697C128.202 33.4539 115.295 17.5373 97.9889 9.26062L97.9889 9.26062Z" id="Фигура" fill="#FDCC56" fill-rule="evenodd" stroke="none" />
        <path d="M87.86 116.163C86.1816 116.163 84.7925 117.552 84.7925 119.23L84.7925 129.822L90.9276 129.822L90.9276 119.23C90.9276 117.494 89.5385 116.163 87.86 116.163L87.86 116.163ZM100.188 120.735C98.5098 120.735 97.1207 122.124 97.1207 123.803L97.1207 129.764L103.256 129.764L103.256 123.803C103.256 122.124 101.867 120.735 100.188 120.735L100.188 120.735ZM112.516 125.597C110.838 125.597 109.449 126.986 109.449 128.665L109.449 129.764L115.584 129.764L115.584 128.665C115.584 126.986 114.195 125.597 112.516 125.597L112.516 125.597ZM75.5898 111.417C73.9113 111.417 72.5222 112.806 72.5222 114.484L72.5222 129.764L78.6574 129.764L78.6574 114.484C78.6574 112.806 77.2683 111.417 75.5898 111.417L75.5898 111.417ZM136.941 66.1554C136.941 29.6918 107.249 0 70.7859 0L66.2134 0C29.7498 0 0.0579834 29.6918 0.0579834 66.1554L0.0579834 129.764L6.19314 129.764L6.19314 122.877L47.8659 96.4839L47.8659 103.661L6.59828 129.706L18.0583 129.706L47.8658 110.896L47.8658 129.706L54.001 129.706L54.001 96.6576L130.864 125.886L130.864 129.764L136.999 129.764L136.941 66.1554L136.941 66.1554ZM98.452 12.907C113.443 20.7206 124.729 34.6694 129.012 51.3964C124.96 54.0009 120.214 55.39 115.295 55.39C101.462 55.39 90.2332 44.4509 90.2332 30.9652C90.2332 24.0197 93.185 17.5373 98.452 12.907L98.452 12.907ZM71.5382 7.23486C72.2906 6.94547 73.0431 6.59819 73.8534 6.3088C73.9112 6.3088 73.9691 6.25092 74.027 6.25092C80.5673 6.59819 86.8182 7.98728 92.6061 10.2445C87.2234 15.8588 84.2137 23.1515 84.2137 30.9652C84.2137 41.0361 89.1912 49.9494 96.8891 55.5058L96.8312 55.5058L96.4839 55.5058C93.9373 55.6794 91.3327 56.1424 88.6124 56.837C88.323 56.4318 88.0336 56.0267 87.6864 55.6794C87.6285 55.6215 87.6285 55.5636 87.5706 55.5058C87.1654 54.9849 86.7603 54.5218 86.3551 54.0588C86.1815 53.8273 86.0079 53.6536 85.8342 53.4221C85.6027 53.1327 85.3712 52.9012 85.1397 52.6118C84.9082 52.3224 84.6767 52.0909 84.4451 51.8594C84.2715 51.6858 84.0979 51.5121 83.9242 51.2806C83.6348 50.9912 83.3454 50.7018 83.1139 50.4124C83.056 50.3545 82.9403 50.2388 82.8824 50.1809C79.4097 46.5924 75.5318 43.3512 71.3645 40.573C71.3067 40.5152 71.2488 40.5152 71.1909 40.4573C70.7858 40.1679 70.3227 39.8785 69.9176 39.647C69.8018 39.5891 69.6861 39.5312 69.5703 39.4155C69.1651 39.184 68.76 38.8946 68.3548 38.663C68.0654 38.4894 67.8339 38.3158 67.5445 38.2C67.1973 37.9685 66.7921 37.737 66.387 37.5633C65.9239 37.3318 65.5188 37.0424 65.0558 36.8109C64.94 36.753 64.8242 36.6952 64.7085 36.6373C64.1876 36.3479 63.6088 36.0585 63.0879 35.827C63.0879 35.827 63.03 35.827 63.03 35.7691C62.0461 35.2482 61.0042 34.7852 60.0203 34.3221L60.0203 32.2964L55.0427 32.2964C51.107 30.8494 46.9976 29.8076 42.8303 29.0552C43.004 28.8236 43.1776 28.5921 43.4091 28.3606C43.6985 28.0133 43.9879 27.6661 44.2194 27.3188C44.5667 26.9136 44.8561 26.5664 45.2034 26.1612C45.4927 25.8139 45.7821 25.4667 46.0715 25.1773C46.4188 24.7721 46.7661 24.4249 47.1133 24.0776C47.4027 23.7303 47.6921 23.4409 48.0394 23.0936C48.3867 22.7464 48.734 22.3991 49.1391 21.994C49.4285 21.7046 49.7758 21.3573 50.0652 21.0679C50.4124 20.7206 50.8176 20.3733 51.1649 20.0261C51.5121 19.7367 51.8015 19.4473 52.1488 19.1579C52.554 18.8106 52.9012 18.5212 53.3064 18.1739C53.6537 17.8846 54.0009 17.5952 54.3482 17.3636C54.7534 17.0164 55.1585 16.727 55.5637 16.4376C55.9109 16.1482 56.2582 15.9167 56.6055 15.6273C57.0106 15.3379 57.4736 15.0485 57.8788 14.7012C58.2261 14.4697 58.5734 14.1803 58.9206 13.9488C59.3836 13.6594 59.7888 13.37 60.2518 13.0806C60.5991 12.8491 60.9464 12.6176 61.3515 12.3861C61.8145 12.0967 62.2776 11.8073 62.7406 11.5758C63.0879 11.3443 63.4352 11.1706 63.8403 10.9391C64.3033 10.6497 64.8242 10.4182 65.2873 10.1288C65.6345 9.95516 65.9818 9.72365 66.3291 9.55001C66.85 9.26062 67.3709 9.02911 67.8918 8.79759C68.2391 8.62395 68.5864 8.45031 68.8758 8.27668C69.4545 7.98729 70.0333 7.75578 70.6121 7.52426C70.9594 7.46637 71.2488 7.35062 71.5382 7.23486L71.5382 7.23486ZM60.1362 52.496L60.1362 43.8142L66.3293 43.8142L66.3293 39.0103C66.445 39.0681 66.6187 39.1839 66.7344 39.2418C67.9499 39.9363 69.1075 40.6887 70.3229 41.4412L70.3808 41.499C70.8438 41.7884 71.3069 42.1357 71.7699 42.4251C74.5481 44.393 77.2105 46.5345 79.6993 48.9075C79.7572 48.9654 79.7572 48.9654 79.8151 49.0233C80.1623 49.3706 80.5675 49.7178 80.9147 50.0651C80.9726 50.123 81.0884 50.2387 81.1463 50.2966C81.4935 50.6439 81.7829 50.9912 82.1302 51.2806C82.246 51.3963 82.3617 51.5121 82.4775 51.6278C82.7669 51.9751 83.1142 52.2645 83.4035 52.6118C83.5193 52.7854 83.6929 52.9012 83.8087 53.0748C84.2139 53.5378 84.619 54.0009 85.0242 54.4639C85.2557 54.7533 85.5451 55.1006 85.7766 55.39C85.9502 55.5636 86.066 55.7951 86.2396 55.9687C86.4711 56.2581 86.7605 56.6054 86.992 56.8948C87.0499 56.9527 87.1078 57.0684 87.1656 57.1263C80.6254 58.9784 74.4902 62.1039 69.1653 65.2293C67.429 64.0139 65.6926 62.4512 64.3035 60.6569C60.3678 55.6215 60.1362 52.3803 60.1362 52.3224L60.1362 52.496L60.1362 52.496ZM60.0782 37.9685L60.0782 35.8848C61.2937 36.4636 62.5092 37.0424 63.6667 37.6212C63.7825 37.6791 63.8983 37.7369 63.9561 37.7948C64.0719 37.8527 64.2455 37.9685 64.3613 38.0263L60.0782 37.9685L60.0782 37.9685L60.0782 37.9685ZM66.2134 6.13519L70.3807 6.13519C69.6861 6.42459 68.9916 6.71398 68.297 7.06126C68.0076 7.17701 67.7182 7.35065 67.4288 7.46641C66.8501 7.7558 66.3291 7.98731 65.7504 8.27671C65.4031 8.45034 65.0558 8.62398 64.7085 8.79761C64.1876 9.08701 63.7246 9.31852 63.2037 9.60791C62.8564 9.78155 62.5091 10.0131 62.1619 10.2446C61.6989 10.534 61.2358 10.7655 60.7728 11.0549C60.4255 11.2864 60.0782 11.5179 59.731 11.6916C59.268 11.9809 58.8628 12.2703 58.3998 12.5597C58.0525 12.7912 57.7052 13.0228 57.358 13.2543C56.8949 13.5437 56.4898 13.8909 56.0846 14.1803C55.7374 14.4119 55.3901 14.7012 55.1007 14.9328C54.6955 15.28 54.2325 15.5694 53.8273 15.9167C53.4801 16.1482 53.1907 16.4376 52.8434 16.6691C52.4382 17.0164 52.0331 17.3637 51.6279 17.7109C51.3385 18.0003 50.9913 18.2319 50.7019 18.5212C50.2967 18.8685 49.8916 19.2737 49.4864 19.6788C49.197 19.9682 48.9076 20.1997 48.6182 20.4891C48.1552 20.8943 47.7501 21.3573 47.3449 21.7625C47.1134 21.994 46.8819 22.2255 46.6503 22.457C46.1294 23.0358 45.5506 23.6146 45.0297 24.1934C44.914 24.3091 44.7982 24.4249 44.6825 24.5406C44.0458 25.2352 43.467 25.9876 42.8303 26.6822C42.6567 26.9137 42.4831 27.1452 42.3094 27.3767C41.9622 27.8397 41.557 28.3028 41.2097 28.7658C39.0682 28.4185 36.8688 28.2449 34.7273 28.0712C34.4958 28.0712 34.3222 28.0712 34.0906 28.0134C33.6855 28.0134 33.3382 27.9555 32.9331 27.9555C32.5858 27.9555 32.2964 27.9555 31.9491 27.8976C31.6597 27.8976 31.4282 27.8976 31.1388 27.8976C30.8494 27.8976 30.56 27.8976 30.2706 27.8976C29.2867 27.8976 28.3028 27.8976 27.3767 27.9555C27.2031 27.9555 26.9715 27.9555 26.7979 27.9555C26.4506 27.9555 26.0455 28.0134 25.6982 28.0134C25.4667 28.0134 25.1773 28.0712 24.9458 28.0712C24.5985 28.0712 24.2512 28.1291 23.904 28.1291C23.5567 28.187 23.1516 28.187 22.8043 28.2449C22.3991 28.3028 22.0519 28.3028 21.6467 28.3606C21.2416 28.4185 20.8364 28.4764 20.4313 28.5343C20.1997 28.5922 19.9682 28.5922 19.7367 28.65C19.5631 28.65 19.4473 28.7079 19.2737 28.7079C30.3285 15.0485 47.2291 6.13519 66.2134 6.13519L66.2134 6.13519ZM6.25098 66.1554C6.25098 52.7854 10.6498 40.3994 18.0582 30.4442C18.1161 30.4442 18.174 30.4442 18.2319 30.3863C18.5213 30.3284 18.8107 30.2706 19.1001 30.2706C19.3895 30.2127 19.6788 30.1548 19.9682 30.1548C20.3155 30.0969 20.6049 30.0391 20.9522 30.0391C21.1837 29.9812 21.4152 29.9812 21.6467 29.9812C22.0519 29.9233 22.3992 29.8654 22.8043 29.8654C22.9201 29.8654 23.0358 29.8654 23.1516 29.8075C25.2352 29.576 27.3767 29.4603 29.5183 29.4603C29.5761 29.4603 29.634 29.4603 29.7498 29.4603C30.2128 29.4603 30.6758 29.4603 31.1389 29.4603C31.3125 29.4603 31.4861 29.4603 31.6598 29.4603C32.0649 29.4603 32.4701 29.4603 32.8752 29.5181C33.1646 29.5181 33.454 29.5181 33.7434 29.576C34.0328 29.576 34.3801 29.576 34.6695 29.6339C41.3255 30.0391 47.808 31.3703 54.001 33.5118L54.001 38.0842L47.8079 38.0842L47.8079 43.93L54.001 43.93L54.001 52.6118L53.8273 52.6118L53.8273 52.5539C53.8273 52.6118 53.538 55.853 49.6601 60.8885C49.2549 61.4094 48.7919 61.9303 48.3289 62.4512C45.6086 61.9303 42.8304 61.6409 40.0522 61.6409C26.6243 61.6409 14.2383 67.8339 6.30888 78.0784L6.30888 66.1554L6.25098 66.1554L6.25098 66.1554ZM6.25098 115.642L6.25098 86.2394C11.7495 88.5545 17.6531 89.0176 23.3252 88.4967C22.6307 94.9791 24.5986 100.13 26.1034 103.082L6.25098 115.642L6.25098 115.642ZM23.7305 85.8922C23.6148 86.2973 23.5569 86.7603 23.499 87.1655C19.1002 87.5707 14.4699 87.4549 10.0133 86.2394C10.0133 86.2394 10.0133 86.2394 9.95538 86.2394C9.49235 86.1237 9.08719 86.0079 8.62417 85.8343L8.56629 85.8343C8.16113 85.7185 7.75599 85.5449 7.29295 85.3713C7.23507 85.3713 7.23507 85.3134 7.17718 85.3134C6.82991 85.1976 6.48263 85.024 6.19324 84.9082L6.19324 80.3937C13.7754 69.5704 26.335 62.9722 39.9366 62.9722C42.3096 62.9722 44.6826 63.2037 46.9978 63.551C42.9463 67.1394 38.0844 69.2231 37.9687 69.2231C37.5635 69.3967 26.2193 74.2585 23.7305 85.8922L23.7305 85.8922ZM73.1589 97.4679L53.1907 89.8857C50.7598 88.9597 48.0395 89.2491 45.8401 90.6382L31.4862 99.7251C30.9652 98.6833 30.4443 97.3521 30.0392 95.7315C31.081 93.6479 36.6952 84.1557 51.2228 86.7024C59.7889 88.2073 65.8661 87.3391 69.3389 84.0979C71.5383 82.0142 72.0013 79.5833 72.0592 78.1942L65.924 78.1942C65.8661 78.5994 65.6346 79.1782 65.0558 79.6991C64.1298 80.5094 61.0622 82.1879 52.3225 80.683C42.6568 79.0045 35.3062 81.667 30.3286 85.8342C32.7016 78.4836 40.4574 75.0688 40.5152 75.0688C40.8625 74.8951 49.4865 71.3645 54.6955 64.7085C55.6216 63.493 56.374 62.3933 57.0686 61.3515C57.7053 62.3933 58.4577 63.5509 59.4416 64.7085C64.6507 71.3645 73.2746 74.953 73.6219 75.0688C73.7377 75.1267 82.4195 78.8309 84.2137 87.2812C84.3295 87.9179 84.4452 88.4967 84.5031 89.0754C82.9983 89.9436 81.8986 90.4066 81.8407 90.4066C81.4356 90.4645 76.458 92.6061 73.1589 97.4679L73.1589 97.4679ZM114.426 113.153L79.2939 99.8409C81.4355 97.41 84.0979 96.2524 84.0979 96.2524C84.3873 96.1367 90.9855 93.4164 94.9791 88.2652C95.3842 87.7443 95.7315 87.2234 96.0788 86.7603C96.4261 87.2233 96.7733 87.7443 97.1785 88.2652C101.172 93.4164 107.77 96.1367 108.002 96.1946C108.06 96.1946 114.137 98.9149 115.352 104.645C116.163 108.349 115.237 111.359 114.426 113.153L114.426 113.153ZM130.806 119.346L120.272 115.352C121.488 112.632 122.587 108.407 121.546 103.314C119.636 94.2845 110.838 90.5224 110.433 90.3487C110.375 90.3487 105.108 88.1494 102.156 84.3293C99.6095 81.0881 99.2622 78.9466 99.2044 78.6572L99.2044 78.1942L92.8956 78.1942L92.8956 78.7151C92.8377 79.236 92.3168 81.3196 90.0016 84.3293C89.9438 84.3872 89.8859 84.4451 89.8859 84.503C86.8762 73.9112 76.4001 69.3966 75.9371 69.1651C75.8792 69.1651 73.3904 68.1233 70.4386 66.1554C75.7635 63.0878 81.8407 60.0781 88.2653 58.3418C91.1013 57.5893 93.9374 57.0684 96.5998 56.8948L96.9471 56.8948C97.0628 56.8948 97.1786 56.8948 97.2944 56.8948C97.8153 56.8369 98.394 56.8369 98.9149 56.8369C103.661 59.7309 109.275 61.4093 115.295 61.4093C115.642 61.4093 115.989 61.4093 116.336 61.4093C121.083 64.1875 125.076 68.0654 127.912 72.7536C129.07 74.6636 130.054 76.5736 130.864 78.4836L130.864 119.346L130.806 119.346L130.806 119.346ZM130.806 75.1846C130.285 74.1428 129.706 73.101 129.07 72.0592C126.465 67.7182 122.877 64.0719 118.709 61.2358C122.761 60.8307 126.639 59.5573 130.227 57.6473C130.633 60.4255 130.806 63.2616 130.806 66.1555L130.806 75.1846L130.806 75.1846ZM63.2615 106.844C61.5831 106.844 60.194 108.233 60.194 109.912L60.194 129.822L66.3291 129.822L66.3291 109.912C66.3291 108.233 64.9979 106.844 63.2615 106.844L63.2615 106.844Z" id="Фигура" fill="#1E1E2F" fill-rule="evenodd" stroke="none" />
      </g>
    </g>
  </g>
</svg>