<?xml version="1.0" encoding="utf-8"?>
<svg width="28.376404px" height="42px" viewBox="0 0 28.376404 42" version="1.1" xmlns:xlink="http://www.w3.org/1999/xlink" xmlns="http://www.w3.org/2000/svg">
  <g id="Группа-2-Copy">
    <g id="Группа" transform="translate(0.08262857 0)">
      <path d="M26.3973 14.8886C25.0287 12.6036 22.4937 11.4015 19.9706 11.5562C19.9349 11.5562 19.8992 11.5562 19.8635 11.5681C19.8516 11.5681 19.8397 11.5681 19.8397 11.5681C15.329 11.9014 11.2112 15.9597 8.78327 16.9952C6.24828 18.0782 3.0111 18.709 0.618918 17.257L0.618918 26.6948L27.5399 26.6948L27.5399 18.7447C27.6113 17.4355 27.1233 16.0907 26.3973 14.8886L26.3973 14.8886Z" id="Фигура" fill="#87CEF2" fill-rule="evenodd" stroke="none" />
      <path d="M8.77137 16.9952C9.8901 16.5191 11.3659 15.3885 13.0797 14.2936C11.6991 13.3534 10.0091 12.8059 8.2001 12.8059C4.91532 12.8059 2.05899 14.6149 0.618918 17.2808C3.0111 18.6971 6.24827 18.0782 8.77137 16.9952L8.77137 16.9952Z" id="Фигура" fill="#9BD4F3" fill-rule="evenodd" stroke="none" />
      <path d="M0.654558 17.2808L0.773571 17.3998C0.773571 17.2808 0.654558 17.2808 0.654558 17.2808L0.654558 17.2808ZM16.3287 0.761683C15.7455 0.678374 15.1623 0.642669 14.5673 0.642669L13.6271 0.642669C9.18785 0.642669 5.2842 2.86823 2.93963 6.26012C1.49956 8.34287 0.654558 10.8779 0.654558 13.6033L0.654558 17.2094C2.09463 14.5792 4.93906 12.7821 8.20004 12.7821C10.009 12.7821 11.699 13.3295 13.0796 14.2698C14.6149 13.2819 16.3287 12.3179 18.1377 11.83C18.1258 11.83 18.102 11.8419 18.0901 11.8419C18.6614 11.6872 19.2445 11.58 19.8277 11.5324C19.8396 11.5324 19.8515 11.5324 19.8515 11.5324C19.8872 11.5324 19.9229 11.5324 19.9586 11.5205C22.4936 11.3658 25.0167 12.5798 26.3854 14.8529C27.0042 15.8883 27.4565 17.019 27.516 18.1496L27.516 13.5795C27.5279 7.04562 22.6602 1.61858 16.3287 0.761683L16.3287 0.761683Z" id="Фигура" fill="#C7E4EE" fill-rule="evenodd" stroke="none" />
      <path d="M28.1349 27.8612L0.0119463 27.8612L0.0119463 29.0989L28.1349 29.0989L28.1349 27.8612L28.1349 27.8612Z" id="Фигура" fill="#F9F9F9" fill-rule="evenodd" stroke="none" />
      <path d="M9.81865 32.8121L1.27345 38.382L1.27345 30.2295L0 30.2295L0 41.3811L1.27345 41.3811L1.27345 39.8816L9.81864 34.3117L9.81864 41.393L11.0802 41.393L11.0802 30.2295L9.80674 30.2295L9.80674 32.8121L9.81865 32.8121L9.81865 32.8121ZM21.7558 29.6107C19.5302 29.6107 17.5665 30.7413 16.4358 32.4432L13.6271 32.4432L13.6271 30.2295L12.3537 30.2295L12.3537 41.3811L13.6271 41.3811L13.6271 33.6809L15.8051 33.6809C15.5551 34.3474 15.4242 35.0615 15.4242 35.8113C15.4242 39.227 18.2687 42 21.7677 42C25.2667 42 28.1111 39.227 28.1111 35.8113C28.0992 32.3837 25.2548 29.6107 21.7558 29.6107L21.7558 29.6107ZM21.7557 40.7623C18.9589 40.7623 16.6738 38.5367 16.6738 35.8113C16.6738 33.074 18.947 30.8603 21.7557 30.8603C24.5526 30.8603 26.8376 33.0859 26.8376 35.8113C26.8376 38.5367 24.5526 40.7623 21.7557 40.7623L21.7557 40.7623Z" id="Фигура" fill="#F9F9F9" fill-rule="evenodd" stroke="none" />
      <path d="M23.7314 24.0051L23.8385 24.0051C23.8385 24.0051 24.6954 22.9221 24.3621 21.3749C24.0289 19.8277 22.4579 19.1731 22.4579 19.1731C22.4579 19.1731 21.2202 18.6733 20.4942 17.7331C19.7682 16.7928 19.7563 16.1859 19.7563 16.1859C19.7563 16.1859 19.7444 16.8047 19.0184 17.7331C18.7328 18.102 18.3638 18.4114 18.0187 18.6376C18.0068 18.3638 17.983 18.0901 17.9235 17.7926C17.4831 15.7098 15.3647 14.8291 15.3647 14.8291C15.3647 14.8291 13.6866 14.1507 12.7107 12.9011C11.7348 11.6514 11.711 10.8183 11.711 10.8183C11.711 10.8183 11.6991 11.6514 10.7112 12.9011C9.72343 14.1507 8.05723 14.8291 8.05723 14.8291C8.05723 14.8291 5.93879 15.7217 5.49843 17.7926C5.05808 19.8753 6.20062 21.3392 6.20062 21.3392L6.29583 21.3392L0.630765 24.9215L0.630765 26.6829L27.516 26.6829L27.516 25.4571L23.7314 24.0051L23.7314 24.0051Z" id="Фигура" fill="#F5E7E8" fill-rule="evenodd" stroke="none" />
      <path d="M20.1491 1.90423C18.7804 2.93965 17.8997 4.54633 17.8997 6.36725C17.8997 9.48541 20.4823 12.0085 23.6719 12.0085C25.0049 12.0085 26.2307 11.5682 27.2066 10.8303C26.3616 6.879 23.7076 3.60612 20.1491 1.90423L20.1491 1.90423Z" id="Фигура" fill="#FDCC56" fill-rule="evenodd" stroke="none" />
      <path d="M18.0663 23.8861C17.7212 23.8861 17.4355 24.1717 17.4355 24.5169L17.4355 26.6948L18.6971 26.6948L18.6971 24.5169C18.6971 24.1598 18.4114 23.8861 18.0663 23.8861L18.0663 23.8861ZM20.6014 24.8263C20.2563 24.8263 19.9706 25.1119 19.9706 25.4571L19.9706 26.6829L21.2322 26.6829L21.2322 25.4571C21.2322 25.1119 20.9465 24.8263 20.6014 24.8263L20.6014 24.8263ZM23.1363 25.826C22.7912 25.826 22.5055 26.1117 22.5055 26.4568L22.5055 26.6829L23.7671 26.6829L23.7671 26.4568C23.7671 26.1117 23.4814 25.826 23.1363 25.826L23.1363 25.826ZM15.5432 22.9102C15.1981 22.9102 14.9125 23.1958 14.9125 23.5409L14.9125 26.6829L16.174 26.6829L16.174 23.5409C16.174 23.1958 15.8884 22.9102 15.5432 22.9102L15.5432 22.9102ZM28.1587 13.6033C28.1587 6.10541 22.0533 0 14.5554 0L13.6152 0C6.11736 0 0.0119463 6.10541 0.0119463 13.6033L0.0119463 26.6829L1.27349 26.6829L1.27349 25.2666L9.84249 19.8396L9.84249 21.3154L1.3568 26.671L3.71327 26.671L9.84249 22.8031L9.84249 26.671L11.104 26.671L11.104 19.8753L26.9091 25.8855L26.9091 26.6829L28.1706 26.6829L28.1587 13.6033L28.1587 13.6033ZM20.2443 2.65401C23.3267 4.2607 25.6475 7.12893 26.5282 10.5684C25.6951 11.104 24.7192 11.3896 23.7076 11.3896C20.8632 11.3896 18.5543 9.14027 18.5543 6.36725C18.5543 4.93908 19.1613 3.60612 20.2443 2.65401L20.2443 2.65401ZM14.7102 1.48768C14.8649 1.42817 15.0196 1.35676 15.1863 1.29725C15.1982 1.29725 15.2101 1.28535 15.222 1.28535C16.5668 1.35676 17.8522 1.64239 19.0423 2.10655C17.9355 3.26098 17.3166 4.76056 17.3166 6.36724C17.3166 8.43808 18.3401 10.2709 19.923 11.4134L19.9111 11.4134L19.8397 11.4134C19.316 11.4491 18.7805 11.5443 18.2211 11.6872C18.1616 11.6039 18.1021 11.5205 18.0307 11.4491C18.0188 11.4372 18.0188 11.4253 18.0069 11.4134C17.9236 11.3063 17.8403 11.2111 17.7569 11.1159C17.7212 11.0683 17.6855 11.0326 17.6498 10.985C17.6022 10.9255 17.5546 10.8779 17.507 10.8184C17.4594 10.7589 17.4118 10.7113 17.3642 10.6636C17.3285 10.6279 17.2928 10.5922 17.2571 10.5446C17.1976 10.4851 17.1381 10.4256 17.0905 10.3661C17.0786 10.3542 17.0548 10.3304 17.0429 10.3185C16.3288 9.58062 15.5314 8.91414 14.6745 8.34287C14.6626 8.33097 14.6507 8.33097 14.6388 8.31907C14.5555 8.25957 14.4603 8.20006 14.377 8.15245C14.3532 8.14055 14.3294 8.12865 14.3055 8.10485C14.2222 8.05724 14.1389 7.99774 14.0556 7.95013C13.9961 7.91443 13.9485 7.87872 13.889 7.85492C13.8176 7.80731 13.7343 7.75971 13.651 7.724C13.5558 7.6764 13.4724 7.61689 13.3772 7.56928C13.3534 7.55738 13.3296 7.54548 13.3058 7.53358C13.1987 7.47407 13.0797 7.41457 12.9726 7.36696C12.9726 7.36696 12.9607 7.36696 12.9607 7.35506C12.7584 7.24795 12.5441 7.15274 12.3418 7.05752L12.3418 6.64098L11.3183 6.64098C10.509 6.34344 9.66401 6.12922 8.80711 5.9745C8.84281 5.92689 8.87852 5.87929 8.92612 5.83168C8.98563 5.76027 9.04514 5.68886 9.09274 5.61746C9.16415 5.53415 9.22366 5.46274 9.29507 5.37943C9.35458 5.30802 9.41408 5.23661 9.47359 5.1771C9.545 5.0938 9.61641 5.02239 9.68781 4.95098C9.74732 4.87957 9.80683 4.82006 9.87824 4.74866C9.94965 4.67725 10.0211 4.60584 10.1044 4.52253C10.1639 4.46302 10.2353 4.39161 10.2948 4.33211C10.3662 4.2607 10.4495 4.18929 10.5209 4.11788C10.5923 4.05838 10.6518 3.99887 10.7232 3.93936C10.8065 3.86795 10.878 3.80845 10.9613 3.73704C11.0327 3.67753 11.1041 3.61802 11.1755 3.57042C11.2588 3.49901 11.3421 3.4395 11.4254 3.38C11.4968 3.32049 11.5682 3.27288 11.6396 3.21338C11.723 3.15387 11.8182 3.09436 11.9015 3.02295C11.9729 2.97535 12.0443 2.91584 12.1157 2.86824C12.2109 2.80873 12.2942 2.74922 12.3894 2.68972C12.4608 2.64211 12.5322 2.5945 12.6156 2.5469C12.7108 2.48739 12.806 2.42789 12.9012 2.38028C12.9726 2.33268 13.044 2.29697 13.1273 2.24936C13.2225 2.18986 13.3296 2.14225 13.4248 2.08275C13.4963 2.04704 13.5677 1.99944 13.6391 1.96373C13.7462 1.90422 13.8533 1.85662 13.9604 1.80901C14.0318 1.77331 14.1032 1.7376 14.1627 1.7019C14.2817 1.64239 14.4008 1.59479 14.5198 1.54718C14.5912 1.53528 14.6507 1.51148 14.7102 1.48768L14.7102 1.48768ZM12.3656 10.7945L12.3656 9.00934L13.6391 9.00934L13.6391 8.02153C13.6629 8.03343 13.6986 8.05723 13.7224 8.06913C13.9723 8.21195 14.2103 8.36667 14.4603 8.52138L14.4722 8.53329C14.5674 8.59279 14.6626 8.6642 14.7578 8.72371C15.3291 9.12836 15.8765 9.56871 16.3883 10.0567C16.4002 10.0686 16.4002 10.0686 16.4121 10.0805C16.4835 10.1519 16.5668 10.2233 16.6382 10.2947C16.6501 10.3066 16.6739 10.3304 16.6858 10.3423C16.7572 10.4137 16.8167 10.4851 16.8881 10.5446C16.912 10.5684 16.9358 10.5922 16.9596 10.616C17.0191 10.6874 17.0905 10.7469 17.15 10.8184C17.1738 10.8541 17.2095 10.8779 17.2333 10.9136C17.3166 11.0088 17.3999 11.104 17.4832 11.1992C17.5308 11.2587 17.5903 11.3301 17.6379 11.3896C17.6736 11.4253 17.6974 11.4729 17.7331 11.5086C17.7808 11.5681 17.8403 11.6395 17.8879 11.6991C17.8998 11.711 17.9117 11.7348 17.9236 11.7467C16.5787 12.1275 15.3172 12.7702 14.2222 13.4129C13.8652 13.1629 13.5082 12.8416 13.2225 12.4726C12.4132 11.4372 12.3656 10.7707 12.3656 10.7588L12.3656 10.7945L12.3656 10.7945ZM12.3537 7.80731L12.3537 7.37886C12.6036 7.49787 12.8535 7.61688 13.0916 7.7359C13.1154 7.7478 13.1392 7.7597 13.1511 7.7716C13.1749 7.7835 13.2106 7.80731 13.2344 7.81921L12.3537 7.80731L12.3537 7.80731L12.3537 7.80731ZM13.6152 1.26156L14.4721 1.26156C14.3293 1.32106 14.1865 1.38057 14.0437 1.45198C13.9842 1.47578 13.9246 1.51149 13.8651 1.53529C13.7461 1.59479 13.639 1.6424 13.52 1.70191C13.4486 1.73761 13.3772 1.77332 13.3058 1.80902C13.1987 1.86853 13.1035 1.91613 12.9963 1.97564C12.9249 2.01134 12.8535 2.05895 12.7821 2.10655C12.6869 2.16606 12.5917 2.21367 12.4965 2.27317C12.4251 2.32078 12.3537 2.36838 12.2823 2.40409C12.1871 2.46359 12.1037 2.5231 12.0085 2.58261C11.9371 2.63021 11.8657 2.67782 11.7943 2.72543C11.6991 2.78493 11.6158 2.85634 11.5325 2.91585C11.4611 2.96345 11.3897 3.02296 11.3301 3.07057C11.2468 3.14198 11.1516 3.20148 11.0683 3.27289C10.9969 3.32049 10.9374 3.38 10.866 3.42761C10.7827 3.49902 10.6994 3.57042 10.6161 3.64183C10.5566 3.70134 10.4851 3.74894 10.4256 3.80845C10.3423 3.87986 10.259 3.96317 10.1757 4.04648C10.1162 4.10599 10.0567 4.15359 9.99719 4.2131C9.90198 4.29641 9.81867 4.39162 9.73536 4.47493C9.68775 4.52253 9.64015 4.57014 9.59254 4.61774C9.48543 4.73676 9.36641 4.85577 9.2593 4.97479C9.2355 4.99859 9.2117 5.02239 9.18789 5.0462C9.05698 5.18901 8.93796 5.34373 8.80705 5.48655C8.77134 5.53415 8.73564 5.58176 8.69993 5.62936C8.62853 5.72457 8.54522 5.81979 8.47381 5.915C8.03346 5.84359 7.58121 5.80788 7.14085 5.77218C7.09325 5.77218 7.05754 5.77218 7.00994 5.76028C6.92663 5.76028 6.85522 5.74837 6.77191 5.74837C6.7005 5.74837 6.64099 5.74837 6.56958 5.73647C6.51008 5.73647 6.46247 5.73647 6.40297 5.73647C6.34346 5.73647 6.28395 5.73647 6.22444 5.73647C6.02212 5.73647 5.8198 5.73647 5.62938 5.74837C5.59367 5.74837 5.54606 5.74837 5.51036 5.74837C5.43895 5.74837 5.35564 5.76028 5.28424 5.76028C5.23663 5.76028 5.17712 5.77218 5.12952 5.77218C5.05811 5.77218 4.9867 5.78408 4.9153 5.78408C4.84389 5.79598 4.76058 5.79598 4.68917 5.80788C4.60586 5.81979 4.53445 5.81979 4.45114 5.83169C4.36783 5.84359 4.28452 5.85549 4.20121 5.86739C4.15361 5.87929 4.106 5.87929 4.05839 5.89119C4.02269 5.89119 3.99889 5.9031 3.96318 5.9031C6.23635 3.09437 9.71156 1.26156 13.6152 1.26156L13.6152 1.26156ZM1.28532 13.6033C1.28532 10.8541 2.18983 8.30716 3.7132 6.26012C3.72511 6.26012 3.73701 6.26012 3.74891 6.24822C3.80841 6.23632 3.86792 6.22442 3.92743 6.22442C3.98693 6.21252 4.04644 6.20062 4.10595 6.20062C4.17736 6.18871 4.23686 6.17681 4.30827 6.17681C4.35588 6.16491 4.40348 6.16491 4.45109 6.16491C4.5344 6.15301 4.60581 6.14111 4.68912 6.14111C4.71292 6.14111 4.73672 6.14111 4.76053 6.12921C5.18898 6.0816 5.62933 6.0578 6.06968 6.0578C6.08158 6.0578 6.09348 6.0578 6.11729 6.0578C6.2125 6.0578 6.30771 6.0578 6.40292 6.0578C6.43862 6.0578 6.47433 6.0578 6.51003 6.0578C6.59334 6.0578 6.67665 6.0578 6.75996 6.0697C6.81947 6.0697 6.87897 6.0697 6.93848 6.0816C6.99799 6.0816 7.0694 6.0816 7.1289 6.09351C8.49756 6.17681 9.83052 6.45055 11.104 6.8909L11.104 7.83111L9.83052 7.83111L9.83052 9.03315L11.104 9.03315L11.104 10.8184L11.0683 10.8184L11.0683 10.8065C11.0683 10.8184 11.0088 11.4848 10.2114 12.5203C10.1281 12.6274 10.0328 12.7345 9.93763 12.8416C9.37826 12.7345 8.807 12.675 8.23573 12.675C5.47461 12.675 2.92772 13.9484 1.29723 16.055L1.29723 13.6033L1.28532 13.6033L1.28532 13.6033ZM1.28532 23.779L1.28532 17.7331C2.41595 18.2091 3.6299 18.3043 4.79623 18.1972C4.65341 19.5302 5.05806 20.5894 5.3675 21.1964L1.28532 23.779L1.28532 23.779ZM4.8796 17.6617C4.85579 17.745 4.84389 17.8402 4.83199 17.9235C3.92749 18.0068 2.97538 17.983 2.05897 17.7331C2.05897 17.7331 2.05897 17.7331 2.04707 17.7331C1.95186 17.7093 1.86855 17.6855 1.77334 17.6498L1.76144 17.6498C1.67813 17.626 1.59482 17.5903 1.4996 17.5546C1.4877 17.5546 1.4877 17.5427 1.4758 17.5427C1.40439 17.5189 1.33298 17.4832 1.27348 17.4593L1.27348 16.531C2.83256 14.3055 5.41516 12.9487 8.21198 12.9487C8.69994 12.9487 9.1879 12.9963 9.66395 13.0677C8.83086 13.8056 7.83114 14.2341 7.80733 14.2341C7.72403 14.2698 5.39136 15.2695 4.8796 17.6617L4.8796 17.6617ZM15.0434 20.0419L10.9374 18.4829C10.4375 18.2924 9.87817 18.3519 9.42591 18.6376L6.47437 20.5061C6.36726 20.2919 6.26015 20.0181 6.17683 19.6849C6.39106 19.2564 7.54549 17.3046 10.5327 17.8283C12.2941 18.1377 13.5438 17.9592 14.2579 17.2927C14.7101 16.8643 14.8053 16.3644 14.8172 16.0788L13.5557 16.0788C13.5438 16.1621 13.4962 16.2811 13.3772 16.3882C13.1867 16.5548 12.556 16.9 10.7589 16.5905C8.77133 16.2454 7.25986 16.7929 6.23634 17.6498C6.7243 16.1383 8.31908 15.4361 8.33099 15.4361C8.4024 15.4004 10.1757 14.6744 11.2468 13.3058C11.4372 13.0558 11.592 12.8297 11.7348 12.6155C11.8657 12.8297 12.0204 13.0677 12.2227 13.3058C13.2939 14.6744 15.0672 15.4123 15.1386 15.4361C15.1624 15.448 16.9476 16.2097 17.3165 17.9473C17.3403 18.0782 17.3641 18.1972 17.376 18.3162C17.0666 18.4948 16.8405 18.59 16.8286 18.59C16.7453 18.6019 15.7217 19.0422 15.0434 20.0419L15.0434 20.0419ZM23.529 23.2672L16.3049 20.5299C16.7453 20.03 17.2927 19.792 17.2927 19.792C17.3522 19.7682 18.709 19.2088 19.5302 18.1496C19.6135 18.0425 19.6849 17.9354 19.7563 17.8402C19.8277 17.9354 19.8991 18.0425 19.9824 18.1496C20.8036 19.2088 22.1604 19.7682 22.208 19.7801C22.2199 19.7801 23.4695 20.3395 23.7195 21.5177C23.8861 22.2794 23.6957 22.8983 23.529 23.2672L23.529 23.2672ZM26.8971 24.5406L24.7311 23.7195C24.981 23.1601 25.2071 22.2913 24.9929 21.244C24.6002 19.3874 22.7912 18.6138 22.7079 18.5781C22.6959 18.5781 21.6129 18.1258 21.006 17.3403C20.4823 16.6738 20.4109 16.2335 20.399 16.174L20.399 16.0788L19.1017 16.0788L19.1017 16.1859C19.0898 16.293 18.9827 16.7214 18.5067 17.3403C18.4948 17.3522 18.4829 17.3641 18.4829 17.376C17.864 15.1981 15.7098 14.2698 15.6146 14.2221C15.6027 14.2221 15.091 14.0079 14.484 13.6033C15.5789 12.9725 16.8286 12.3536 18.1496 11.9966C18.7328 11.8419 19.316 11.7348 19.8634 11.6991L19.9348 11.6991C19.9586 11.6991 19.9824 11.6991 20.0062 11.6991C20.1133 11.6872 20.2324 11.6872 20.3395 11.6872C21.3154 12.2822 22.4698 12.6274 23.7076 12.6274C23.779 12.6274 23.8504 12.6274 23.9218 12.6274C24.8977 13.1986 25.7189 13.996 26.3021 14.96C26.5401 15.3528 26.7424 15.7455 26.909 16.1383L26.909 24.5406L26.8971 24.5406L26.8971 24.5406ZM26.8972 15.4599C26.79 15.2457 26.671 15.0315 26.5401 14.8172C26.0046 13.9246 25.2667 13.1749 24.4098 12.5917C25.2429 12.5084 26.0403 12.2465 26.7781 11.8538C26.8615 12.4251 26.8972 13.0082 26.8972 13.6033L26.8972 15.4599L26.8972 15.4599ZM13.0082 21.97C12.6631 21.97 12.3775 22.2556 12.3775 22.6007L12.3775 26.6948L13.639 26.6948L13.639 22.6007C13.639 22.2556 13.3653 21.97 13.0082 21.97L13.0082 21.97Z" id="Фигура" fill="#1E1E2F" fill-rule="evenodd" stroke="none" />
    </g>
    <path d="M0.719691 26.6665L0 26.6665L0 13.7119C0 9.93592 1.33501 6.71294 4.00499 4.04294C6.67487 1.37294 9.89781 0.03794 13.6739 0.03794L14.7025 0.03794C18.4786 0.03794 21.7015 1.37294 24.3714 4.04294C27.0414 6.71294 28.3764 9.93592 28.3764 13.7119L28.3764 26.6665L26.937 26.6665L26.937 13.7119C26.937 10.3334 25.7426 7.44967 23.3536 5.06073C20.9647 2.67179 18.081 1.47732 14.7025 1.47732L13.6739 1.47732C10.2954 1.47733 7.41173 2.6718 5.02278 5.06073C2.63383 7.44967 1.43938 10.3334 1.43938 13.7119L1.43938 26.6665L0.719691 26.6665L0.719691 26.6665Z" id="Вектор" fill="#FFFFFF" fill-rule="evenodd" stroke="none" />
  </g>
</svg>