<?xml version="1.0" encoding="utf-8"?>
<svg width="133px" height="175.9779px" viewBox="0 0 133 175.9779" version="1.1" xmlns:xlink="http://www.w3.org/1999/xlink" xmlns="http://www.w3.org/2000/svg">
  <path d="M99.178 96.8898L99.178 102.484L105.027 102.484L105.027 96.8898C104.773 95.364 103.755 94.3467 102.23 94.0925C100.704 93.8382 99.178 95.1097 99.178 96.8898L99.178 96.8898ZM113.673 102.23L113.673 102.739L119.522 102.739L119.522 102.23C119.522 101.976 119.522 101.976 119.522 101.721C119.267 100.196 117.996 98.9241 116.216 98.9241C114.436 98.9241 113.418 100.45 113.673 102.23L113.673 102.23ZM3.56042 102.484L13.224 102.484L45.0118 81.3771L45.0118 102.484L50.8608 102.484L50.8608 66.3732L126.643 94.0922L126.643 102.484L132.747 102.484L132.747 89.7691L118.506 84.683C120.031 81.1228 120.286 77.0539 119.523 73.2394C117.997 67.6447 114.182 63.0672 109.096 60.7785C106.045 59.507 103.502 57.4726 101.467 54.9295C100.196 53.4037 99.1785 51.3693 98.6699 49.3348L92.5667 49.3348C92.058 51.3693 91.2952 53.4037 89.7693 54.9295C89.0063 55.6924 88.2434 56.4553 87.4806 57.2183C87.4806 56.964 87.4806 56.964 87.4806 56.7097C85.1918 45.266 74.2568 40.4342 73.7482 40.1799C69.425 38.1455 65.6105 35.3482 62.5588 31.7879C60.5244 29.4992 59.2529 26.7019 58.49 23.6502L58.49 10.935L64.5933 10.935L64.5933 4.83177L58.49 4.83177L58.49 0L52.3867 0L52.3867 5.34036L46.0291 5.34036L46.0291 11.4436L52.3867 11.4436L52.3867 24.1588L52.3867 24.1588C51.8781 27.2104 50.3523 30.0078 48.3179 32.5508C45.2662 36.1111 41.4517 38.9084 37.1284 40.9428C36.6199 41.1971 25.6848 46.0289 23.3961 57.4725C22.1246 62.8129 22.8875 68.6619 25.4305 73.748L0.508789 90.532L0.508789 102.739L3.56042 102.484L3.56042 102.484L3.56042 102.484ZM94.6007 58.744C94.855 58.2354 95.3636 57.7267 95.6179 57.4724C95.8723 57.981 96.1266 58.4897 96.6351 58.744C99.4325 62.0499 102.993 64.593 106.807 66.373C107.57 66.6274 108.333 67.136 108.842 67.6446C113.674 70.9505 115.199 77.3081 112.911 82.6485L79.5969 70.4419C80.8684 68.6618 82.3942 67.3903 84.4286 66.373C88.2432 64.593 91.8035 62.0499 94.6007 58.744L94.6007 58.744ZM63.8287 49.0805C63.8287 49.8434 63.5745 50.6064 62.8115 51.115C61.7943 52.1322 58.7427 53.4037 50.605 52.1322C41.4501 50.3521 34.3296 53.1494 29.4978 57.2183C31.7865 49.8434 39.4156 46.5375 39.4156 46.5375C44.756 44.2488 49.3335 40.6885 53.1481 36.3654C53.9109 35.3482 54.6738 34.0766 55.4368 33.0594C56.1997 34.3309 56.9626 35.3482 57.7255 36.3654C61.54 40.6885 66.1176 44.2488 71.4579 46.5375C71.4579 46.5375 79.8499 50.3521 81.63 58.7441C81.8843 59.507 81.8843 60.5242 81.8843 61.2871C78.5784 62.8129 75.781 65.356 74.001 68.4076L49.3335 59.2527L48.825 58.9984L47.2991 58.9984L30.515 70.1877C30.0065 69.1705 29.7522 67.899 29.4978 66.8818C30.515 64.8474 35.8555 55.4381 49.8422 57.9812C57.9799 59.507 63.8289 58.4898 67.389 55.4381C69.4235 53.658 70.4407 51.115 70.1864 48.5719L63.8287 49.0805L63.8287 49.0805ZM6.35767 93.5834L45.0118 67.6445L45.0118 74.0021L6.35767 99.941L6.35767 93.5834L6.35767 93.5834ZM55.694 80.8683L55.694 102.484C55.694 102.484 55.694 102.484 55.694 102.484L61.543 102.484C61.543 102.484 61.543 102.484 61.543 102.484L61.543 80.8683C61.2887 79.3424 60.2715 78.3252 58.7456 78.0709C57.4741 78.0709 55.9484 79.3424 55.694 80.8683L55.694 80.8683ZM84.6823 91.5493L84.6823 102.484L90.7855 102.484L90.7855 91.5493C90.7855 89.7692 89.5139 88.4977 87.7339 88.4977C85.9537 88.4977 84.6823 89.7692 84.6823 91.5493L84.6823 91.5493ZM70.1873 86.2089L70.1873 102.484L76.2905 102.484L76.2905 86.2089C76.2905 85.9546 76.2905 85.9546 76.2905 85.7003C76.0363 84.1744 74.7648 82.9029 72.9846 82.9029C71.2045 82.9029 70.1873 84.683 70.1873 86.2089L70.1873 86.2089ZM51.115 119.014L45.0117 119.014L45.0117 131.221L6.10327 157.16L6.10327 119.014L0 119.014L0 172.926L6.10327 172.926L6.10327 164.28L45.0117 138.341L45.0117 165.043L45.0117 172.926L51.115 172.926L51.115 127.152L51.115 127.152L51.115 119.014L51.115 119.014ZM102.992 115.962C92.3113 115.962 83.1564 121.557 77.816 129.695L61.032 129.695L61.032 119.014L54.9287 119.014L54.9287 172.926L61.032 172.926L61.032 135.544L74.7644 135.544C73.4929 138.85 72.9843 142.41 72.9843 145.97C72.9843 162.5 86.4624 175.978 102.992 175.978C119.522 175.978 133 162.5 133 145.97C133 145.97 133 145.97 133 145.97C133 129.44 119.522 115.962 102.992 115.962L102.992 115.962ZM102.992 170.129C89.7679 170.129 79.0873 159.448 79.0873 145.97C79.0873 132.746 89.7679 121.811 102.992 121.811L102.992 121.811C116.216 121.811 126.896 132.492 127.151 145.716C126.896 159.194 116.216 170.129 102.992 170.129L102.992 170.129ZM132.746 106.807L0.254028 106.807L0.254028 112.911L133 112.911L133 106.807L132.746 106.807Z" id="Фигура" fill="#1E1E2F" fill-rule="evenodd" stroke="none" />
</svg>