<?xml version="1.0" encoding="utf-8"?>
<svg width="52.30005px" height="69.19995px" viewBox="0 0 52.30005 69.19995" version="1.1" xmlns:xlink="http://www.w3.org/1999/xlink" xmlns="http://www.w3.org/2000/svg">
  <path d="M39 38.1L39 40.2999L41.3 40.2999L41.3 38.1C41.2 37.5 40.8 37.1 40.2 37C39.6001 36.9 39 37.4 39 38.1L39 38.1ZM44.7 40.2L44.7 40.4L47 40.4L47 40.2C47 40.1 47 40.1 47 40C46.8999 39.4 46.3999 38.9 45.7 38.9C45 38.9 44.6001 39.5 44.7 40.2L44.7 40.2ZM1.3999 40.3L5.19995 40.3L17.7 32L17.7 40.3L20 40.3L20 26.1L49.8 37L49.8 40.3L52.2 40.3L52.2 35.3L46.5999 33.3C47.2 31.9 47.3 30.3 47 28.8C46.3999 26.6 44.8999 24.8 42.8999 23.9C41.7 23.4 40.7 22.6 39.8999 21.6C39.3999 21 39 20.2 38.8 19.4L36.3999 19.4C36.2 20.2 35.8999 21 35.3 21.6C35 21.9 34.7 22.2 34.3999 22.5C34.3999 22.4 34.3999 22.4 34.3999 22.3C33.5 17.8 29.2 15.9 29 15.8C27.3 15 25.8 13.9 24.5999 12.5C23.8 11.6 23.3 10.5 23 9.30005L23 4.30005L25.3999 4.30005L25.3999 1.90002L23 1.90002L23 0L20.5999 0L20.5999 2.09998L18.0999 2.09998L18.0999 4.5L20.5999 4.5L20.5999 9.5L20.5999 9.5C20.3999 10.7 19.8 11.8 19 12.8C17.8 14.2 16.3 15.3 14.5999 16.1C14.3999 16.2 10.0999 18.1 9.19995 22.6C8.69995 24.7 9 27 10 29L0.199951 35.6L0.199951 40.4L1.3999 40.3L1.3999 40.3L1.3999 40.3ZM37.2 23.1C37.3 22.9 37.5 22.7 37.6001 22.6C37.7 22.8 37.8 23 38 23.1C39.1001 24.4 40.5 25.4 42 26.1C42.3 26.2 42.6001 26.4 42.8 26.6C44.7 27.9 45.3 30.4 44.4001 32.5L31.3 27.7C31.8 27 32.4001 26.5 33.2 26.1C34.7 25.4 36.1001 24.4 37.2 23.1L37.2 23.1ZM25.1001 19.3C25.1001 19.6 25 19.9 24.7002 20.1C24.3 20.5 23.1001 21 19.9001 20.5C16.3 19.8 13.5 20.9 11.6001 22.5C12.5 19.6 15.5 18.3 15.5 18.3C17.6001 17.4 19.4001 16 20.9001 14.3C21.2002 13.9 21.5 13.4 21.8 13C22.1001 13.5 22.4001 13.9 22.7002 14.3C24.2002 16 26 17.4 28.1001 18.3C28.1001 18.3 31.4001 19.8 32.1001 23.1C32.2002 23.4 32.2002 23.8 32.2002 24.1C30.9001 24.7 29.8 25.7 29.1001 26.9L19.4001 23.3L19.2002 23.2L18.6001 23.2L12 27.6C11.8 27.2 11.7002 26.7 11.6001 26.3C12 25.5 14.1001 21.8 19.6001 22.8C22.8 23.4 25.1001 23 26.5 21.8C27.3 21.1 27.7002 20.1 27.6001 19.1L25.1001 19.3L25.1001 19.3ZM2.5 36.8L17.7 26.6L17.7 29.1L2.5 39.3L2.5 36.8L2.5 36.8ZM21.8999 31.8L21.8999 40.3C21.8999 40.3 21.8999 40.3 21.8999 40.3L24.2 40.3C24.2 40.3 24.2 40.3 24.2 40.3L24.2 31.8C24.0999 31.2 23.7 30.8 23.0999 30.7C22.5999 30.7 22 31.2 21.8999 31.8L21.8999 31.8ZM33.3 36L33.3 40.3L35.7 40.3L35.7 36C35.7 35.3 35.2 34.8 34.5 34.8C33.8 34.8 33.3 35.3 33.3 36L33.3 36ZM27.6001 33.9L27.6001 40.3L30 40.3L30 33.9C30 33.8 30 33.8 30 33.7C29.9001 33.1 29.4001 32.6 28.7002 32.6C28 32.6 27.6001 33.3 27.6001 33.9L27.6001 33.9ZM20.1001 46.8L17.7 46.8L17.7 51.6L2.3999 61.8L2.3999 46.8L0 46.8L0 68L2.3999 68L2.3999 64.6L17.7 54.4L17.7 64.9L17.7 68L20.1001 68L20.1001 50L20.1001 50L20.1001 46.8L20.1001 46.8ZM40.5 45.6C36.3 45.6 32.7002 47.8 30.6001 51L24 51L24 46.8L21.6001 46.8L21.6001 68L24 68L24 53.3L29.4001 53.3C28.9001 54.6 28.7002 56 28.7002 57.4C28.7002 63.9 34 69.2 40.5 69.2C47 69.2 52.3 63.9 52.3 57.4C52.3 57.4 52.3 57.4 52.3 57.4C52.3 50.9 47 45.6 40.5 45.6L40.5 45.6ZM40.5 66.9C35.3 66.9 31.1001 62.7 31.1001 57.4C31.1001 52.2 35.3 47.9 40.5 47.9L40.5 47.9C45.7002 47.9 49.9001 52.1 50 57.3C49.9001 62.6 45.7002 66.9 40.5 66.9L40.5 66.9ZM52.2002 42L0.100098 42L0.100098 44.4L52.3 44.4L52.3 42L52.2002 42Z" id="mini-logo" fill="#F9F9F9" fill-rule="evenodd" stroke="none" />
</svg>