<svg id="Layer_1" data-name="Layer 1" xmlns="http://www.w3.org/2000/svg" viewBox="0 0 257.14 358.61"><defs><style>.cls-1{font-size:33px;fill:#f5e7e8;font-family:AcherusFeral-Bold, Acherus Feral;font-weight:700;}.cls-2{letter-spacing:-0.01em;}.cls-3{letter-spacing:-0.01em;}.cls-4{letter-spacing:-0.03em;}.cls-5{fill:#1e1e2f;}</style></defs><text class="cls-1" transform="translate(-587.41 241.44)">Ч<tspan class="cls-2" x="23.03" y="0">т</tspan><tspan x="38.91" y="0">о т</tspan><tspan class="cls-3" x="82.14" y="0">у</tspan><tspan x="100.02" y="0">т с</tspan><tspan class="cls-3" x="140.91" y="0">к</tspan><tspan x="159.55" y="0">оро</tspan><tspan x="0" y="38">б</tspan><tspan class="cls-4" x="21.22" y="38">у</tspan><tspan x="38.38" y="38">д</tspan><tspan class="cls-3" x="59.56" y="38">е</tspan><tspan x="78.77" y="38">т</tspan></text><path class="cls-5" d="M257.14,358.61H0V150.85a4,4,0,0,1,7.38-2.13h0c10.56,16.76,29.72,25.19,50,22,28.25-4.46,46.18-29.21,41.7-57.57S69.94,66.75,41.69,71.21a51.49,51.49,0,0,0-25,11.07h0a4,4,0,0,1-6.23-4.66h0A128.68,128.68,0,0,1,177.19,9.52l3.89,1.59-1.78,3.81c-2.92,6.22-7.36,9.37-14.84,10.55-11.33,1.79-16.69-3.33-22.15-11.92l-7.17,5.29c8.65,13.93,16.74,17.92,30.75,15.71,11.21-1.77,17.46-6.22,21.57-15.37l1.82-4,3.84,2.23a129.09,129.09,0,0,1,64,111.21ZM8,350.61H249.14v-222a121,121,0,0,0-30.7-80.31l16.27,103.11-32.58,5.15-8.19-51.93-29.68,57.9L135.59,167l-17.5-111,32.58-5.15,8.19,51.92,29.68-57.89,23.16-3.66a119.7,119.7,0,0,0-19-14.82c-5.32,9.08-13.37,14.07-25.57,16C146,45.79,135.54,35.8,126.38,19.76l-1.76-3.09,11.43-8.44Q132.33,8,128.57,8A120.54,120.54,0,0,0,24.16,68.23a61.21,61.21,0,0,1,16.28-4.92C73.19,58.13,101.81,79,107,111.89s-15.6,61.55-48.35,66.72C39.28,181.67,20.79,175.54,8,162.39ZM127.23,62.71l15,95.16L159,155.23l34.19-66.72,6.16-.94,9.44,59.8,16.77-2.65-15-95.16L193.8,52.21l-34.19,66.7-6.16,1L144,60.06ZM149.41,9.79c5.24,8.06,7.89,8.71,13.8,7.78,3-.48,4.95-1.26,6.31-2.43A119.29,119.29,0,0,0,149.41,9.79ZM122.46,248.07c-32.62,0-61.26-13.84-80.74-39.63l-2.27-3L62.28,186l2.6,2.92c21.16,23.78,43.52,31.39,74.76,25.46,31.41-6,48.91-20.79,60.42-51.18l1.37-3.61L230,169.24l-1.1,3.7c-11.62,39-41.21,64.89-83.32,72.89h0A124,124,0,0,1,122.46,248.07Zm-72-41.49c22.39,27.5,55.51,38.64,93.7,31.39h0c38.25-7.27,64.44-29.23,76-63.64l-14-4.73c-12.55,30.56-32.18,46.38-65,52.61-32.6,6.19-57.31-1.56-79.58-25.11Z"/><path class="cls-5" d="M49.63,156.54c-16.44,0-29.77-12.07-32.67-30.44-1.53-9.71.28-19.1,5.11-26.42A31.76,31.76,0,0,1,44,85.81c18.76-3,34.72,9.67,37.93,30s-8.07,37.29-26.84,40.25h0A35,35,0,0,1,49.63,156.54Zm-.24-63.16a25.8,25.8,0,0,0-4.15.34,23.49,23.49,0,0,0-16.49,10.36c-3.73,5.65-5.11,13-3.89,20.77,2.49,15.79,14.68,25.6,29,23.35h0C68,146,76.51,132.88,74,117.1,71.73,102.63,61.88,93.38,49.39,93.38Z"/><path class="cls-5" d="M40,289.68v-8c-1.5.15-3.42.18-6.21.18-3.36,0-6.42-1.38-6.42-6.54v-6.63h3.84V275c0,2.31,1,3.36,3.42,3.36,2.19,0,3.87-.06,5.37-.21v-9.48h3.84v21Z"/><path class="cls-5" d="M51.79,289.68v-12.3H47.08V274H60.25v3.36H55.54v12.3Z"/><path class="cls-5" d="M70.09,273.69A8.16,8.16,0,1,1,62,281.85,8,8,0,0,1,70.09,273.69Zm4.32,8.16c0-2.73-1.77-4.74-4.32-4.74s-4.35,2-4.35,4.74a4.42,4.42,0,0,0,4.35,4.74C72.64,286.59,74.41,284.55,74.41,281.85Z"/><path class="cls-5" d="M90.85,289.68v-12.3H86.14V274H99.31v3.36H94.6v12.3Z"/><path class="cls-5" d="M104,295.44l2.4-6L100.21,274h3.9l4.17,10.89h.06L112.51,274h3.9l-8.52,21.42Z"/><path class="cls-5" d="M121.78,289.68v-12.3h-4.71V274h13.17v3.36h-4.71v12.3Z"/><path class="cls-5" d="M152.68,287.07a8.1,8.1,0,0,1-6.36,2.94,8.16,8.16,0,1,1,6.3-13.44L150,279.09a4.54,4.54,0,0,0-3.69-2c-2.55,0-4.35,2-4.35,4.74a4.42,4.42,0,0,0,4.35,4.74,4.2,4.2,0,0,0,3.66-2.07Z"/><path class="cls-5" d="M155.86,289.68V274h3.75v6.3l6-6.3h4.71l-6.3,6.66,6.54,9h-4.44l-4.71-6.39-1.77,1.89v4.5Z"/><path class="cls-5" d="M179.77,273.69a8.16,8.16,0,1,1-8.13,8.16A8,8,0,0,1,179.77,273.69Zm4.32,8.16c0-2.73-1.77-4.74-4.32-4.74s-4.35,2-4.35,4.74a4.42,4.42,0,0,0,4.35,4.74C182.32,286.59,184.09,284.55,184.09,281.85Z"/><path class="cls-5" d="M191.44,295.44V274h2.4l.66,2.34a7.26,7.26,0,0,1,5.85-2.67c4.2,0,7.2,3.6,7.2,8.16s-3,8.16-7.2,8.16a6.41,6.41,0,0,1-5.16-2.52v7.95Zm12.3-13.59c0-2.73-1.74-4.74-4.32-4.74s-4.26,2.07-4.26,4.74,1.77,4.74,4.26,4.74S203.74,284.55,203.74,281.85Z"/><path class="cls-5" d="M218.05,273.69a8.16,8.16,0,1,1-8.13,8.16A8,8,0,0,1,218.05,273.69Zm4.32,8.16c0-2.73-1.77-4.74-4.32-4.74s-4.35,2-4.35,4.74a4.42,4.42,0,0,0,4.35,4.74C220.6,286.59,222.37,284.55,222.37,281.85Z"/><path class="cls-5" d="M31,313.84a6.88,6.88,0,0,1,5.43-2.34c4.32,0,7.08,3,7.08,7.68S40.06,327,35.38,327s-8.13-3.36-8.13-8.7v-5.94c0-4.86,2.43-7,7.11-7.53l8.19-1v3.42l-7.62.93c-3.27.42-3.93,1.74-3.93,4.14Zm8.7,5.34c0-2.76-1.65-4.38-4.23-4.38S31,316.27,31,319a4.31,4.31,0,0,0,4.38,4.59A4.12,4.12,0,0,0,39.7,319.18Z"/><path class="cls-5" d="M48.58,332.44l2.4-6L44.83,311h3.9l4.17,10.89H53L57.13,311H61l-8.52,21.42Z"/><path class="cls-5" d="M60.88,331.06v-7.74h1.53a6.87,6.87,0,0,0,1.68-4.92V311H76.48v12.3H79v7.74H75.22v-4.38H64.6v4.38Zm11.85-7.74v-8.94H67.84v3.87a9,9,0,0,1-1.29,5.07Z"/><path class="cls-5" d="M84.58,320.29A4.1,4.1,0,0,0,89,323.74a6.66,6.66,0,0,0,4.38-1.47l1.74,2.52A8.88,8.88,0,0,1,88.84,327a8.16,8.16,0,0,1-.15-16.32c4.83,0,7.35,3.75,7.35,8.22v1.38Zm7.77-2.7c-.18-1.89-1.29-3.69-3.63-3.69a4.1,4.1,0,0,0-4.17,3.69Z"/><path class="cls-5" d="M102.28,320.29a4.1,4.1,0,0,0,4.38,3.45,6.66,6.66,0,0,0,4.38-1.47l1.74,2.52a8.88,8.88,0,0,1-6.24,2.22,8.16,8.16,0,0,1-.15-16.32c4.83,0,7.35,3.75,7.35,8.22v1.38Zm7.77-2.7c-.18-1.89-1.29-3.69-3.63-3.69a4.1,4.1,0,0,0-4.17,3.69Z"/><path class="cls-5" d="M120,320.29a4.1,4.1,0,0,0,4.38,3.45,6.66,6.66,0,0,0,4.38-1.47l1.74,2.52a8.88,8.88,0,0,1-6.24,2.22,8.16,8.16,0,0,1-.15-16.32c4.83,0,7.35,3.75,7.35,8.22v1.38Zm7.77-2.7c-.18-1.89-1.29-3.69-3.63-3.69a4.1,4.1,0,0,0-4.17,3.69Z"/><path class="cls-5" d="M137.68,320.29a4.1,4.1,0,0,0,4.38,3.45,6.66,6.66,0,0,0,4.38-1.47l1.74,2.52a8.88,8.88,0,0,1-6.24,2.22,8.16,8.16,0,0,1-.15-16.32c4.83,0,7.35,3.75,7.35,8.22v1.38Zm7.77-2.7c-.18-1.89-1.29-3.69-3.63-3.69a4.1,4.1,0,0,0-4.17,3.69Z"/><path class="cls-5" d="M155.38,320.29a4.1,4.1,0,0,0,4.38,3.45,6.66,6.66,0,0,0,4.38-1.47l1.74,2.52a8.88,8.88,0,0,1-6.24,2.22,8.16,8.16,0,0,1-.15-16.32c4.83,0,7.35,3.75,7.35,8.22v1.38Zm7.77-2.7c-.18-1.89-1.29-3.69-3.63-3.69a4.1,4.1,0,0,0-4.17,3.69Z"/><path class="cls-5" d="M173.08,320.29a4.1,4.1,0,0,0,4.38,3.45,6.66,6.66,0,0,0,4.38-1.47l1.74,2.52a8.88,8.88,0,0,1-6.24,2.22,8.16,8.16,0,0,1-.15-16.32c4.83,0,7.35,3.75,7.35,8.22v1.38Zm7.77-2.7c-.18-1.89-1.29-3.69-3.63-3.69a4.1,4.1,0,0,0-4.17,3.69Z"/><path class="cls-5" d="M191,326.68v-12.3h-4.71V311h13.17v3.36h-4.71v12.3Z"/><path class="cls-5" d="M201.13,327.34c4.65-2.85,6.33-6.24,6.33-11.19s-1.77-8.43-6.33-11.16l1.71-3c5.22,2.58,8.34,7.59,8.34,14.16s-3.06,11.49-8.37,14.22Z"/><path class="cls-5" d="M213.85,327.34c4.65-2.85,6.33-6.24,6.33-11.19s-1.77-8.43-6.33-11.16l1.71-3c5.22,2.58,8.34,7.59,8.34,14.16s-3.06,11.49-8.37,14.22Z"/></svg>