<?xml version="1.0" encoding="utf-8"?>
<svg width="16px" height="28.30774px" viewBox="0 0 16 28.30774" version="1.1" xmlns:xlink="http://www.w3.org/1999/xlink" xmlns="http://www.w3.org/2000/svg">
  <g id="Группа-39">
    <path d="M0 1.84615C0 0.826551 0.826551 0 1.84615 0C2.86576 0 3.69231 0.826551 3.69231 1.84615C3.69231 2.86576 2.86576 3.69231 1.84615 3.69231C0.826551 3.69231 0 2.86576 0 1.84615Z" id="Овал" fill="#202030" fill-rule="evenodd" stroke="none" />
    <path d="M6.15381 1.84615C6.15381 0.826551 6.98036 0 7.99996 0C9.01957 0 9.84612 0.826551 9.84612 1.84615C9.84612 2.86576 9.01957 3.69231 7.99996 3.69231C6.98036 3.69231 6.15381 2.86576 6.15381 1.84615Z" id="Овал-Copy" fill="#202030" fill-rule="evenodd" stroke="none" />
    <path d="M12.3077 1.84615C12.3077 0.826551 13.1343 0 14.1539 0C15.1735 0 16 0.826551 16 1.84615C16 2.86576 15.1735 3.69231 14.1539 3.69231C13.1343 3.69231 12.3077 2.86576 12.3077 1.84615Z" id="Овал-Copy-2" fill="#202030" fill-rule="evenodd" stroke="none" />
    <path d="M0 8.00002C0 6.98042 0.826551 6.15387 1.84615 6.15387C2.86576 6.15387 3.69231 6.98042 3.69231 8.00002C3.69231 9.01963 2.86576 9.84618 1.84615 9.84618C0.826551 9.84618 0 9.01963 0 8.00002Z" id="Овал-Copy-3" fill="#202030" fill-rule="evenodd" stroke="none" />
    <path d="M6.15381 8.00002C6.15381 6.98042 6.98036 6.15387 7.99996 6.15387C9.01957 6.15387 9.84612 6.98042 9.84612 8.00002C9.84612 9.01963 9.01957 9.84618 7.99996 9.84618C6.98036 9.84618 6.15381 9.01963 6.15381 8.00002Z" id="Овал-Copy-4" fill="#202030" fill-rule="evenodd" stroke="none" />
    <path d="M12.3077 8.00002C12.3077 6.98042 13.1343 6.15387 14.1539 6.15387C15.1735 6.15387 16 6.98042 16 8.00002C16 9.01963 15.1735 9.84618 14.1539 9.84618C13.1343 9.84618 12.3077 9.01963 12.3077 8.00002Z" id="Овал-Copy-5" fill="#202030" fill-rule="evenodd" stroke="none" />
    <path d="M0 14.1538C0 13.1342 0.826551 12.3077 1.84615 12.3077C2.86576 12.3077 3.69231 13.1342 3.69231 14.1538C3.69231 15.1734 2.86576 16 1.84615 16C0.826551 16 0 15.1734 0 14.1538Z" id="Овал-Copy-6" fill="#202030" fill-rule="evenodd" stroke="none" />
    <path d="M6.15381 14.1538C6.15381 13.1342 6.98036 12.3077 7.99996 12.3077C9.01957 12.3077 9.84612 13.1342 9.84612 14.1538C9.84612 15.1734 9.01957 16 7.99996 16C6.98036 16 6.15381 15.1734 6.15381 14.1538Z" id="Овал-Copy-7" fill="#202030" fill-rule="evenodd" stroke="none" />
    <path d="M12.3077 14.1538C12.3077 13.1342 13.1343 12.3077 14.1539 12.3077C15.1735 12.3077 16 13.1342 16 14.1538C16 15.1734 15.1735 16 14.1539 16C13.1343 16 12.3077 15.1734 12.3077 14.1538Z" id="Овал-Copy-8" fill="#202030" fill-rule="evenodd" stroke="none" />
    <path d="M0 20.3077C0 19.2881 0.826551 18.4615 1.84615 18.4615C2.86576 18.4615 3.69231 19.2881 3.69231 20.3077C3.69231 21.3273 2.86576 22.1539 1.84615 22.1539C0.826551 22.1539 0 21.3273 0 20.3077Z" id="Овал-Copy-9" fill="#202030" fill-rule="evenodd" stroke="none" />
    <path d="M6.15381 20.3077C6.15381 19.2881 6.98036 18.4615 7.99996 18.4615C9.01957 18.4615 9.84612 19.2881 9.84612 20.3077C9.84612 21.3273 9.01957 22.1539 7.99996 22.1539C6.98036 22.1539 6.15381 21.3273 6.15381 20.3077Z" id="Овал-Copy-10" fill="#202030" fill-rule="evenodd" stroke="none" />
    <path d="M12.3077 20.3077C12.3077 19.2881 13.1343 18.4615 14.1539 18.4615C15.1735 18.4615 16 19.2881 16 20.3077C16 21.3273 15.1735 22.1539 14.1539 22.1539C13.1343 22.1539 12.3077 21.3273 12.3077 20.3077Z" id="Овал-Copy-11" fill="#202030" fill-rule="evenodd" stroke="none" />
    <path d="M0 26.4616C0 25.442 0.826551 24.6154 1.84615 24.6154C2.86576 24.6154 3.69231 25.442 3.69231 26.4616C3.69231 27.4812 2.86576 28.3077 1.84615 28.3077C0.826551 28.3077 0 27.4812 0 26.4616Z" id="Овал-Copy-12" fill="#202030" fill-rule="evenodd" stroke="none" />
    <path d="M6.15381 26.4616C6.15381 25.442 6.98036 24.6154 7.99996 24.6154C9.01957 24.6154 9.84612 25.442 9.84612 26.4616C9.84612 27.4812 9.01957 28.3077 7.99996 28.3077C6.98036 28.3077 6.15381 27.4812 6.15381 26.4616Z" id="Овал-Copy-13" fill="#202030" fill-rule="evenodd" stroke="none" />
    <path d="M12.3077 26.4616C12.3077 25.442 13.1343 24.6154 14.1539 24.6154C15.1735 24.6154 16 25.442 16 26.4616C16 27.4812 15.1735 28.3077 14.1539 28.3077C13.1343 28.3077 12.3077 27.4812 12.3077 26.4616Z" id="Овал-Copy-14" fill="#202030" fill-rule="evenodd" stroke="none" />
  </g>
</svg>