<?xml version="1.0" encoding="utf-8"?>
<svg width="138.17065px" height="206px" viewBox="0 0 138.17065 206" version="1.1" xmlns:xlink="http://www.w3.org/1999/xlink" xmlns="http://www.w3.org/2000/svg">
  <path d="M138.113 66.7209C138.113 29.9457 108.167 0 71.3918 0L66.78 0C30.0046 0 0.059082 29.9457 0.059082 66.7209L0.059082 130.873L6.24683 130.873L6.24683 123.927L48.2756 97.3085L48.2756 104.547L6.65552 130.815L18.2131 130.815L48.2756 111.844L48.2756 130.815L54.4631 130.815L54.4631 97.4835L131.983 126.962L131.983 130.873L138.171 130.873L138.113 66.7209L138.113 66.7209ZM66.78 6.18799L70.9832 6.18799C70.2825 6.47974 69.5818 6.77173 68.8816 7.12195C68.5896 7.23865 68.2976 7.41394 68.0056 7.53064C67.4221 7.82239 66.8967 8.05579 66.3132 8.3479L65.2625 8.87305C64.7371 9.16504 64.2698 9.39856 63.7444 9.69031C63.3943 9.86536 63.0442 10.099 62.6941 10.3325C62.2268 10.6243 61.76 10.8579 61.2927 11.1497C60.9426 11.3831 60.5925 11.6168 60.2424 11.7919C59.7751 12.0836 59.3665 12.3756 58.8997 12.6675L57.8489 13.3679C57.3821 13.6597 56.9734 14.0101 56.5647 14.3019C56.2146 14.5353 55.864 14.8274 55.5725 15.0608C55.1638 15.4109 54.6965 15.7029 54.2883 16.0531C53.9377 16.2865 53.6458 16.5785 53.2957 16.8119L52.0701 17.8625C51.7781 18.1547 51.428 18.3881 51.136 18.6798C50.7273 19.0302 50.3186 19.4387 49.9099 19.8474C49.6184 20.1392 49.3264 20.3726 49.0344 20.6647C48.5676 21.0731 48.1589 21.5403 47.7502 21.9487L47.0496 22.6493C46.5242 23.233 45.9407 23.8169 45.4153 24.4004L45.0652 24.7507C44.4231 25.4513 43.8391 26.21 43.197 26.9104L42.6716 27.611C42.3215 28.078 41.9128 28.5449 41.5627 29.012C39.4026 28.6616 37.1848 28.4866 35.0247 28.3115C34.7913 28.3115 34.616 28.3115 34.3826 28.2532C33.9739 28.2532 33.6238 28.1948 33.2151 28.1948C32.865 28.1948 32.573 28.1948 32.2229 28.1364L30.53 28.1364C29.5378 28.1364 28.5452 28.1364 27.6116 28.1948L27.0276 28.1948C26.6775 28.1948 26.2688 28.2532 25.9187 28.2532C25.6848 28.2532 25.3933 28.3115 25.1599 28.3115C24.8093 28.3115 24.4592 28.3699 24.1091 28.3699C23.7585 28.4282 23.3503 28.4282 22.9998 28.4866C22.5911 28.5449 22.241 28.5449 21.8323 28.6033L20.6067 28.7786C20.3733 28.8369 20.1394 28.8369 19.906 28.8953C19.7307 28.8953 19.614 28.9536 19.4392 28.9536C30.5886 15.1775 47.6335 6.18799 66.78 6.18799L66.78 6.18799ZM72.1492 7.29626C72.9084 7.00452 73.6672 6.65405 74.4841 6.3623C74.5427 6.3623 74.6013 6.30396 74.6594 6.30396C81.2556 6.65405 87.5598 8.05518 93.3972 10.3318C87.9685 15.994 84.9333 23.349 84.9333 31.2295C84.9333 41.3864 89.9534 50.3759 97.717 55.9797L97.3083 55.9797C94.74 56.1549 92.113 56.6219 89.3694 57.3225C89.0779 56.9137 88.7859 56.5052 88.4358 56.1549C88.3772 56.0966 88.3772 56.0381 88.3186 55.9797C87.9104 55.4543 87.5017 54.9875 87.093 54.5204C86.9177 54.287 86.7429 54.1119 86.5676 53.8783C86.3342 53.5864 86.1008 53.353 85.8669 53.061C85.6335 52.7693 85.4001 52.5358 85.1667 52.3021C84.9915 52.1271 84.8162 51.952 84.6414 51.7186C84.3494 51.4265 84.0574 51.1348 83.824 50.843L83.5906 50.6094C80.0881 46.9902 76.177 43.7213 71.9744 40.9193C71.9158 40.861 71.8577 40.861 71.7991 40.8026C71.3904 40.5109 70.9236 40.219 70.5149 39.9854C70.3982 39.927 70.2815 39.8687 70.1648 39.752C69.7561 39.5186 69.3474 39.2264 68.9387 38.993C68.6467 38.818 68.4133 38.6429 68.1218 38.5262C67.7712 38.2926 67.3625 38.0591 66.9543 37.884C66.4871 37.6504 66.0784 37.3586 65.6116 37.1252L65.2615 36.9501C64.7361 36.6581 64.1521 36.3663 63.6267 36.1329C63.6267 36.1329 63.5686 36.1329 63.5686 36.0743C62.5759 35.5491 61.5256 35.082 60.533 34.6151L60.533 32.5719L55.5129 32.5719C51.5437 31.1125 47.3992 30.0619 43.196 29.3031C43.3713 29.0696 43.5461 28.8362 43.78 28.6025C44.0715 28.2524 44.3635 27.902 44.5969 27.5519C44.9475 27.1434 45.239 26.793 45.5896 26.3845C45.8811 26.0342 46.1731 25.684 46.4651 25.392C46.8152 24.9835 47.1658 24.6331 47.5159 24.283C47.8079 23.9329 48.0994 23.6407 48.45 23.2906L49.5588 22.1814L50.4929 21.2474C50.843 20.8973 51.2517 20.547 51.6018 20.1968C51.9524 19.905 52.2439 19.613 52.5945 19.3213C53.0027 18.9711 53.3533 18.6791 53.762 18.329C54.1121 18.0369 54.4622 17.7451 54.8123 17.5117C55.2209 17.1614 55.6296 16.8695 56.0383 16.5778C56.3884 16.2858 56.739 16.0524 57.0891 15.7605C57.4978 15.4685 57.9646 15.1768 58.3733 14.8264C58.7234 14.5929 59.074 14.3011 59.4241 14.0677C59.8909 13.7758 60.2996 13.4839 60.7664 13.1919C61.1169 12.9585 61.467 12.7251 61.8757 12.4916C62.3425 12.1996 62.8098 11.9078 63.2766 11.6744C63.6267 11.4408 63.9773 11.2656 64.3855 11.0322C64.8528 10.7402 65.3782 10.5068 65.845 10.215C66.1951 10.0399 66.5457 9.80627 66.8958 9.63123C67.4211 9.33948 67.9465 9.10571 68.4719 8.87231C68.822 8.69727 69.1721 8.52222 69.4641 8.34717C70.0481 8.05518 70.6316 7.82166 71.2156 7.58826C71.5657 7.52991 71.8577 7.41296 72.1492 7.29626L72.1492 7.29626ZM99.2932 13.017C114.412 20.8975 125.795 34.9655 130.115 51.8354C126.029 54.4622 121.242 55.863 116.28 55.863C102.329 55.863 91.0042 44.8306 91.0042 31.2294C91.0042 24.2247 93.9812 17.6869 99.2932 13.017L99.2932 13.017ZM6.30444 66.7202C6.30444 53.236 10.7407 40.7441 18.2126 30.7037C18.2708 30.7037 18.3293 30.7037 18.3879 30.6454C18.6794 30.587 18.9714 30.5287 19.2634 30.5287C19.5554 30.4703 19.8469 30.412 20.1389 30.412C20.489 30.3536 20.781 30.2953 21.1311 30.2953C21.365 30.2369 21.5984 30.2369 21.8318 30.2369C22.2405 30.1786 22.5906 30.1202 22.9993 30.1202C23.116 30.1202 23.2327 30.1202 23.3494 30.0616C25.4509 29.8282 27.6106 29.7114 29.7708 29.7114L31.9304 29.7114C32.3391 29.7114 32.7478 29.7114 33.156 29.7698C33.448 29.7698 33.74 29.7698 34.032 29.8282C34.3235 29.8282 34.6741 29.8282 34.9661 29.8866C41.679 30.2953 48.2166 31.6377 54.4626 33.7976L54.4626 38.4092L48.2166 38.4092L48.2166 44.3048L54.4626 44.3048L54.4626 53.0609L54.2874 53.0609L54.2874 53.0026C54.2874 53.0609 53.9954 56.3298 50.0847 61.4083C49.676 61.9335 49.2087 62.459 48.7419 62.9844C45.9983 62.459 43.1965 62.1671 40.3948 62.1671C26.8518 62.1671 14.3601 68.413 6.36279 78.7451L6.36279 66.7202L6.30444 66.7202L6.30444 66.7202ZM60.5916 38.2931L60.5916 36.1915C61.8171 36.7754 63.0432 37.3589 64.2107 37.9427C64.3274 38.0011 64.4441 38.0594 64.5027 38.1178C64.6194 38.1761 64.7942 38.2931 64.9114 38.3514L60.5916 38.2931L60.5916 38.2931ZM60.6497 52.7694L60.6497 44.1887L66.8958 44.1887L66.8958 39.3436C67.0125 39.402 67.1877 39.5187 67.3044 39.5771C68.53 40.2776 69.6975 41.0365 70.9236 41.7954L70.9817 41.8538C71.449 42.1455 71.9158 42.4958 72.3831 42.7876C75.1848 44.7725 77.8699 46.9321 80.3801 49.3254L80.4968 49.4421C80.8469 49.7926 81.2556 50.1427 81.6057 50.493L81.8391 50.7266C82.1897 51.0767 82.4812 51.427 82.8318 51.7188L83.1819 52.0692C83.4739 52.4193 83.824 52.7111 84.116 53.0615C84.2327 53.2366 84.408 53.3533 84.5247 53.5283L85.7502 54.9293C85.9836 55.2212 86.2756 55.5715 86.509 55.8633C86.6843 56.0383 86.801 56.272 86.9763 56.4471C87.2097 56.7389 87.5017 57.0892 87.7351 57.381C87.7932 57.4395 87.8518 57.5562 87.9104 57.6145C81.3142 59.4825 75.1262 62.6348 69.7561 65.7867C68.0046 64.561 66.2537 62.9849 64.8528 61.1754C60.8831 56.0969 60.6497 52.828 60.6497 52.7694L60.6497 52.7694ZM131.925 120.366L121.301 116.338C122.527 113.594 123.636 109.333 122.585 104.196C120.659 95.0898 111.786 91.2958 111.378 91.1205C111.319 91.1205 106.007 88.9025 103.03 85.0497C100.462 81.7808 100.112 79.6208 100.053 79.3291L100.053 78.8621L93.6902 78.8621L93.6902 79.3875C93.6321 79.913 93.1067 82.0143 90.7717 85.0497C90.7131 85.108 90.655 85.1664 90.655 85.2249C87.6194 74.5425 77.054 69.9893 76.5867 69.7559C76.5286 69.7559 74.0183 68.7052 71.0413 66.7206C76.4119 63.6267 82.5408 60.5912 89.0203 58.8401C91.8806 58.0812 94.741 57.5558 97.426 57.3807L98.1267 57.3807C98.6521 57.3223 99.2356 57.3223 99.761 57.3223C104.548 60.2411 110.21 61.934 116.281 61.934L117.331 61.934C122.118 64.7357 126.146 68.6469 129.006 73.3751C130.174 75.3014 131.166 77.2275 131.983 79.1541L131.983 120.366L131.925 120.366L131.925 120.366ZM131.924 75.828C131.398 74.7771 130.814 73.7264 130.172 72.6758C127.546 68.2976 123.927 64.6202 119.723 61.7598C123.81 61.3513 127.72 60.067 131.34 58.1407C131.748 60.9425 131.924 63.803 131.924 66.7218L131.924 75.828L131.924 75.828ZM73.7834 98.301L53.6448 90.6539C51.1926 89.72 48.4495 90.0117 46.2312 91.4128L31.7546 100.577C31.2292 99.5267 30.7039 98.1841 30.2952 96.5496C31.3459 94.4482 37.0081 84.875 51.6599 87.4434C60.2991 88.9612 66.4285 88.0856 69.9309 84.8167C72.1492 82.7153 72.616 80.2637 72.6741 78.8625L66.4866 78.8625C66.4285 79.2711 66.1951 79.8549 65.6111 80.3804C64.677 81.1976 61.5833 82.8904 52.7688 81.3727C43.0208 79.6798 35.6072 82.365 30.5872 86.5677C32.9802 79.1544 40.8025 75.7104 40.8606 75.7104C41.2112 75.5354 49.9084 71.9744 55.1624 65.2615C56.0964 64.0358 56.8552 62.9265 57.5554 61.8759C58.1975 62.9265 58.9563 64.0941 59.949 65.2615C65.2024 71.9744 73.9001 75.5938 74.2502 75.7104C74.3669 75.7688 83.1233 79.5048 84.9329 88.0272C85.0496 88.6693 85.1663 89.2532 85.2244 89.8367C83.7068 90.7123 82.5979 91.1794 82.5393 91.1794C82.1306 91.2378 77.1106 93.3977 73.7834 98.301L73.7834 98.301ZM23.9329 86.6262C23.8162 87.0349 23.7576 87.5018 23.6995 87.9105C19.2629 88.319 14.593 88.2023 10.0984 86.9766L10.04 86.9766C9.573 86.8599 9.16431 86.7429 8.69751 86.5679L8.63916 86.5679C8.23047 86.4512 7.82178 86.2761 7.35474 86.101C7.29639 86.101 7.29639 86.0426 7.23804 86.0426C6.88794 85.9257 6.5376 85.7506 6.24561 85.6339L6.24561 81.0809C13.8928 70.1649 26.5598 63.5104 40.2776 63.5104C42.6707 63.5104 45.0642 63.7438 47.3992 64.0942C43.3127 67.7133 38.4094 69.8148 38.2927 69.8148C37.884 69.9899 26.4431 74.8932 23.9329 86.6262L23.9329 86.6262ZM6.30444 116.63L6.30444 86.9768C11.8499 89.3118 17.804 89.7786 23.5247 89.2534C22.824 95.7913 24.8088 100.986 26.3264 103.964L6.30444 116.63L6.30444 116.63ZM115.405 114.12L79.9719 100.694C82.1316 98.2428 84.8167 97.0754 84.8167 97.0754C85.1086 96.9587 91.7634 94.215 95.7913 89.0198C96.1995 88.4944 96.55 87.9692 96.9001 87.5021C97.2502 87.9692 97.6008 88.4944 98.009 89.0198C102.037 94.215 108.692 96.9587 108.925 97.0171C108.984 97.0171 115.113 99.7605 116.339 105.539C117.156 109.275 116.222 112.311 115.405 114.12L115.405 114.12ZM63.802 107.758C62.1091 107.758 60.7083 109.159 60.7083 110.851L60.7083 130.932L66.8958 130.932L66.8958 110.851C66.8958 109.159 65.553 107.758 63.802 107.758L63.802 107.758ZM76.2361 112.369C74.5432 112.369 73.1423 113.77 73.1423 115.463L73.1423 130.873L79.3298 130.873L79.3298 115.463C79.3298 113.77 77.929 112.369 76.2361 112.369L76.2361 112.369ZM88.6111 117.155C86.9182 117.155 85.5173 118.557 85.5173 120.249L85.5173 130.932L91.7048 130.932L91.7048 120.249C91.7048 118.498 90.304 117.155 88.6111 117.155L88.6111 117.155ZM101.045 121.767C99.3518 121.767 97.9509 123.168 97.9509 124.861L97.9509 130.873L104.138 130.873L104.138 124.861C104.138 123.168 102.738 121.767 101.045 121.767L101.045 121.767ZM113.478 126.671C111.785 126.671 110.385 128.072 110.385 129.764L110.385 130.873L116.572 130.873L116.572 129.764C116.572 128.072 115.171 126.671 113.478 126.671L113.478 126.671ZM137.996 136.652L0.059082 136.652L0.059082 142.723L137.996 142.723L137.996 136.652L137.996 136.652ZM106.707 145.233C95.7908 145.233 86.1589 150.779 80.6135 159.126L66.8376 159.126L66.8376 148.269L60.5916 148.269L60.5916 202.965L66.8376 202.965L66.8376 165.197L77.5198 165.197C76.2942 168.466 75.6516 171.969 75.6516 175.646C75.6516 192.399 89.6033 206 106.765 206C123.927 206 137.878 192.399 137.878 175.646C137.82 158.834 123.868 145.233 106.707 145.233L106.707 145.233ZM48.158 160.936L6.24609 188.254L6.24609 148.269L0 148.269L0 202.964L6.24609 202.964L6.24609 195.609L48.158 168.291L48.158 203.023L54.3459 203.023L54.3459 148.269L48.0999 148.269L48.0999 160.936L48.158 160.936L48.158 160.936ZM106.706 199.929C92.9885 199.929 81.781 189.013 81.781 175.646C81.781 162.22 92.9304 151.363 106.706 151.363C120.424 151.363 131.632 162.278 131.632 175.646C131.632 189.013 120.424 199.929 106.706 199.929L106.706 199.929Z" id="white-logo" fill="#F9F9F9" fill-rule="evenodd" stroke="none" />
</svg>